<?xml version="1.0" encoding="UTF-8" standalone="no"?><!DOCTYPE svg PUBLIC "-//W3C//DTD SVG 1.1//EN" "http://www.w3.org/Graphics/SVG/1.1/DTD/svg11.dtd"><svg width="100%" height="100%" viewBox="0 0 1000 600" version="1.1" xmlns="http://www.w3.org/2000/svg" xmlns:xlink="http://www.w3.org/1999/xlink" xml:space="preserve" xmlns:serif="http://www.serif.com/" style="fill-rule:evenodd;clip-rule:evenodd;stroke-miterlimit:2.613;"><g><path d="M77.117,139.66l845.593,0" style="fill:none;fill-rule:nonzero;stroke:#1b1b1b;stroke-width:5.91px;stroke-dasharray:59.1,59.1;"/><path d="M700.371,131.057l26.786,-9.182l-18.06,-17.76l-8.726,26.942" style="fill:#ff2020;"/><path d="M815.766,61.109l-91.981,0" style="fill:none;fill-rule:nonzero;stroke:#ee2a2c;stroke-width:0.89px;"/><path d="M812.384,115.109l-91.981,-0" style="fill:none;fill-rule:nonzero;stroke:#ff2020;stroke-width:0.89px;"/><path d="M699.78,61.109l25.329,12.658l0,-25.325l-25.329,12.667" style="fill:#ee2a2c;stroke:#ee2a2c;stroke-width:1px;stroke-linejoin:round;stroke-miterlimit:2;"/><path d="M319.691,305.862l-8.73,-26.937l-18.059,17.76l26.789,9.177" style="fill:#6abd45;stroke:#6abd45;stroke-width:1px;stroke-linejoin:round;stroke-miterlimit:2;"/><path d="M215.297,228.612l91.977,-0" style="fill:none;fill-rule:nonzero;stroke:#ee2a2c;stroke-width:0.89px;"/><path d="M213.409,286.033l91.977,0" style="fill:none;fill-rule:nonzero;stroke:#6abd45;stroke-width:0.89px;"/><path d="M331.277,228.612l-25.329,-12.662l0,25.329l25.329,-12.667" style="fill:#ee2a2c;stroke:#ee2a2c;stroke-width:1px;stroke-linejoin:round;stroke-miterlimit:2;"/><path d="M650.408,350.95l-26.937,8.733l17.759,18.06l9.178,-26.793" style="fill:#6abd45;stroke:#6abd45;stroke-width:1px;stroke-linejoin:round;stroke-miterlimit:2;"/><path d="M570.546,466.053l0,-80.721l-33.533,-17.923" style="fill:none;fill-rule:nonzero;stroke:#6abd45;stroke-width:0.75px;"/><path d="M605.868,467.006l0,-80.722l26.938,-17.923" style="fill:none;fill-rule:nonzero;stroke:#6abd45;stroke-width:0.71px;"/><path d="M521.944,350.205l9.181,26.785l17.76,-18.059l-26.941,-8.726" style="fill:#6abd45;stroke:#6abd45;stroke-width:1px;stroke-linejoin:round;stroke-miterlimit:2;"/><text x="830.164px" y="74.837px" style="font-family:'ArialMT', 'Arial', sans-serif;font-size:36.936px;fill:#ee2a2c;stroke:#ee2a2c;stroke-width:0.89px;">8</text><text x="185.669px" y="240.57px" style="font-family:'ArialMT', 'Arial', sans-serif;font-size:36.936px;fill:#ee2a2c;stroke:#ee2a2c;stroke-width:0.89px;">2</text><text x="524.669px" y="465.701px" style="font-family:'ArialMT', 'Arial', sans-serif;font-size:36.936px;fill:#6abd45;stroke:#6abd45;stroke-width:0.89px;">4</text><text x="635.586px" y="465.219px" style="font-family:'ArialMT', 'Arial', sans-serif;font-size:36.936px;fill:#6abd45;stroke:#6abd45;stroke-width:0.89px;">6</text><text x="828.123px" y="128.49px" style="font-family:'ArialMT', 'Arial', sans-serif;font-size:36.936px;fill:#ff2020;stroke:#ff2020;stroke-width:0.89px;">7</text><text x="186.395px" y="300.926px" style="font-family:'ArialMT', 'Arial', sans-serif;font-size:36.936px;fill:#0f0;stroke:#6abd45;stroke-width:0.89px;">3</text><path d="M918.741,314.18l-185.027,-0c-34.023,-0 -61.768,27.746 -61.768,61.768l0,191.291m-594.595,-253.059l185.029,-0c34.021,-0 61.767,27.746 61.767,61.768l0,190.409" style="fill:none;fill-rule:nonzero;stroke:#1b1b1b;stroke-width:0.89px;"/><path d="M497.498,313.884l0,162.413" style="fill:none;fill-rule:nonzero;stroke:#1b1b1b;stroke-width:2.96px;"/><path d="M497.498,506.575l0,53.682" style="fill:none;fill-rule:nonzero;stroke:#1b1b1b;stroke-width:2.96px;stroke-dasharray:29.55,29.55;"/><text x="21.115px" y="154.339px" style="font-family:'ArialMT', 'Arial', sans-serif;font-size:49.253px;fill:#1c1a19;">A</text><g transform="matrix(49.2532,0,0,49.2532,203.79,43.7646)"></g><text x="23.059px" y="43.765px" style="font-family:'ArialMT', 'Arial', sans-serif;font-size:49.253px;fill:#1c1a19;">Phase 2</text><text x="481.743px" y="595.193px" style="font-family:'ArialMT', 'Arial', sans-serif;font-size:49.253px;fill:#262322;">B</text><text x="939.399px" y="157.753px" style="font-family:'ArialMT', 'Arial', sans-serif;font-size:49.253px;fill:#1c1a19;">C</text></g></svg>