<?xml version="1.0" encoding="UTF-8" standalone="no"?><!DOCTYPE svg PUBLIC "-//W3C//DTD SVG 1.1//EN" "http://www.w3.org/Graphics/SVG/1.1/DTD/svg11.dtd"><svg width="100%" height="100%" viewBox="0 0 1000 600" version="1.1" xmlns="http://www.w3.org/2000/svg" xmlns:xlink="http://www.w3.org/1999/xlink" xml:space="preserve" xmlns:serif="http://www.serif.com/" style="fill-rule:evenodd;clip-rule:evenodd;stroke-miterlimit:2.613;"><g><path d="M76.502,141.815l843.656,-0" style="fill:none;fill-rule:nonzero;stroke:#1b1b1b;stroke-width:5.9px;stroke-dasharray:58.97,58.97;"/><path d="M698.328,133.231l26.725,-9.161l-18.019,-17.719l-8.706,26.88" style="fill:#6abd45;stroke:#6abd45;stroke-width:1px;stroke-linejoin:round;stroke-miterlimit:2;"/><path d="M813.458,63.443l-91.769,0" style="fill:none;fill-rule:nonzero;stroke:#6abd45;stroke-width:0.88px;"/><path d="M810.084,117.319l-91.77,0" style="fill:none;fill-rule:nonzero;stroke:#6abd45;stroke-width:0.88px;"/><path d="M697.739,63.443l25.271,12.63l-0,-25.267l-25.271,12.637" style="fill:#6abd45;stroke:#6abd45;stroke-width:1px;stroke-linejoin:round;stroke-miterlimit:2;"/><path d="M318.52,307.636l-8.709,-26.876l-18.018,17.719l26.727,9.157" style="fill:#ee2a2c;stroke:#ee2a2c;stroke-width:1px;stroke-linejoin:round;stroke-miterlimit:2;"/><path d="M214.366,230.562l91.766,0" style="fill:none;fill-rule:nonzero;stroke:#ee2a2c;stroke-width:0.88px;"/><path d="M212.482,287.852l91.766,0" style="fill:none;fill-rule:nonzero;stroke:#ee2a2c;stroke-width:0.88px;"/><path d="M330.079,230.562l-25.27,-12.633l0,25.271l25.27,-12.638" style="fill:#ee2a2c;stroke:#ee2a2c;stroke-width:1px;stroke-linejoin:round;stroke-miterlimit:2;"/><path d="M648.48,352.62l-26.876,8.714l17.719,18.018l9.157,-26.732" style="fill:#6abd45;stroke:#6abd45;stroke-width:1px;stroke-linejoin:round;stroke-miterlimit:2;"/><path d="M568.801,467.46l-0,-80.537l-33.457,-17.882" style="fill:none;fill-rule:nonzero;stroke:#ee2a2c;stroke-width:0.75px;"/><path d="M604.042,468.41l-0,-80.537l26.875,-17.881" style="fill:none;fill-rule:nonzero;stroke:#6abd45;stroke-width:0.71px;"/><path d="M520.309,351.877l9.161,26.723l17.719,-18.018l-26.88,-8.705" style="fill:#ee2a2c;stroke:#ee2a2c;stroke-width:1px;stroke-linejoin:round;stroke-miterlimit:2;"/><text x="827.823px" y="77.14px" style="font-family:'ArialMT', 'Arial', sans-serif;font-size:36.851px;fill:#6abd45;stroke:#6abd45;stroke-width:0.88px;">8</text><text x="184.806px" y="242.493px" style="font-family:'ArialMT', 'Arial', sans-serif;font-size:36.851px;fill:#ee2a2c;stroke:#ee2a2c;stroke-width:0.88px;">2</text><text x="523.029px" y="467.108px" style="font-family:'ArialMT', 'Arial', sans-serif;font-size:36.851px;fill:#ff2020;stroke:#ff2020;stroke-width:0.88px;">4</text><text x="633.692px" y="466.627px" style="font-family:'ArialMT', 'Arial', sans-serif;font-size:36.851px;fill:#6abd45;stroke:#6abd45;stroke-width:0.88px;">6</text><text x="825.787px" y="130.67px" style="font-family:'ArialMT', 'Arial', sans-serif;font-size:36.851px;fill:#6abd45;stroke:#6abd45;stroke-width:0.88px;">7</text><text x="185.53px" y="302.711px" style="font-family:'ArialMT', 'Arial', sans-serif;font-size:36.851px;fill:#ee2a2c;stroke:#ee2a2c;stroke-width:0.88px;">3</text><path d="M916.198,315.934l-184.604,0c-33.944,0 -61.626,27.683 -61.626,61.626l0,190.854m-593.232,-252.48l184.604,0c33.944,0 61.627,27.683 61.627,61.626l-0,189.973" style="fill:none;fill-rule:nonzero;stroke:#1b1b1b;stroke-width:0.88px;"/><path d="M495.92,315.64l-0,162.04" style="fill:none;fill-rule:nonzero;stroke:#1b1b1b;stroke-width:2.95px;"/><path d="M495.92,507.889l-0,53.559" style="fill:none;fill-rule:nonzero;stroke:#1b1b1b;stroke-width:2.95px;stroke-dasharray:29.48,29.48;"/><text x="20.629px" y="156.46px" style="font-family:'ArialMT', 'Arial', sans-serif;font-size:49.14px;fill:#1c1a19;">A</text><g transform="matrix(49.1403,0,0,49.1403,202.885,46.1387)"></g><text x="22.568px" y="46.139px" style="font-family:'ArialMT', 'Arial', sans-serif;font-size:49.14px;fill:#1c1a19;">Phase 3</text><text x="480.201px" y="596.304px" style="font-family:'ArialMT', 'Arial', sans-serif;font-size:49.14px;fill:#262322;">B</text><text x="936.809px" y="159.866px" style="font-family:'ArialMT', 'Arial', sans-serif;font-size:49.14px;fill:#1c1a19;">C</text></g></svg>