<?xml version="1.0" encoding="UTF-8" standalone="no"?><!DOCTYPE svg PUBLIC "-//W3C//DTD SVG 1.1//EN" "http://www.w3.org/Graphics/SVG/1.1/DTD/svg11.dtd"><svg width="100%" height="100%" viewBox="0 0 4167 2500" version="1.1" xmlns="http://www.w3.org/2000/svg" xmlns:xlink="http://www.w3.org/1999/xlink" xml:space="preserve" xmlns:serif="http://www.serif.com/" style="fill-rule:evenodd;clip-rule:evenodd;stroke-miterlimit:2.613;"><g><path d="M376.788,647.425l3416.77,0" style="fill:none;fill-rule:nonzero;stroke:#1b1b1b;stroke-width:23.88px;stroke-dasharray:238.83,238.83;"/><path d="M2895.16,612.663l108.234,-37.101l-72.975,-71.762l-35.259,108.863" style="fill:#ff2020;"/><path d="M3361.43,330.025l-371.662,0" style="fill:none;fill-rule:nonzero;stroke:#6abd45;stroke-width:3.58px;"/><path d="M3347.76,548.221l-371.663,-0" style="fill:none;fill-rule:nonzero;stroke:#ff2020;stroke-width:3.58px;"/><path d="M2892.77,330.025l102.35,51.15l-0,-102.329l-102.35,51.179" style="fill:#6abd45;stroke:#6abd45;stroke-width:4.17px;stroke-linejoin:round;stroke-miterlimit:2;"/><path d="M1356.95,1319l-35.275,-108.846l-72.971,71.763l108.246,37.083" style="fill:#6abd45;stroke:#6abd45;stroke-width:4.17px;stroke-linejoin:round;stroke-miterlimit:2;"/><path d="M935.129,1006.85l371.65,0" style="fill:none;fill-rule:nonzero;stroke:#6abd45;stroke-width:3.58px;"/><path d="M927.5,1238.87l371.646,-0" style="fill:none;fill-rule:nonzero;stroke:#6abd45;stroke-width:3.58px;"/><path d="M1403.76,1006.85l-102.342,-51.162l-0,102.345l102.342,-51.183" style="fill:#6abd45;stroke:#6abd45;stroke-width:4.17px;stroke-linejoin:round;stroke-miterlimit:2;"/><path d="M2693.27,1501.18l-108.846,35.288l71.762,72.975l37.084,-108.263" style="fill:#ff2020;"/><path d="M2370.58,1966.28l0,-326.171l-135.496,-72.421" style="fill:none;fill-rule:nonzero;stroke:#ff2020;stroke-width:3px;"/><path d="M2513.3,1970.12l0,-326.171l108.846,-72.421" style="fill:none;fill-rule:nonzero;stroke:#ff2020;stroke-width:2.88px;"/><path d="M2174.19,1498.17l37.099,108.229l71.763,-72.975l-108.863,-35.254" style="fill:#ff2020;"/><text x="3419.6px" y="385.5px" style="font-family:'ArialMT', 'Arial', sans-serif;font-size:149.246px;fill:#6abd45;stroke:#6abd45;stroke-width:3.58px;">8</text><text x="815.413px" y="1055.17px" style="font-family:'ArialMT', 'Arial', sans-serif;font-size:149.246px;fill:#6abd45;stroke:#6abd45;stroke-width:3.58px;">2</text><text x="2185.2px" y="1964.85px" style="font-family:'ArialMT', 'Arial', sans-serif;font-size:149.246px;fill:#ff2020;stroke:#ff2020;stroke-width:3.58px;">4</text><text x="2633.38px" y="1962.9px" style="font-family:'ArialMT', 'Arial', sans-serif;font-size:149.246px;fill:#ff2020;stroke:#ff2020;stroke-width:3.58px;">6</text><text x="3411.36px" y="602.292px" style="font-family:'ArialMT', 'Arial', sans-serif;font-size:149.246px;fill:#ff2020;stroke:#ff2020;stroke-width:3.58px;">7</text><text x="818.346px" y="1299.05px" style="font-family:'ArialMT', 'Arial', sans-serif;font-size:149.246px;fill:#6abd45;stroke:#6abd45;stroke-width:3.58px;">3</text><path d="M3777.52,1352.6l-747.638,0c-137.475,0 -249.583,112.113 -249.583,249.583l0,772.946m-2402.57,-1022.53l747.642,0c137.467,0 249.583,112.113 249.583,249.583l0,769.384" style="fill:none;fill-rule:nonzero;stroke:#1b1b1b;stroke-width:3.58px;"/><path d="M2075.41,1351.41l0,656.259" style="fill:none;fill-rule:nonzero;stroke:#1b1b1b;stroke-width:11.96px;"/><path d="M2075.41,2130.01l0,216.912" style="fill:none;fill-rule:nonzero;stroke:#1b1b1b;stroke-width:11.96px;stroke-dasharray:119.42,119.42;"/><text x="150.504px" y="706.737px" style="font-family:'ArialMT', 'Arial', sans-serif;font-size:199.017px;fill:#1c1a19;">A</text><text x="2011.75px" y="2488.09px" style="font-family:'ArialMT', 'Arial', sans-serif;font-size:199.017px;fill:#1c1a19;">B</text><text x="3860.99px" y="720.533px" style="font-family:'ArialMT', 'Arial', sans-serif;font-size:199.017px;fill:#1c1a19;">C</text><text x="134.267px" y="179.475px" style="font-family:'ArialMT', 'Arial', sans-serif;font-size:199.017px;fill:#1c1a19;">Phase 1</text></g></svg>