<?xml version="1.0" encoding="UTF-8" standalone="no"?><!DOCTYPE svg PUBLIC "-//W3C//DTD SVG 1.1//EN" "http://www.w3.org/Graphics/SVG/1.1/DTD/svg11.dtd"><svg width="100%" height="100%" viewBox="0 0 17363 13892" version="1.1" xmlns="http://www.w3.org/2000/svg" xmlns:xlink="http://www.w3.org/1999/xlink" xml:space="preserve" xmlns:serif="http://www.serif.com/" style="fill-rule:evenodd;clip-rule:evenodd;stroke-miterlimit:2.613;"><g><path d="M1328.87,2537.83l14892,0" style="fill:none;fill-rule:nonzero;stroke:#1b1b1b;stroke-width:15.63px;"/><path d="M1325.03,5492.92l14903,-0" style="fill:none;fill-rule:nonzero;stroke:#1b1b1b;stroke-width:104.17px;stroke-dasharray:1041.67,1041.67;"/><path d="M14343.2,4099.22l-1421.44,-0l-315.609,940.416" style="fill:none;fill-rule:nonzero;stroke:#ff2020;stroke-width:15.63px;"/><path d="M12309.5,5341.29l472.084,-161.825l-318.296,-313.005l-153.788,474.83" style="fill:#ff2020;"/><path d="M14343.2,4108.51l-1621.09,0" style="fill:none;fill-rule:nonzero;stroke:#ff2020;stroke-width:15.63px;"/><path d="M12299,4108.51l446.408,223.092l0,-446.337l-446.408,223.245" style="fill:#ff2020;"/><path d="M3760.36,7064.33l1421.44,0l315.609,939.775" style="fill:none;fill-rule:nonzero;stroke:#ff2020;stroke-width:15.63px;"/><path d="M5794,8305.75l-153.854,-474.758l-318.283,313.004l472.137,161.754" style="fill:#ff2020;"/><path d="M3760.36,7060.62l1621.02,0" style="fill:none;fill-rule:nonzero;stroke:#ff2020;stroke-width:15.63px;"/><path d="M5804.42,7060.62l-446.392,-223.158l0,446.404l446.392,-223.246" style="fill:#ff2020;"/><path d="M10385.8,11237.3l0,-1421.44l955.242,-315.609" style="fill:none;fill-rule:nonzero;stroke:#ff2020;stroke-width:15.63px;"/><path d="M11642.8,9203.62l-474.758,153.925l313.004,318.296l161.754,-472.221" style="fill:#ff2020;"/><path d="M10381.3,11237.3l-0,-1421.44l-914.829,-315.609" style="fill:none;fill-rule:nonzero;stroke:#ff2020;stroke-width:15.63px;"/><path d="M9164.79,9203.62l161.821,472.067l313.004,-318.284l-474.825,-153.783" style="fill:#ff2020;"/><text x="14597px" y="4350.46px" style="font-family:'ArialMT', 'Arial', sans-serif;font-size:650.971px;fill:#ff2020;stroke:#ff2020;stroke-width:15.63px;">8</text><text x="3238.19px" y="7271.38px" style="font-family:'ArialMT', 'Arial', sans-serif;font-size:650.971px;fill:#ff2020;stroke:#ff2020;stroke-width:15.63px;">2</text><text x="9212.83px" y="11239.2px" style="font-family:'ArialMT', 'Arial', sans-serif;font-size:650.971px;fill:#ff2020;stroke:#ff2020;stroke-width:15.63px;">4</text><text x="11167.7px" y="11230.7px" style="font-family:'ArialMT', 'Arial', sans-serif;font-size:650.971px;fill:#ff2020;stroke:#ff2020;stroke-width:15.63px;">6</text><text x="14017.6px" y="5356.33px" style="font-family:'ArialMT', 'Arial', sans-serif;font-size:650.971px;fill:#ff2020;stroke:#ff2020;stroke-width:15.63px;">7</text><text x="3734.93px" y="8330.62px" style="font-family:'ArialMT', 'Arial', sans-serif;font-size:650.971px;fill:#ff2020;stroke:#ff2020;stroke-width:15.63px;">3</text><path d="M16158.1,8568.71l-3260.99,0c-599.621,0 -1088.61,489.009 -1088.61,1088.61l0,3371.39m-10479.3,-4460l3261.01,0c599.6,0 1088.61,489.009 1088.61,1088.61l-0,3355.83" style="fill:none;fill-rule:nonzero;stroke:#1b1b1b;stroke-width:15.63px;"/><path d="M8733.96,8563.5l0,2862.41" style="fill:none;fill-rule:nonzero;stroke:#1b1b1b;stroke-width:52.08px;"/><path d="M8733.96,11959.5l0,946.112" style="fill:none;fill-rule:nonzero;stroke:#1b1b1b;stroke-width:52.08px;stroke-dasharray:520.83,520.83;"/><path d="M8643.92,8563.5l-3759.78,-1.304" style="fill:none;fill-rule:nonzero;stroke:#1b1b1b;stroke-width:104.17px;stroke-dasharray:104.17,104.17,104.17,0;"/><path d="M8906.21,8568.5l557.725,0l-274.166,406.475l-283.559,-406.475Z" style="fill:#1b1b1b;stroke:#1b1b1b;stroke-width:15.63px;"/><path d="M9767.58,8568.5l557.729,0l-274.1,406.475l-283.629,-406.475Z" style="fill:#1b1b1b;stroke:#1b1b1b;stroke-width:15.63px;"/><path d="M10629,8568.5l557.729,0l-274.15,406.475l-283.579,-406.475Z" style="fill:#1b1b1b;stroke:#1b1b1b;stroke-width:15.63px;"/><path d="M11490.5,8568.5l557.725,0l-274.166,406.475l-283.559,-406.475" style="fill:#1b1b1b;"/><g id="g12"><path id="path14" d="M13255.1,11858.7l796.474,-1379.18c27.537,-47.79 -6.9,-107.416 -62.006,-107.48l-1592.67,-0.07c-55.108,-0.049 -89.554,59.569 -61.974,107.315l796.123,1379.4c27.581,47.744 96.458,47.751 124.054,0.013" style="fill:#ee2c30;fill-rule:nonzero;"/><path id="path16" d="M13193.1,11679.8l672.508,-1164.55l-1344.73,-0.095l672.218,1164.64" style="fill:#fff;fill-rule:nonzero;"/></g><path d="M13195.7,11870.4l0,709.775m-118.925,17.083l237.917,0" style="fill:none;fill-rule:nonzero;stroke:#000;stroke-width:95.67px;stroke-miterlimit:4;"/><g id="g121" serif:id="g12"><path id="path141" serif:id="path14" d="M14112.3,414.782l-910.858,903.763l903.759,910.931l910.861,-903.832l-903.762,-910.862" style="fill:#231f20;fill-rule:nonzero;"/><path id="path161" serif:id="path16" d="M14111.9,505.529l-819.824,813.442l813.434,819.823l819.838,-813.434l-813.448,-819.831" style="fill:#fff;fill-rule:nonzero;"/><path id="path18" d="M14110.8,777.734l-546.554,542.302l542.295,546.483l546.561,-542.224l-542.302,-546.561" style="fill:#231f20;fill-rule:nonzero;"/><path id="path20" d="M14110.7,821.29l-502.834,498.916l498.916,502.835l502.849,-498.916l-498.931,-502.835" style="fill:#fcd213;fill-rule:nonzero;"/></g><path d="M14948.2,1326.6l709.917,0m17.083,118.992l0,-237.917" style="fill:none;fill-rule:nonzero;stroke:#000;stroke-width:95.67px;stroke-miterlimit:4;"/><g id="g122" serif:id="g12"><path id="path142" serif:id="path14" d="M3298.06,8968.97l-910.858,903.763l903.759,910.93l910.861,-903.832l-903.762,-910.861" style="fill:#231f20;fill-rule:nonzero;"/><path id="path162" serif:id="path16" d="M3297.7,9059.71l-819.824,813.442l813.434,819.824l819.838,-813.435l-813.448,-819.831" style="fill:#fff;fill-rule:nonzero;"/><path id="path181" serif:id="path18" d="M3296.64,9331.92l-546.554,542.302l542.294,546.483l546.561,-542.224l-542.301,-546.561" style="fill:#231f20;fill-rule:nonzero;"/><path id="path201" serif:id="path20" d="M3296.47,9375.47l-502.834,498.916l498.915,502.835l502.85,-498.916l-498.931,-502.835" style="fill:#fcd213;fill-rule:nonzero;"/></g><path d="M2449.6,9882.71l-709.933,0m-17.067,-118.991l0,237.916" style="fill:none;fill-rule:nonzero;stroke:#000;stroke-width:95.67px;stroke-miterlimit:4;"/><text x="338.038px" y="5751.62px" style="font-family:'ArialMT', 'Arial', sans-serif;font-size:868.054px;fill:#f00;">A</text><text x="8456.29px" y="13521.4px" style="font-family:'ArialMT', 'Arial', sans-serif;font-size:868.054px;fill:#f00;">B</text><text x="16522.2px" y="5811.79px" style="font-family:'ArialMT', 'Arial', sans-serif;font-size:868.054px;fill:#f00;">C</text></g></svg>