<?xml version="1.0" encoding="UTF-8" standalone="no"?><!DOCTYPE svg PUBLIC "-//W3C//DTD SVG 1.1//EN" "http://www.w3.org/Graphics/SVG/1.1/DTD/svg11.dtd"><svg width="100%" height="100%" viewBox="0 0 4167 3334" version="1.1" xmlns="http://www.w3.org/2000/svg" xmlns:xlink="http://www.w3.org/1999/xlink" xml:space="preserve" xmlns:serif="http://www.serif.com/" style="fill-rule:evenodd;clip-rule:evenodd;stroke-miterlimit:2.613;"><g><g><path d="M318.929,609.079l3574.08,0" style="fill:none;fill-rule:nonzero;stroke:#1b1b1b;stroke-width:3.75px;"/><path d="M318.008,1318.3l3576.72,0" style="fill:none;fill-rule:nonzero;stroke:#1b1b1b;stroke-width:25px;stroke-dasharray:250,250;"/><path d="M3442.37,983.813l-341.146,-0l-75.746,225.7" style="fill:none;fill-rule:nonzero;stroke:#ff2020;stroke-width:3.75px;"/><path d="M2954.27,1281.91l113.3,-38.838l-76.391,-75.121l-36.909,113.959" style="fill:#ff2020;"/><path d="M3442.37,986.042l-389.062,-0" style="fill:none;fill-rule:nonzero;stroke:#ff2020;stroke-width:3.75px;"/><path d="M2951.77,986.042l107.138,53.542l-0,-107.121l-107.138,53.579" style="fill:#ff2020;"/><path d="M902.487,1695.44l341.146,-0l75.746,225.546" style="fill:none;fill-rule:nonzero;stroke:#ff2020;stroke-width:3.75px;"/><path d="M1390.56,1993.38l-36.925,-113.942l-76.388,75.121l113.313,38.821" style="fill:#ff2020;"/><path d="M902.487,1694.55l389.046,0" style="fill:none;fill-rule:nonzero;stroke:#ff2020;stroke-width:3.75px;"/><path d="M1393.06,1694.55l-107.134,-53.558l0,107.137l107.134,-53.579" style="fill:#ff2020;"/><path d="M2492.6,2696.96l-0,-341.146l229.258,-75.746" style="fill:none;fill-rule:nonzero;stroke:#ff2020;stroke-width:3.75px;"/><path d="M2794.26,2208.87l-113.942,36.942l75.121,76.391l38.821,-113.333" style="fill:#ff2020;"/><path d="M2491.51,2696.96l-0,-341.146l-219.559,-75.746" style="fill:none;fill-rule:nonzero;stroke:#ff2020;stroke-width:3.75px;"/><path d="M2199.55,2208.87l38.837,113.296l75.121,-76.388l-113.958,-36.908" style="fill:#ff2020;"/><text x="3503.27px" y="1044.11px" style="font-family:'ArialMT', 'Arial', sans-serif;font-size:156.233px;fill:#ff2020;stroke:#ff2020;stroke-width:3.75px;">8</text><text x="777.166px" y="1745.13px" style="font-family:'ArialMT', 'Arial', sans-serif;font-size:156.233px;fill:#ff2020;stroke:#ff2020;stroke-width:3.75px;">2</text><text x="2211.08px" y="2697.4px" style="font-family:'ArialMT', 'Arial', sans-serif;font-size:156.233px;fill:#ff2020;stroke:#ff2020;stroke-width:3.75px;">4</text><text x="2680.24px" y="2695.36px" style="font-family:'ArialMT', 'Arial', sans-serif;font-size:156.233px;fill:#ff2020;stroke:#ff2020;stroke-width:3.75px;">6</text><text x="3364.23px" y="1285.52px" style="font-family:'ArialMT', 'Arial', sans-serif;font-size:156.233px;fill:#ff2020;stroke:#ff2020;stroke-width:3.75px;">7</text><text x="896.383px" y="1999.35px" style="font-family:'ArialMT', 'Arial', sans-serif;font-size:156.233px;fill:#ff2020;stroke:#ff2020;stroke-width:3.75px;">3</text><path d="M3877.94,2056.49l-782.637,-0c-143.909,-0 -261.267,117.362 -261.267,261.267l-0,809.133m-2515.04,-1070.4l782.642,-0c143.904,-0 261.267,117.362 261.267,261.267l-0,805.4" style="fill:none;fill-rule:nonzero;stroke:#1b1b1b;stroke-width:3.75px;"/><path d="M2096.15,2055.24l0,686.979" style="fill:none;fill-rule:nonzero;stroke:#1b1b1b;stroke-width:12.5px;"/><path d="M2096.15,2870.29l0,227.067" style="fill:none;fill-rule:nonzero;stroke:#1b1b1b;stroke-width:12.5px;stroke-dasharray:125,125;"/><path d="M2074.54,2055.24l-902.346,-0.313" style="fill:none;fill-rule:nonzero;stroke:#1b1b1b;stroke-width:25px;stroke-dasharray:25,25,25,0;"/><path d="M2137.49,2056.44l133.854,-0l-65.8,97.554l-68.054,-97.554Z" style="fill:#1b1b1b;stroke:#1b1b1b;stroke-width:3.75px;"/><path d="M2344.22,2056.44l133.855,-0l-65.784,97.554l-68.071,-97.554Z" style="fill:#1b1b1b;stroke:#1b1b1b;stroke-width:3.75px;"/><path d="M2550.97,2056.44l133.855,-0l-65.796,97.554l-68.059,-97.554Z" style="fill:#1b1b1b;stroke:#1b1b1b;stroke-width:3.75px;"/><path d="M2757.71,2056.44l133.854,-0l-65.8,97.554l-68.054,-97.554" style="fill:#1b1b1b;"/><rect x="2915.14" y="2456.93" width="503.471" height="612.675" style="fill:#fff;"/><path d="M2988.74,2519.81l178.8,307.045l179.029,-306.979c0,0 -356.179,-0.066 -357.829,-0.066" style="fill:#fff;"/><path d="M2954.43,2515.87l197.879,342.675c3.246,5.362 8.837,8.75 15.225,8.75c6.496,-0 12.137,-3.388 15.246,-8.475l197.621,-342.533c3.091,-5.175 3.229,-12.605 0.137,-17.5c-3.246,-5.159 -8.608,-9.03 -15.296,-9.03l-395.258,0c-6.825,0 -11.979,3.871 -15.158,8.475c-2.967,4.896 -3.505,12.271 -0.396,17.638Zm46.229,9.304l166.875,288.788l167.033,-288.788l-333.908,0"/><path d="M3166.97,2848.9l0,170.346m-28.542,4.1l57.1,0" style="fill:none;fill-rule:nonzero;stroke:#000;stroke-width:22.96px;stroke-miterlimit:4;"/><rect x="3160.99" y="66.684" width="612.846" height="503.471" style="fill:#fff;"/><path d="M3182.33,317.879l200.558,-200.554l200.571,200.554l-200.571,200.575" style="fill:#fff;"/><path d="M3188.39,317.879l194.496,-194.495l194.633,194.495l-194.633,194.496l-194.496,-194.496Zm-21.562,0l216.058,-216.266l216.283,216.266l-216.283,216.217l-216.058,-216.217"/><path d="M3258.14,317.879l124.896,-124.895l124.742,124.895l-124.742,124.88" style="fill:#9a9a9a;"/><path d="M3262.92,318.438l119.304,-119.292l119.167,119.292l-119.167,119.304l-119.304,-119.304Zm-10.675,-0.296l129.842,-129.704l129.721,129.704l-129.721,129.721l-129.842,-129.721"/><path d="M3587.57,318.384l170.38,-0m4.1,28.558l-0,-57.1" style="fill:none;fill-rule:nonzero;stroke:#000;stroke-width:22.96px;stroke-miterlimit:4;"/><rect x="401.62" y="2120.08" width="612.846" height="503.471" style="fill:#fff;"/><path d="M993.145,2372.36l-200.554,200.558l-200.575,-200.558l200.575,-200.571" style="fill:#fff;"/><path d="M987.087,2372.36l-194.496,194.495l-194.654,-194.495l194.654,-194.496l194.496,194.496Zm21.562,-0l-216.058,216.266l-216.283,-216.266l216.283,-216.196l216.058,216.196"/><path d="M917.329,2372.36l-124.896,124.895l-124.738,-124.895l124.738,-124.88" style="fill:#9a9a9a;"/><path d="M912.558,2371.8l-119.309,119.288l-119.166,-119.288l119.166,-119.304l119.309,119.304Zm10.675,0.296l-129.842,129.704l-129.725,-129.704l129.725,-129.725l129.842,129.725"/><path d="M587.904,2371.85l-170.384,0m-4.096,-28.558l0,57.1" style="fill:none;fill-rule:nonzero;stroke:#000;stroke-width:22.96px;stroke-miterlimit:4;"/><text x="81.129px" y="1380.39px" style="font-family:'ArialMT', 'Arial', sans-serif;font-size:208.333px;fill:#f00;">A</text><text x="2029.51px" y="3245.13px" style="font-family:'ArialMT', 'Arial', sans-serif;font-size:208.333px;fill:#f00;">B</text><text x="3965.32px" y="1394.83px" style="font-family:'ArialMT', 'Arial', sans-serif;font-size:208.333px;fill:#f00;">C</text></g></g></svg>