<?xml version="1.0" encoding="UTF-8" standalone="no"?><!DOCTYPE svg PUBLIC "-//W3C//DTD SVG 1.1//EN" "http://www.w3.org/Graphics/SVG/1.1/DTD/svg11.dtd"><svg width="100%" height="100%" viewBox="0 0 275000 216667" version="1.1" xmlns="http://www.w3.org/2000/svg" xmlns:xlink="http://www.w3.org/1999/xlink" xml:space="preserve" xmlns:serif="http://www.serif.com/" style="fill-rule:evenodd;clip-rule:evenodd;"><g><g><text x="122069px" y="213268px" style="font-family:'Helvetica';font-size:11302.8px;fill:#ff1f20;">Arm 2</text><text x="243382px" y="81524.7px" style="font-family:'Helvetica';font-size:11302.8px;fill:#ff1f20;">Arm 3</text><path d="M147979,150766c-1570.96,-0 -2845.62,1274.67 -2845.62,2847.15c0,1572.12 1274.67,2846.79 2845.62,2846.79c1572.41,0 2847.08,-1274.67 2847.08,-2846.79c-0,-1572.48 -1274.67,-2847.15 -2847.08,-2847.15" style="fill:#231f20;fill-rule:nonzero;"/><path d="M140110,125078c-1571.18,-0 -2847.07,1273.44 -2847.07,2845.57c-0,1571.25 1275.89,2847.14 2847.07,2847.14c1572.48,0 2847.15,-1275.89 2847.15,-2847.14c-0,-1572.13 -1274.67,-2845.57 -2847.15,-2845.57" style="fill:#231f20;fill-rule:nonzero;"/><path d="M80916.9,72540.1c-1572.41,-0 -2847.08,1271.04 -2847.08,2844.69c-0,1573.65 1274.6,2847.08 2847.08,2847.08c1571.25,0 2843.16,-1273.44 2843.16,-2847.08c-0,-1573.63 -1271.91,-2844.69 -2843.16,-2844.69" style="fill:#231f20;fill-rule:nonzero;"/><path d="M60025.7,87135.1c-1572.48,-0 -2845.92,1273.44 -2845.92,2847.07c0,1569.74 1273.44,2847.08 2845.92,2847.08c1572.12,-0 2845.55,-1277.34 2845.55,-2847.08c0,-1573.63 -1273.44,-2847.07 -2845.55,-2847.07" style="fill:#231f20;fill-rule:nonzero;"/><path d="M190774,72540.1c-1571.18,-0 -2844.69,1273.44 -2844.69,2848.31c0,1568.49 1273.51,2844.4 2844.69,2844.4c1572.19,-0 2849.53,-1275.9 2849.53,-2844.4c-0,-1574.88 -1277.34,-2848.31 -2849.53,-2848.31" style="fill:#231f20;fill-rule:nonzero;"/><path d="M216647,63510.5c-1573.35,0 -2846.86,1274.67 -2846.86,2848.32c-0,1569.72 1273.51,2845.62 2846.86,2845.62c1570.02,-0 2843.45,-1275.9 2843.45,-2845.62c0,-1573.65 -1273.44,-2848.32 -2843.45,-2848.32" style="fill:#231f20;fill-rule:nonzero;"/><path d="M59480.2,114797l162.241,-22746.2" style="fill:none;fill-rule:nonzero;stroke:#231f20;stroke-width:397.21px;"/><path d="M97753.2,75549.3l-14611.2,-423.316" style="fill:none;fill-rule:nonzero;stroke:#231f20;stroke-width:433.33px;"/><path d="M140247,112435l-350.033,14749.3" style="fill:none;fill-rule:nonzero;stroke:#231f20;stroke-width:434.71px;"/><path d="M170722,162615l-20896.2,-8825.83" style="fill:none;fill-rule:nonzero;stroke:#231f20;stroke-width:376.92px;"/><path d="M171309,75482.2l17920,0.433" style="fill:none;fill-rule:nonzero;stroke:#231f20;stroke-width:376.92px;"/><path d="M217111,64642.2l2609.52,-18531.6" style="fill:none;fill-rule:nonzero;stroke:#231f20;stroke-width:376.92px;"/><path d="M30161.5,98114.7l11446,-0l-5721.67,4173.33l-5724.38,-4173.33Z" style="fill:#231f20;fill-rule:nonzero;stroke:#231f20;stroke-width:376.92px;stroke-linecap:round;stroke-linejoin:round;"/><path d="M41607.8,59730.5l-11446.1,0l5720.5,-4175.71l5725.5,4175.71l0.071,0Z" style="fill:#231f20;fill-rule:nonzero;stroke:#231f20;stroke-width:376.92px;stroke-linecap:round;stroke-linejoin:round;"/><path d="M250796,58179.7l-11446,0.087l5720.42,-4175.79l5725.54,4175.79l-0,-0.087Z" style="fill:#231f20;fill-rule:nonzero;stroke:#231f20;stroke-width:376.92px;stroke-linecap:round;stroke-linejoin:round;"/><path d="M35884.8,98114.7l-0.017,-39392.9" style="fill:none;fill-rule:nonzero;stroke:#231f20;stroke-width:376.92px;"/><path d="M239354,97880.9l11446,0.067l-5721.67,4173.25l-5724.33,-4173.25l-0,-0.067l0.042,-0Z" style="fill:#231f20;fill-rule:nonzero;stroke:#231f20;stroke-width:376.92px;stroke-linecap:round;stroke-linejoin:round;"/><path d="M245076,97880.9l-0,-39392.9" style="fill:none;fill-rule:nonzero;stroke:#231f20;stroke-width:376.92px;"/><path d="M160874,184841l0,-11446l4173.33,5724.33l-4173.33,5721.62Z" style="fill:#231f20;fill-rule:nonzero;stroke:#231f20;stroke-width:376.92px;stroke-linecap:round;stroke-linejoin:round;"/><path d="M119925,173158l-0,11446l-4174.5,-5720.42l4174.5,-5725.54l-0,-0.016Z" style="fill:#231f20;fill-rule:nonzero;stroke:#231f20;stroke-width:376.92px;stroke-linecap:round;stroke-linejoin:round;"/><path d="M160537,178883l-43429.2,-0" style="fill:none;fill-rule:nonzero;stroke:#231f20;stroke-width:376.92px;stroke-linecap:round;stroke-linejoin:round;"/><g><text x="210551px" y="38211.8px" style="font-family:'Helvetica';font-size:11302.8px;fill:#231f20;">Q</text><g><text x="219966px" y="39468.4px" style="font-family:'Helvetica';font-size:7911.96px;fill:#231f20;">E</text><text x="225679px" y="39468.4px" style="font-family:'Helvetica';font-size:7911.96px;fill:#231f20;">3</text></g></g><g><text x="98123.2px" y="78922.6px" style="font-family:'Helvetica';font-size:11302.8px;fill:#231f20;">Q</text><g><text x="107799px" y="80178.9px" style="font-family:'Helvetica';font-size:7911.96px;fill:#231f20;">K</text><text x="113694px" y="80178.9px" style="font-family:'Helvetica';font-size:7911.96px;fill:#231f20;">1</text></g></g><g><text x="130068px" y="105037px" style="font-family:'Helvetica';font-size:11302.8px;fill:#231f20;">Q</text><g><text x="139744px" y="106293px" style="font-family:'Helvetica';font-size:7911.96px;fill:#231f20;">K</text><text x="145640px" y="106293px" style="font-family:'Helvetica';font-size:7911.96px;fill:#231f20;">2</text></g></g><g><g><text x="234574px" y="113806px" style="font-family:'Helvetica';font-size:11302.8px;fill:#231f20;">F</text><text x="241791px" y="113806px" style="font-family:'Helvetica';font-size:11302.8px;fill:#231f20;">G</text></g><text x="250896px" y="115062px" style="font-family:'Helvetica';font-size:7911.96px;fill:#231f20;">3</text></g><g><text x="172181px" y="166441px" style="font-family:'Helvetica';font-size:11302.8px;fill:#231f20;">Q</text><g><text x="181596px" y="167698px" style="font-family:'Helvetica';font-size:7911.96px;fill:#231f20;">E</text><text x="187310px" y="167698px" style="font-family:'Helvetica';font-size:7911.96px;fill:#231f20;">2</text></g></g><g><g><text x="92536.5px" y="181621px" style="font-family:'Helvetica';font-size:11302.8px;fill:#231f20;">F</text><text x="99753.6px" y="181621px" style="font-family:'Helvetica';font-size:11302.8px;fill:#231f20;">G</text></g><text x="108858px" y="182877px" style="font-family:'Helvetica';font-size:7911.96px;fill:#231f20;">2</text></g><g><text x="48106.1px" y="130474px" style="font-family:'Helvetica';font-size:11302.8px;fill:#231f20;">Q</text><g><text x="57521.1px" y="131730px" style="font-family:'Helvetica';font-size:7911.96px;fill:#231f20;">E</text><text x="63234px" y="131730px" style="font-family:'Helvetica';font-size:7911.96px;fill:#231f20;">1</text></g></g><g><g><text x="25985.1px" y="52704.7px" style="font-family:'Helvetica';font-size:11302.8px;fill:#231f20;">F</text><text x="33201.9px" y="52704.7px" style="font-family:'Helvetica';font-size:11302.8px;fill:#231f20;">G</text></g><text x="42306.1px" y="53960.9px" style="font-family:'Helvetica';font-size:7911.96px;fill:#231f20;">1</text></g><text x="922.112px" y="83623.9px" style="font-family:'Helvetica';font-size:11302.8px;fill:#ff1f20;">Arm 1</text><path d="M94033.2,76946.4c0,-23963.5 19455.3,-43418.8 43418.8,-43418.8c23963.5,-0 43418.8,19455.3 43418.8,43418.8c0,23963.5 -19455.3,43418.8 -43418.8,43418.8c-23963.5,-0 -43418.8,-19455.3 -43418.8,-43418.8Z" style="fill:none;stroke:#231f20;stroke-width:376.92px;stroke-linecap:round;stroke-linejoin:round;stroke-miterlimit:1.5;"/><path d="M131663,2423.44c-8464.96,2908.15 1420.17,-4846.25 26021.8,5180.88c23553.5,9599.96 51435.4,34234.1 55741.2,52836.2l38313.2,-0l-0,35210.4l-38588.2,-0l0.125,-0.142c-6900.46,27809.2 -29267,49539.6 -57426.2,55519.2l787.9,39146.9l-35203.3,708.904l-820.746,-40776.4c-25919.6,-6950.17 -46342.5,-27393.2 -53263.3,-53324.2l-44060.4,0l0,-35210.4l43173.8,0c6417.83,-30109.4 34719.4,-54284.6 65324.6,-59291.2l-0.32,-0.137Z" style="fill:none;stroke:#231f20;stroke-width:376.92px;stroke-linecap:round;stroke-linejoin:round;stroke-miterlimit:1.5;"/><g><text x="150133px" y="78895.9px" style="font-family:'Helvetica';font-size:11302.8px;fill:#231f20;">Q</text><g><text x="159807px" y="80151.4px" style="font-family:'Helvetica';font-size:7911.96px;fill:#231f20;">K</text><text x="165703px" y="80151.4px" style="font-family:'Helvetica';font-size:7911.96px;fill:#231f20;">3</text></g></g></g></g></svg>