<?xml version="1.0" encoding="UTF-8" standalone="no"?><!DOCTYPE svg PUBLIC "-//W3C//DTD SVG 1.1//EN" "http://www.w3.org/Graphics/SVG/1.1/DTD/svg11.dtd"><svg width="100%" height="100%" viewBox="0 0 1000 1000" version="1.1" xmlns="http://www.w3.org/2000/svg" xmlns:xlink="http://www.w3.org/1999/xlink" xml:space="preserve" xmlns:serif="http://www.serif.com/" style="fill-rule:evenodd;clip-rule:evenodd;stroke-linecap:round;stroke-linejoin:round;stroke-miterlimit:10;"><g><g><path d="M554.14,715.346l-0.394,0.291l-0.181,-0.033l-0.435,0.331l-0.181,-0.033l-0.655,0.479l-0.177,-0.032l-0.656,0.485l-0.182,-0.033l-0.65,0.48l-0.184,-0.034l-0.655,0.48l-0.182,-0.034l-0.869,0.648l-0.189,-0.035l-0.863,0.645l-0.179,-0.033l-1.311,0.965l-0.179,-0.033l-1.959,1.449l-0.179,-0.033l-5.227,3.868l-0.035,0.189l-1.957,1.44l-0.037,0.2l-1.3,0.967l-0.036,0.197l-0.875,0.64l-0.036,0.195l-0.874,0.646l-0.036,0.197l-0.65,0.481l-0.035,0.191l-0.65,0.484l-0.036,0.194l-0.655,0.48l-0.036,0.197l-0.651,0.486l-0.035,0.189l-0.436,0.328l-0.035,0.191l-0.439,0.327l-0.034,0.186l-0.655,0.48l-0.037,0.2l-0.429,0.32l-0.037,0.2l-0.439,0.312l-0.037,0.201l-0.218,0.163l-0.034,0.186l-0.436,0.328l-0.037,0.197l-0.432,0.323l-0.036,0.191l-0.217,0.158l-0.036,0.197l-0.435,0.322l-0.036,0.195l-0.215,0.164l-0.035,0.189l-0.437,0.33l-0.033,0.183l-0.222,0.166l-0.036,0.198l-0.219,0.154l-0.036,0.195l-0.43,0.323l-0.036,0.197l-0.221,0.163l-0.034,0.186l-0.216,0.165l-0.036,0.197l-0.215,0.161l-0.035,0.195l-0.221,0.163l-0.035,0.189l-0.439,0.327l-0.034,0.186l-0.221,0.166l-0.036,0.194l-0.213,0.165l-0.035,0.189l-0.216,0.167l-0.035,0.191c-0.488,0.342 -0.617,1.028 -1.02,1.415l-0.037,0.203l-0.214,0.155l-0.036,0.195l-0.213,0.167l-0.036,0.192l-0.222,0.154l-0.036,0.2l-0.223,0.158l-0.036,0.197l-0.213,0.165l-0.071,0.386l-0.217,0.161l-0.036,0.191l-0.218,0.167l-0.036,0.194l-0.213,0.153l-0.073,0.395l-0.214,0.155l-0.036,0.198l-0.22,0.16l-0.072,0.392l-0.22,0.157l-0.036,0.198l-0.217,0.158l-0.073,0.394l-0.214,0.159l-0.036,0.194l-0.22,0.161l-0.071,0.386l-0.212,0.162l-0.072,0.391l-0.219,0.164l-0.035,0.192l-0.219,0.157l-0.072,0.389l-0.218,0.164l-0.07,0.383l-0.224,0.163l-0.071,0.389l-0.215,0.158l-0.071,0.389l-0.213,0.165c-0.262,0.776 -0.759,1.421 -0.975,2.235l-0.225,0.157l-0.107,0.58l-0.216,0.167l-0.071,0.386l-0.216,0.167l-0.106,0.581l-0.22,0.157l-0.107,0.581l-0.215,0.164l-0.107,0.583l-0.218,0.161l-0.108,0.586l-0.216,0.155l-0.108,0.586l-0.221,0.164l-0.143,0.777l-0.216,0.153l-0.144,0.783l-0.212,0.162l-0.143,0.78l-0.223,0.16l-0.142,0.772l-0.217,0.17l-0.177,0.964l-0.218,0.166l-0.215,1.167l-0.218,0.149l-0.215,1.169l-0.218,0.164l-0.287,1.564l-0.212,0.159l-0.32,1.741l-0.218,0.164l-0.536,2.916l-0.22,0.163l-1.429,7.776l0.149,0.228l-0.537,2.919l0.147,0.222l-0.32,1.747l0.14,0.229l-0.285,1.55l0.145,0.233l-0.214,1.167l0.149,0.225l-0.166,0.907" style="fill:none;stroke:#231f20;stroke-width:1.25px;"/><path d="M505.442,792.297c0.045,-2.153 -0.187,-4.332 -0.144,-6.381l-0.142,-0.236l0.07,-0.383l-0.151,-0.232l0.107,-0.58l-0.146,-0.231l0.072,-0.388l-0.144,-0.228l0.072,-0.388l-0.146,-0.231l0.107,-0.581l-0.147,-0.227l0.071,-0.386l-0.145,-0.234l0.071,-0.386l-0.142,-0.233l0.07,-0.38l-0.146,-0.234l0.071,-0.385l-0.15,-0.235l0.033,-0.183l-0.142,-0.233l0.07,-0.38l-0.144,-0.239l0.07,-0.381l-0.148,-0.234l0.07,-0.383l-0.14,-0.229l0.036,-0.198l-0.149,-0.228l0.071,-0.386l-0.149,-0.228l0.036,-0.195l-0.143,-0.23l0.07,-0.383c-0.373,-0.618 -0.247,-1.647 -0.549,-2.113l0.037,-0.198l-0.149,-0.228l0.072,-0.392l-0.156,-0.223l0.036,-0.195l-0.14,-0.229l0.035,-0.189l-0.143,-0.23l0.036,-0.197l-0.15,-0.226l0.037,-0.197l-0.141,-0.23l0.034,-0.186l-0.148,-0.231l0.036,-0.197l-0.146,-0.225l0.036,-0.197c-0.307,-0.603 -0.287,-1.312 -0.591,-1.917l0.035,-0.192l-0.144,-0.224l0.037,-0.198l-0.146,-0.23l0.036,-0.198l-0.15,-0.219l0.036,-0.198l-0.14,-0.229l0.035,-0.192l-0.291,-0.464l0.034,-0.183l-0.148,-0.234l0.036,-0.197c-0.194,-0.417 -0.33,-0.868 -0.512,-1.294l0.036,-0.192l-0.292,-0.461l0.035,-0.186l-0.148,-0.237l0.035,-0.191l-0.292,-0.456l0.035,-0.192l-0.149,-0.228l0.036,-0.194l-0.286,-0.458l0.035,-0.194l-0.295,-0.453l0.035,-0.195l-0.288,-0.464l0.035,-0.185l-0.294,-0.462l0.035,-0.195c-0.594,-1.176 -1.063,-2.58 -1.758,-3.736l0.035,-0.192l-0.436,-0.68l0.037,-0.2l-0.444,-0.687l0.035,-0.189l-0.576,-0.912l0.035,-0.192l-0.733,-1.142l0.035,-0.192c-3.212,-5.724 -6.361,-10.378 -10.375,-15.173l-0.179,-0.033l-0.445,-0.681l-0.184,-0.034l-0.436,-0.686l-0.179,-0.033l-0.442,-0.681l-0.179,-0.033l-0.292,-0.456l-0.179,-0.032c-0.663,-0.911 -1.534,-1.5 -2.193,-2.413l-0.184,-0.034l-0.143,-0.233l-0.179,-0.033l-0.294,-0.447l-0.184,-0.034l-0.148,-0.234l-0.179,-0.033l-0.296,-0.453c-0.374,-0.042 -1.141,-1.194 -1.638,-1.306c-0.395,-0.708 -1.147,-0.905 -1.601,-1.506l-0.182,-0.033l-0.153,-0.22l-0.176,-0.033l-0.149,-0.231l-0.179,-0.033l-0.148,-0.234l-0.179,-0.033l-0.153,-0.22l-0.179,-0.033l-0.146,-0.228l-0.18,-0.033l-0.145,-0.233l-0.19,-0.035l-0.141,-0.224l-0.182,-0.033l-0.149,-0.229l-0.176,-0.032l-0.146,-0.234l-0.184,-0.034l-0.151,-0.219l-0.181,-0.034l-0.146,-0.23l-0.179,-0.033l-0.143,-0.231l-0.364,-0.066l-0.151,-0.22l-0.181,-0.034l-0.145,-0.236l-0.179,-0.033l-0.152,-0.226l-0.362,-0.066l-0.149,-0.226l-0.176,-0.032l-0.146,-0.231l-0.185,-0.034c-0.449,-0.487 -1.418,-0.801 -1.827,-1.34c-1.324,-0.504 -3.031,-2.032 -4.436,-2.423l-0.147,-0.225l-0.366,-0.067l-0.141,-0.23l-0.366,-0.067l-0.146,-0.228l-0.549,-0.101l-0.144,-0.222l-0.364,-0.066l-0.146,-0.231" style="fill:none;stroke:#231f20;stroke-width:1.25px;"/><path d="M460.57,716.207l0.725,0.133l0.146,0.231l0.73,0.134l0.15,0.223l0.904,0.166l0.146,0.227c3.477,1.097 6.981,2.598 10.667,3.37l0.146,0.228l2.177,0.4l0.153,0.223l3.269,0.601l0.146,0.23l9.461,1.739l0.221,-0.163l3.272,0.601l0.219,-0.155l2.178,0.4l0.222,-0.16l1.811,0.333l0.224,-0.163l1.453,0.267l0.212,-0.162c3.193,0.454 6.398,0.153 9.534,0.351l0.218,-0.164l0.725,0.133l0.216,-0.167l0.725,0.133l0.223,-0.16l0.728,0.134l0.213,-0.156c1.031,0.128 2,-0.149 3.024,-0.05l0.218,-0.164l0.543,0.1l0.218,-0.161l0.548,0.101l0.214,-0.156l0.548,0.101l0.219,-0.164l0.543,0.1l0.217,-0.161l0.367,0.067l0.211,-0.156l0.548,0.101l0.218,-0.164l0.544,0.1l0.216,-0.167c0.776,0.033 1.511,-0.249 2.295,-0.184l0.213,-0.15l0.367,0.067l0.221,-0.163l0.358,0.065l0.219,-0.166l0.545,0.1l0.222,-0.154l0.356,0.065c0.602,-0.341 1.369,-0.106 1.971,-0.445l0.179,0.033l0.214,-0.158l0.361,0.066l0.217,-0.155l0.369,0.068l0.219,-0.167l0.361,0.066l0.218,-0.164l0.364,0.067l0.22,-0.157l0.176,0.032l0.224,-0.163l0.358,0.066l0.22,-0.157l0.366,0.067c0.356,-0.34 1.218,-0.169 1.599,-0.513l0.361,0.066l0.217,-0.155l0.179,0.033l0.215,-0.164l0.367,0.067l0.224,-0.166l0.179,0.033l0.214,-0.156l0.187,0.035l0.213,-0.162l0.366,0.067l0.219,-0.169l0.182,0.033l0.219,-0.152l0.364,0.067c0.993,-0.53 2.175,-0.493 3.193,-1.021l0.185,0.034l0.215,-0.161l0.179,0.032l0.22,-0.16l0.364,0.067l0.221,-0.163l0.179,0.032c0.136,-0.105 1.466,-0.555 1.595,-0.507c0.436,-0.296 0.98,-0.246 1.419,-0.543c0.473,0.015 0.906,-0.372 1.381,-0.353c1.276,-0.696 2.164,-0.672 3.449,-1.372l0.179,0.032l0.221,-0.16l0.184,0.034l0.212,-0.162l0.182,0.033l0.433,-0.325l0.188,0.034l0.219,-0.154l0.176,0.032l0.439,-0.327l0.182,0.033l0.215,-0.158l0.182,0.033l0.223,-0.163l0.177,0.033c0.572,-0.308 1.188,-0.576 1.81,-0.838" style="fill:none;stroke:#231f20;stroke-width:1.25px;"/></g><g><path d="M790.228,520.172l-0.485,0.068l-0.144,-0.116l-0.539,0.083l-0.144,-0.116l-0.805,0.109l-0.139,-0.113l-0.809,0.113l-0.143,-0.116l-0.801,0.112l-0.146,-0.118l-0.804,0.109l-0.144,-0.116l-1.072,0.154l-0.15,-0.122l-1.066,0.156l-0.142,-0.115l-1.613,0.222l-0.141,-0.114l-2.413,0.338l-0.142,-0.115l-6.439,0.904l-0.121,0.149l-2.407,0.331l-0.128,0.159l-1.604,0.228l-0.126,0.156l-1.075,0.145l-0.124,0.154l-1.076,0.151l-0.126,0.156l-0.8,0.112l-0.123,0.151l-0.802,0.115l-0.124,0.153l-0.805,0.109l-0.126,0.156l-0.804,0.117l-0.12,0.149l-0.54,0.079l-0.122,0.152l-0.542,0.078l-0.119,0.147l-0.804,0.109l-0.128,0.158l-0.53,0.076l-0.128,0.158l-0.535,0.065l-0.128,0.159l-0.27,0.039l-0.118,0.147l-0.54,0.08l-0.126,0.156l-0.534,0.077l-0.123,0.151l-0.266,0.036l-0.126,0.156l-0.536,0.075l-0.124,0.153l-0.268,0.042l-0.121,0.149l-0.541,0.082l-0.117,0.145l-0.274,0.04l-0.126,0.156l-0.266,0.031l-0.125,0.154l-0.532,0.079l-0.126,0.156l-0.272,0.038l-0.118,0.147l-0.268,0.041l-0.126,0.156l-0.266,0.04l-0.124,0.153l-0.272,0.039l-0.121,0.149l-0.542,0.078l-0.118,0.147l-0.274,0.04l-0.124,0.154l-0.266,0.043l-0.121,0.149l-0.269,0.044l-0.123,0.152c-0.592,0.066 -1.033,0.607 -1.571,0.755l-0.13,0.161l-0.262,0.034l-0.125,0.154l-0.267,0.046l-0.122,0.151l-0.269,0.03l-0.128,0.158l-0.27,0.032l-0.126,0.156l-0.266,0.043l-0.247,0.305l-0.268,0.038l-0.122,0.151l-0.272,0.043l-0.124,0.153l-0.26,0.033l-0.252,0.312l-0.263,0.035l-0.126,0.156l-0.27,0.035l-0.25,0.31l-0.269,0.034l-0.126,0.156l-0.266,0.035l-0.252,0.312l-0.264,0.037l-0.124,0.154l-0.27,0.036l-0.247,0.305l-0.264,0.041l-0.25,0.31l-0.27,0.04l-0.122,0.151l-0.269,0.034l-0.248,0.307l-0.27,0.04l-0.245,0.303l-0.274,0.036l-0.248,0.308l-0.264,0.037l-0.249,0.307l-0.265,0.044c-0.601,0.557 -1.345,0.886 -1.924,1.498l-0.273,0.031l-0.37,0.459l-0.27,0.043l-0.247,0.306l-0.269,0.043l-0.371,0.459l-0.268,0.034l-0.371,0.459l-0.268,0.042l-0.372,0.461l-0.268,0.037l-0.375,0.464l-0.264,0.033l-0.375,0.463l-0.272,0.039l-0.496,0.615l-0.263,0.03l-0.5,0.62l-0.264,0.041l-0.499,0.617l-0.272,0.034l-0.493,0.611l-0.272,0.046l-0.615,0.762l-0.272,0.042l-0.745,0.923l-0.263,0.026l-0.747,0.925l-0.27,0.04l-0.999,1.237l-0.262,0.039l-1.112,1.377l-0.27,0.039l-1.863,2.307l-0.272,0.038l-4.967,6.15l0.021,0.272l-1.864,2.309l0.023,0.265l-1.116,1.382l0.014,0.269l-0.99,1.225l0.016,0.275l-0.745,0.922l0.023,0.27l-0.579,0.717" style="fill:none;stroke:#231f20;stroke-width:1.25px;"/><path d="M710.701,564.539c1.068,-1.87 1.904,-3.896 2.92,-5.676l-0.012,-0.275l0.244,-0.303l-0.022,-0.275l0.371,-0.459l-0.018,-0.273l0.249,-0.307l-0.018,-0.268l0.248,-0.308l-0.017,-0.272l0.37,-0.459l-0.019,-0.27l0.246,-0.305l-0.016,-0.275l0.247,-0.305l-0.014,-0.273l0.243,-0.301l-0.016,-0.274l0.246,-0.305l-0.02,-0.278l0.117,-0.145l-0.014,-0.273l0.243,-0.301l-0.013,-0.279l0.243,-0.3l-0.018,-0.276l0.245,-0.303l-0.014,-0.269l0.126,-0.156l-0.021,-0.272l0.246,-0.305l-0.022,-0.272l0.124,-0.154l-0.015,-0.27l0.244,-0.303c-0.032,-0.722 0.569,-1.566 0.527,-2.119l0.126,-0.156l-0.022,-0.272l0.25,-0.31l-0.029,-0.27l0.124,-0.154l-0.014,-0.269l0.121,-0.149l-0.016,-0.271l0.126,-0.156l-0.024,-0.269l0.126,-0.156l-0.013,-0.269l0.118,-0.147l-0.019,-0.274l0.126,-0.156l-0.022,-0.268l0.126,-0.156c0.018,-0.676 0.374,-1.289 0.396,-1.966l0.123,-0.152l-0.02,-0.266l0.126,-0.156l-0.018,-0.272l0.126,-0.156l-0.027,-0.265l0.126,-0.156l-0.014,-0.269l0.123,-0.151l-0.034,-0.547l0.117,-0.145l-0.018,-0.276l0.126,-0.156c0.028,-0.459 0.124,-0.92 0.168,-1.381l0.122,-0.152l-0.036,-0.544l0.119,-0.147l-0.016,-0.279l0.122,-0.151l-0.039,-0.54l0.122,-0.152l-0.022,-0.271l0.125,-0.154l-0.034,-0.539l0.124,-0.154l-0.043,-0.539l0.124,-0.154l-0.031,-0.545l0.118,-0.147l-0.038,-0.546l0.125,-0.154c0.039,-1.317 0.297,-2.775 0.239,-4.122l0.122,-0.152l-0.059,-0.805l0.128,-0.159l-0.061,-0.815l0.12,-0.15l-0.071,-1.077l0.123,-0.151l-0.099,-1.354l0.122,-0.151c-0.09,-6.563 -0.635,-12.156 -1.873,-18.286l-0.141,-0.114l-0.066,-0.811l-0.146,-0.118l-0.055,-0.811l-0.141,-0.114l-0.063,-0.809l-0.142,-0.115l-0.04,-0.54l-0.141,-0.114c-0.147,-1.117 -0.632,-2.05 -0.775,-3.167l-0.146,-0.118l-0.014,-0.272l-0.142,-0.115l-0.044,-0.533l-0.146,-0.118l-0.019,-0.276l-0.141,-0.115l-0.044,-0.539c-0.308,-0.216 -0.432,-1.594 -0.815,-1.929c-0.01,-0.811 -0.576,-1.343 -0.688,-2.088l-0.144,-0.116l-0.029,-0.267l-0.14,-0.112l-0.02,-0.274l-0.142,-0.115l-0.018,-0.276l-0.142,-0.114l-0.029,-0.267l-0.142,-0.115l-0.02,-0.27l-0.141,-0.114l-0.016,-0.275l-0.151,-0.121l-0.017,-0.264l-0.144,-0.116l-0.022,-0.272l-0.139,-0.113l-0.016,-0.274l-0.146,-0.118l-0.028,-0.265l-0.143,-0.116l-0.018,-0.273l-0.142,-0.114l-0.016,-0.271l-0.288,-0.232l-0.027,-0.265l-0.144,-0.116l-0.014,-0.277l-0.142,-0.114l-0.026,-0.272l-0.285,-0.23l-0.024,-0.27l-0.139,-0.112l-0.018,-0.273l-0.146,-0.118c-0.163,-0.643 -0.864,-1.381 -0.966,-2.05c-0.923,-1.074 -1.694,-3.232 -2.741,-4.247l-0.022,-0.267l-0.29,-0.234l-0.013,-0.269l-0.29,-0.234l-0.02,-0.27l-0.434,-0.351l-0.021,-0.263l-0.288,-0.233l-0.017,-0.272" style="fill:none;stroke:#231f20;stroke-width:1.25px;"/><path d="M707.599,476.258l0.573,0.463l0.018,0.272l0.577,0.467l0.026,0.267l0.715,0.578l0.02,0.27c2.531,2.623 4.894,5.615 7.764,8.053l0.019,0.27l1.723,1.391l0.027,0.268l2.586,2.089l0.018,0.272l7.483,6.045l0.272,-0.038l2.588,2.09l0.267,-0.032l1.722,1.392l0.272,-0.035l1.433,1.157l0.274,-0.036l1.149,0.928l0.264,-0.041c2.589,1.923 5.549,3.189 8.21,4.86l0.269,-0.04l0.574,0.463l0.269,-0.043l0.574,0.463l0.272,-0.034l0.576,0.464l0.262,-0.034c0.845,0.603 1.828,0.822 2.681,1.399l0.27,-0.04l0.429,0.347l0.268,-0.038l0.434,0.351l0.262,-0.035l0.434,0.35l0.27,-0.039l0.429,0.347l0.269,-0.038l0.289,0.234l0.261,-0.036l0.433,0.35l0.27,-0.04l0.43,0.347l0.269,-0.044c0.667,0.4 1.447,0.504 2.106,0.935l0.258,-0.03l0.29,0.234l0.272,-0.038l0.284,0.229l0.271,-0.043l0.432,0.349l0.269,-0.029l0.281,0.227c0.692,-0.013 1.254,0.56 1.944,0.55l0.142,0.114l0.264,-0.037l0.285,0.231l0.265,-0.033l0.292,0.236l0.271,-0.042l0.286,0.23l0.27,-0.039l0.288,0.232l0.268,-0.034l0.14,0.113l0.274,-0.036l0.283,0.229l0.269,-0.034l0.29,0.234c0.474,-0.128 1.15,0.433 1.649,0.313l0.286,0.23l0.264,-0.033l0.142,0.115l0.268,-0.042l0.29,0.235l0.276,-0.039l0.141,0.114l0.263,-0.034l0.148,0.119l0.264,-0.041l0.29,0.234l0.273,-0.044l0.144,0.116l0.265,-0.029l0.287,0.233c1.126,0.008 2.147,0.605 3.294,0.627l0.146,0.118l0.266,-0.039l0.142,0.114l0.27,-0.035l0.288,0.232l0.272,-0.038l0.141,0.114c0.17,-0.027 1.553,0.212 1.644,0.316c0.524,-0.052 0.978,0.252 1.506,0.2c0.408,0.239 0.974,0.106 1.382,0.35c1.453,-0.003 2.223,0.442 3.686,0.44l0.142,0.114l0.27,-0.035l0.146,0.118l0.264,-0.041l0.144,0.116l0.535,-0.079l0.149,0.119l0.266,-0.031l0.14,0.113l0.542,-0.078l0.144,0.116l0.264,-0.037l0.144,0.116l0.274,-0.036l0.139,0.113c0.65,0.002 1.319,0.061 1.991,0.128" style="fill:none;stroke:#231f20;stroke-width:1.25px;"/></g><g transform="matrix(37.5,0,0,37.5,111.182,482.05)"></g><text x="11.178px" y="482.05px" style="font-family:'Helvetica';font-size:37.5px;fill:#ff1f20;">Arm 2</text><g transform="matrix(37.5,0,0,37.5,975.218,441.237)"></g><text x="875.214px" y="441.237px" style="font-family:'Helvetica';font-size:37.5px;fill:#ff1f20;">Arm 4</text><g transform="matrix(37.5,0,0,37.5,540.029,936.532)"></g><text x="429.605px" y="936.532px" style="font-family:'Helvetica';font-size:37.5px;fill:#ff1f20;">Arm 3</text><path d="M261.052,528.989c0,-5.212 -4.229,-9.441 -9.446,-9.441c-5.216,-0 -9.445,4.229 -9.445,9.441c-0,5.217 4.229,9.446 9.445,9.446c5.217,0 9.446,-4.229 9.446,-9.446" style="fill:#231f20;fill-rule:nonzero;"/><path d="M274.111,461.492c0,-5.217 -4.229,-9.442 -9.446,-9.442c-5.216,0 -9.446,4.225 -9.446,9.442c0,5.216 4.23,9.441 9.446,9.441c5.217,0 9.446,-4.225 9.446,-9.441" style="fill:#231f20;fill-rule:nonzero;"/><path d="M346.28,496.586c0,-5.213 -4.225,-9.446 -9.441,-9.446c-5.213,0 -9.446,4.233 -9.446,9.446c-0,5.217 4.233,9.446 9.446,9.446c5.216,-0 9.441,-4.229 9.441,-9.446" style="fill:#231f20;fill-rule:nonzero;"/><path d="M508.176,306.492c-0,-5.217 -4.217,-9.446 -9.438,-9.446c-5.221,0 -9.446,4.229 -9.446,9.446c0,5.213 4.225,9.433 9.446,9.433c5.221,0 9.438,-4.22 9.438,-9.433" style="fill:#231f20;fill-rule:nonzero;"/><path d="M472.166,237.179c-0,-5.217 -4.225,-9.442 -9.446,-9.442c-5.208,-0 -9.446,4.225 -9.446,9.442c0,5.216 4.238,9.441 9.446,9.441c5.221,0 9.446,-4.225 9.446,-9.441" style="fill:#231f20;fill-rule:nonzero;"/><path d="M533.616,237.199c0,-5.217 -4.225,-9.442 -9.446,-9.442c-5.208,0 -9.445,4.225 -9.445,9.442c-0,5.217 4.237,9.442 9.445,9.442c5.221,-0 9.446,-4.225 9.446,-9.442" style="fill:#231f20;fill-rule:nonzero;"/><path d="M681.162,510.806c0,-5.221 -4.212,-9.446 -9.442,-9.446c-5.212,0 -9.433,4.225 -9.433,9.446c0,5.212 4.221,9.437 9.433,9.437c5.23,0 9.442,-4.225 9.442,-9.437" style="fill:#231f20;fill-rule:nonzero;"/><path d="M758.509,480.48c-0,-5.213 -4.229,-9.446 -9.438,-9.446c-5.22,0 -9.445,4.233 -9.445,9.446c-0,5.217 4.225,9.442 9.445,9.442c5.209,-0 9.438,-4.225 9.438,-9.442" style="fill:#231f20;fill-rule:nonzero;"/><path d="M757.032,556.087c0,-5.216 -4.229,-9.446 -9.437,-9.446c-5.221,0 -9.446,4.23 -9.446,9.446c-0,5.213 4.225,9.442 9.446,9.442c5.208,-0 9.437,-4.229 9.437,-9.442" style="fill:#231f20;fill-rule:nonzero;"/><path d="M517.283,670.97c0,-5.213 -4.225,-9.438 -9.45,-9.438c-5.204,0 -9.437,4.225 -9.437,9.438c-0,5.216 4.233,9.454 9.437,9.454c5.225,-0 9.45,-4.238 9.45,-9.454" style="fill:#231f20;fill-rule:nonzero;"/><path d="M550.548,756.814c0,-5.22 -4.229,-9.445 -9.45,-9.445c-5.208,-0 -9.441,4.225 -9.441,9.445c-0,5.209 4.233,9.434 9.441,9.434c5.221,-0 9.45,-4.225 9.45,-9.434" style="fill:#231f20;fill-rule:nonzero;"/><path d="M485.293,754.933c-0,-5.209 -4.233,-9.446 -9.446,-9.446c-5.212,-0 -9.442,4.237 -9.442,9.446c0,5.212 4.23,9.433 9.442,9.433c5.213,0 9.446,-4.221 9.446,-9.433" style="fill:#231f20;fill-rule:nonzero;"/><path d="M380.39,235.369l68.279,0.487" style="fill:none;fill-rule:nonzero;stroke:#231f20;stroke-width:1.25px;stroke-linecap:butt;stroke-linejoin:miter;stroke-miterlimit:4;"/><path d="M541.344,238.406l68.279,0.486" style="fill:none;fill-rule:nonzero;stroke:#231f20;stroke-width:1.25px;stroke-linecap:butt;stroke-linejoin:miter;stroke-miterlimit:4;"/><path d="M499.992,362.349l1.083,-37.383" style="fill:none;fill-rule:nonzero;stroke:#231f20;stroke-width:1.25px;stroke-linecap:butt;stroke-linejoin:miter;stroke-miterlimit:4;"/><path d="M388.23,497.355l-38.3,-0.909" style="fill:none;fill-rule:nonzero;stroke:#231f20;stroke-width:1.25px;stroke-linecap:butt;stroke-linejoin:miter;stroke-miterlimit:4;"/><path d="M245.333,356.176l17.497,90.136" style="fill:none;fill-rule:nonzero;stroke:#231f20;stroke-width:1.25px;stroke-linecap:butt;stroke-linejoin:miter;stroke-miterlimit:4;"/><path d="M221.744,604.44l24.3,-55.761" style="fill:none;fill-rule:nonzero;stroke:#231f20;stroke-width:1.25px;stroke-linecap:butt;stroke-linejoin:miter;stroke-miterlimit:4;"/><path d="M652.805,510.751l-39.212,0" style="fill:none;fill-rule:nonzero;stroke:#231f20;stroke-width:1.25px;stroke-linecap:butt;stroke-linejoin:miter;stroke-miterlimit:4;"/><path d="M765.695,399.199l-13.437,69.586" style="fill:none;fill-rule:nonzero;stroke:#231f20;stroke-width:1.25px;stroke-linecap:butt;stroke-linejoin:miter;stroke-miterlimit:4;"/><path d="M754.772,569.001l4.748,48.874" style="fill:none;fill-rule:nonzero;stroke:#231f20;stroke-width:1.25px;stroke-linecap:butt;stroke-linejoin:miter;stroke-miterlimit:4;"/><path d="M508.646,606.389l0.634,50.816" style="fill:none;fill-rule:nonzero;stroke:#231f20;stroke-width:1.25px;stroke-linecap:butt;stroke-linejoin:miter;stroke-miterlimit:4;"/><path d="M557.221,759.714l51.054,7.292" style="fill:none;fill-rule:nonzero;stroke:#231f20;stroke-width:1.25px;stroke-linecap:butt;stroke-linejoin:miter;stroke-miterlimit:4;"/><path d="M413.317,777l48.333,-15.5" style="fill:none;fill-rule:nonzero;stroke:#231f20;stroke-width:1.25px;stroke-linecap:butt;stroke-linejoin:miter;stroke-miterlimit:4;"/><path d="M435.738,138.098l-0,37.975l-13.846,-18.983l13.846,-18.992Z" style="fill:#231f20;fill-rule:nonzero;stroke:#231f20;stroke-width:1.25px;stroke-miterlimit:4;"/><path d="M563.088,176.073l-0,-37.975l13.854,18.979l-13.854,18.996Z" style="fill:#231f20;fill-rule:nonzero;stroke:#231f20;stroke-width:1.25px;stroke-miterlimit:4;"/><path d="M568.233,870.112l-0,-37.975l13.854,18.979l-13.854,18.996Z" style="fill:#231f20;fill-rule:nonzero;stroke:#231f20;stroke-width:1.25px;stroke-miterlimit:4;"/><path d="M435.738,157.086l130.696,-0" style="fill:none;fill-rule:nonzero;stroke:#231f20;stroke-width:1.25px;stroke-linecap:butt;stroke-linejoin:miter;stroke-miterlimit:4;"/><path d="M436.515,832.146l0,37.975l-13.846,-18.983l13.846,-18.992Z" style="fill:#231f20;fill-rule:nonzero;stroke:#231f20;stroke-width:1.25px;stroke-miterlimit:4;"/><path d="M436.515,851.134l130.696,-0" style="fill:none;fill-rule:nonzero;stroke:#231f20;stroke-width:1.25px;stroke-linecap:butt;stroke-linejoin:miter;stroke-miterlimit:4;"/><path d="M148.001,571.77l37.975,-0l-18.992,13.846l-18.983,-13.846Z" style="fill:#231f20;fill-rule:nonzero;stroke:#231f20;stroke-width:1.25px;stroke-miterlimit:4;"/><path d="M186.763,435.911l-37.975,-0l18.979,-13.85l18.996,13.85Z" style="fill:#231f20;fill-rule:nonzero;stroke:#231f20;stroke-width:1.25px;stroke-miterlimit:4;"/><path d="M167.771,570.652l0,-144.087" style="fill:none;fill-rule:nonzero;stroke:#231f20;stroke-width:1.25px;stroke-miterlimit:4;"/><path d="M819.795,590.99l37.984,-0l-18.988,13.854l-18.996,-13.854Z" style="fill:#231f20;fill-rule:nonzero;stroke:#231f20;stroke-width:1.25px;stroke-miterlimit:4;"/><path d="M857.488,455.852l-37.984,0l18.988,-13.85l18.996,13.85Z" style="fill:#231f20;fill-rule:nonzero;stroke:#231f20;stroke-width:1.25px;stroke-miterlimit:4;"/><path d="M838.5,592.407l0,-145.9" style="fill:none;fill-rule:nonzero;stroke:#231f20;stroke-width:1.25px;stroke-miterlimit:4;"/><g transform="matrix(1,0,0,1,314.431,97.7292)"><text x="303.789px" y="149.271px" style="font-family:'Helvetica';font-size:37.5px;fill:#231f20;">Q</text><g transform="matrix(26.25,0,0,26.25,371.627,153.437)"></g><text x="335.02px" y="153.437px" style="font-family:'Helvetica';font-size:26.25px;fill:#231f20;">A <tspan x="357.028px " y="153.437px ">1</tspan></text></g><g transform="matrix(1,0,0,1,301.95,516.683)"><text x="311.456px" y="263.943px" style="font-family:'Helvetica';font-size:37.5px;fill:#231f20;">Q</text><g transform="matrix(26.25,0,0,26.25,376.247,268.109)"></g><text x="342.692px" y="268.109px" style="font-family:'Helvetica';font-size:26.25px;fill:#231f20;">E<tspan x="361.648px " y="268.109px ">3</tspan></text></g><g transform="matrix(1,0,0,1,417.054,420.664)"><text x="333.423px" y="236.456px" style="font-family:'Helvetica';font-size:37.5px;fill:#231f20;">Q</text><g transform="matrix(26.25,0,0,26.25,401.255,240.622)"></g><text x="366.448px" y="240.622px" style="font-family:'Helvetica';font-size:26.25px;fill:#231f20;">A<tspan x="386.656px " y="240.622px ">4</tspan></text></g><g transform="matrix(1,0,0,1,202.292,214.207)"><text x="266.613px" y="186.207px" style="font-family:'Helvetica';font-size:37.5px;fill:#231f20;">Q</text><text x="298.715px" y="190.373px" style="font-family:'Helvetica';font-size:26.25px;fill:#231f20;">K<tspan x="318.276px " y="190.373px ">1</tspan></text></g><g transform="matrix(1,0,0,1,140.891,304.739)"><text x="250.293px" y="204.674px" style="font-family:'Helvetica';font-size:37.5px;fill:#231f20;">Q</text><text x="282.395px" y="208.841px" style="font-family:'Helvetica';font-size:26.25px;fill:#231f20;">K<tspan x="301.956px " y="208.841px ">2</tspan></text></g><g transform="matrix(1,0,0,1,89.716,573.492)"><text x="255.577px" y="287.564px" style="font-family:'Helvetica';font-size:37.5px;fill:#231f20;">F<tspan x="279.521px " y="287.564px ">G</tspan></text><g transform="matrix(26.25,0,0,26.25,324.326,291.73)"></g><text x="309.728px" y="291.73px" style="font-family:'Helvetica';font-size:26.25px;fill:#231f20;">3</text></g><g transform="matrix(1,0,0,1,92.4899,520.097)"><text x="246.239px" y="269.525px" style="font-family:'Helvetica';font-size:37.5px;fill:#231f20;">Q</text><g transform="matrix(26.25,0,0,26.25,314.075,273.691)"></g><text x="277.469px" y="273.691px" style="font-family:'Helvetica';font-size:26.25px;fill:#231f20;">A <tspan x="299.476px " y="273.691px ">3</tspan></text></g><g transform="matrix(1,0,0,1,-17.3778,392.225)"><text x="205.374px" y="233.45px" style="font-family:'Helvetica';font-size:37.5px;fill:#231f20;">Q</text><g transform="matrix(26.25,0,0,26.25,270.166,237.616)"></g><text x="236.611px" y="237.616px" style="font-family:'Helvetica';font-size:26.25px;fill:#231f20;">E<tspan x="255.567px " y="237.616px ">2</tspan></text></g><g transform="matrix(1,0,0,1,-56.8472,222.848)"><text x="192.874px" y="185.777px" style="font-family:'Helvetica';font-size:37.5px;fill:#231f20;">F<tspan x="216.818px " y="185.777px ">G</tspan></text><g transform="matrix(26.25,0,0,26.25,261.623,189.944)"></g><text x="247.025px" y="189.944px" style="font-family:'Helvetica';font-size:26.25px;fill:#231f20;">2</text></g><g transform="matrix(1,0,0,1,0.319112,173.026)"><text x="203.788px" y="174.451px" style="font-family:'Helvetica';font-size:37.5px;fill:#231f20;">Q</text><g transform="matrix(26.25,0,0,26.25,271.624,178.617)"></g><text x="235.018px" y="178.617px" style="font-family:'Helvetica';font-size:26.25px;fill:#231f20;">A <tspan x="257.025px " y="178.617px ">2</tspan></text></g><g transform="matrix(1,0,0,1,77.2034,90.1383)"><text x="232.432px" y="149.701px" style="font-family:'Helvetica';font-size:37.5px;fill:#231f20;">Q</text><g transform="matrix(26.25,0,0,26.25,297.223,153.867)"></g><text x="263.668px" y="153.867px" style="font-family:'Helvetica';font-size:26.25px;fill:#231f20;">E<tspan x="282.624px " y="153.867px ">1</tspan></text></g><g transform="matrix(1,0,0,1,299.818,38.8559)"><text x="295.084px" y="131.936px" style="font-family:'Helvetica';font-size:37.5px;fill:#231f20;">F<tspan x="319.028px " y="131.936px ">G</tspan></text><g transform="matrix(26.25,0,0,26.25,363.833,136.103)"></g><text x="349.235px" y="136.103px" style="font-family:'Helvetica';font-size:26.25px;fill:#231f20;">1</text></g><g transform="matrix(37.5,0,0,37.5,570.63,56.4095)"></g><text x="470.627px" y="56.409px" style="font-family:'Helvetica';font-size:37.5px;fill:#ff1f20;">Arm 1</text><g><path d="M467.156,4.388l-0.927,83.453l-32.464,18.171" style="fill:none;fill-rule:nonzero;stroke:#ff2020;stroke-width:0.9px;stroke-linecap:butt;stroke-linejoin:miter;stroke-miterlimit:2.613;"/><g><path d="M423.319,123.315l16.234,-8.858l-10.429,-18.805l-5.805,27.663" style="fill:#ff2020;"/><path d="M507.541,124.251l-5.195,-27.777l-10.846,18.569l16.041,9.208" style="fill:#ff2020;"/><path d="M465.633,124.397l7.874,-26.124l-15.172,-0.168l7.298,26.292" style="fill:#ff2020;"/></g><path d="M466.745,4.384l-0.927,83.453l31.664,18.883" style="fill:none;fill-rule:nonzero;stroke:#ff2020;stroke-width:0.9px;stroke-linecap:butt;stroke-linejoin:miter;stroke-miterlimit:2.613;"/><path d="M466.967,4.386l-1.058,95.175" style="fill:none;fill-rule:nonzero;stroke:#ff2020;stroke-width:0.9px;stroke-linecap:butt;stroke-linejoin:miter;stroke-miterlimit:2.613;"/></g><circle cx="506.439" cy="492.854" r="144.053" style="fill:none;stroke:#231f20;stroke-width:1.25px;stroke-miterlimit:1.5;"/><path d="M443.914,745.212c-92.264,-22.894 -164.361,-97.101 -184.199,-190.527l-129.88,2.614l-2.352,-116.796l135.286,-2.723c23.059,-85.995 90.884,-153.753 176.917,-176.716l0,-146.181l116.82,0l0,143.24c99.896,21.293 177.782,102.343 194.392,203.884l133.559,4.267l-3.731,116.76l-138.333,-4.42c-26.586,83.253 -95.652,147.603 -181.659,167.51l-0,127.114l-116.82,-0l0,-128.026Z" style="fill:none;stroke:#231f20;stroke-width:1.25px;stroke-miterlimit:1.5;"/><g transform="matrix(1,0,0,1,398.227,567.931)"><text x="88.579px" y="26.898px" style="font-family:'Helvetica';font-size:37.5px;fill:#231f20;">Q</text><text x="120.677px" y="31.065px" style="font-family:'Helvetica';font-size:26.25px;fill:#231f20;">K<tspan x="140.237px " y="31.065px ">3</tspan></text></g><g transform="matrix(1,0,0,1,480.872,489.991)"><text x="66.213px" y="26.898px" style="font-family:'Helvetica';font-size:37.5px;fill:#231f20;">Q</text><text x="98.311px" y="31.065px" style="font-family:'Helvetica';font-size:26.25px;fill:#231f20;">K<tspan x="117.87px " y="31.065px ">4</tspan></text></g><g transform="matrix(1,0,0,1,404.789,211.454)"><text x="329.923px" y="176.757px" style="font-family:'Helvetica';font-size:37.5px;fill:#231f20;">Q</text><text x="361.16px" y="180.924px" style="font-family:'Helvetica';font-size:26.25px;fill:#231f20;">E<tspan x="380.116px " y="180.924px ">1</tspan></text><text x="397.736px" y="217.924px" style="font-family:'Helvetica';font-size:37.5px;fill:#231f20;">F<tspan x="421.68px " y="217.924px ">G</tspan></text><g transform="matrix(26.25,0,0,26.25,466.485,222.091)"></g><text x="451.886px" y="222.091px" style="font-family:'Helvetica';font-size:26.25px;fill:#231f20;">4</text></g><g><path d="M290.748,548.982l-0.279,-0.402l0.039,-0.181l-0.318,-0.444l0.039,-0.181l-0.459,-0.669l0.037,-0.176l-0.465,-0.67l0.039,-0.181l-0.461,-0.664l0.04,-0.183l-0.46,-0.669l0.039,-0.181l-0.621,-0.888l0.041,-0.189l-0.619,-0.881l0.038,-0.178l-0.924,-1.34l0.038,-0.178l-1.389,-2.002l0.038,-0.178l-3.709,-5.341l-0.187,-0.04l-1.381,-2l-0.198,-0.043l-0.928,-1.329l-0.196,-0.042l-0.613,-0.894l-0.193,-0.042l-0.62,-0.892l-0.196,-0.043l-0.461,-0.664l-0.19,-0.04l-0.463,-0.665l-0.194,-0.042l-0.459,-0.669l-0.196,-0.042l-0.467,-0.665l-0.187,-0.04l-0.315,-0.446l-0.19,-0.041l-0.314,-0.449l-0.184,-0.04l-0.46,-0.669l-0.199,-0.043l-0.307,-0.439l-0.199,-0.042l-0.299,-0.449l-0.199,-0.042l-0.157,-0.223l-0.185,-0.04l-0.314,-0.446l-0.196,-0.042l-0.309,-0.443l-0.191,-0.04l-0.151,-0.222l-0.196,-0.042l-0.309,-0.445l-0.193,-0.042l-0.158,-0.22l-0.187,-0.04l-0.317,-0.447l-0.182,-0.039l-0.16,-0.227l-0.196,-0.042l-0.148,-0.224l-0.193,-0.041l-0.31,-0.44l-0.196,-0.042l-0.157,-0.225l-0.184,-0.04l-0.158,-0.22l-0.196,-0.043l-0.155,-0.219l-0.193,-0.042l-0.157,-0.226l-0.187,-0.04l-0.314,-0.449l-0.185,-0.039l-0.159,-0.227l-0.193,-0.041l-0.159,-0.218l-0.187,-0.04l-0.161,-0.221l-0.19,-0.041c-0.327,-0.499 -1.008,-0.648 -1.383,-1.063l-0.202,-0.043l-0.149,-0.219l-0.193,-0.041l-0.161,-0.219l-0.191,-0.041l-0.147,-0.226l-0.199,-0.043l-0.151,-0.227l-0.196,-0.042l-0.158,-0.218l-0.384,-0.082l-0.154,-0.223l-0.19,-0.041l-0.16,-0.223l-0.194,-0.042l-0.146,-0.218l-0.392,-0.084l-0.149,-0.219l-0.196,-0.042l-0.154,-0.225l-0.389,-0.084l-0.151,-0.224l-0.196,-0.042l-0.152,-0.222l-0.392,-0.084l-0.152,-0.219l-0.193,-0.042l-0.154,-0.225l-0.384,-0.083l-0.155,-0.217l-0.389,-0.083l-0.158,-0.223l-0.19,-0.041l-0.151,-0.225l-0.386,-0.083l-0.157,-0.223l-0.381,-0.082l-0.156,-0.228l-0.387,-0.083l-0.152,-0.22l-0.386,-0.083l-0.159,-0.217c-0.768,-0.285 -1.397,-0.802 -2.204,-1.042l-0.15,-0.23l-0.577,-0.124l-0.161,-0.221l-0.383,-0.083l-0.161,-0.221l-0.577,-0.124l-0.151,-0.224l-0.576,-0.124l-0.158,-0.221l-0.58,-0.124l-0.154,-0.223l-0.583,-0.125l-0.148,-0.221l-0.583,-0.126l-0.156,-0.225l-0.773,-0.167l-0.146,-0.22l-0.779,-0.168l-0.155,-0.217l-0.776,-0.167l-0.153,-0.227l-0.767,-0.165l-0.164,-0.222l-0.957,-0.206l-0.16,-0.224l-1.16,-0.249l-0.142,-0.223l-1.162,-0.25l-0.158,-0.223l-1.554,-0.334l-0.153,-0.217l-1.73,-0.372l-0.157,-0.223l-2.899,-0.624l-0.156,-0.225l-7.729,-1.663l-0.233,0.142l-2.901,-0.625l-0.227,0.141l-1.736,-0.374l-0.234,0.134l-1.54,-0.332l-0.238,0.138l-1.159,-0.249l-0.23,0.142l-0.902,-0.194" style="fill:none;stroke:#231f20;stroke-width:1.25px;"/><path d="M215.303,497.981c2.151,0.111 4.337,-0.055 6.383,0.049l0.24,-0.134l0.381,0.082l0.236,-0.144l0.577,0.124l0.235,-0.139l0.386,0.083l0.232,-0.136l0.386,0.083l0.235,-0.139l0.577,0.124l0.232,-0.139l0.384,0.083l0.238,-0.138l0.383,0.082l0.237,-0.135l0.378,0.081l0.238,-0.138l0.384,0.083l0.239,-0.144l0.182,0.039l0.237,-0.135l0.378,0.081l0.243,-0.136l0.378,0.081l0.239,-0.141l0.38,0.082l0.234,-0.133l0.196,0.042l0.233,-0.142l0.384,0.083l0.232,-0.142l0.193,0.041l0.235,-0.136l0.381,0.082c0.629,-0.354 1.654,-0.197 2.129,-0.485l0.196,0.042l0.233,-0.141l0.389,0.083l0.228,-0.148l0.193,0.041l0.234,-0.133l0.188,0.041l0.234,-0.136l0.196,0.042l0.23,-0.143l0.196,0.042l0.234,-0.133l0.185,0.04l0.235,-0.141l0.196,0.042l0.229,-0.14l0.197,0.042c0.612,-0.288 1.319,-0.247 1.934,-0.532l0.19,0.041l0.229,-0.138l0.196,0.043l0.235,-0.139l0.196,0.042l0.224,-0.144l0.196,0.043l0.234,-0.134l0.19,0.041l0.473,-0.276l0.182,0.039l0.238,-0.141l0.196,0.042c0.423,-0.182 0.877,-0.304 1.309,-0.472l0.191,0.041l0.47,-0.277l0.184,0.039l0.241,-0.14l0.191,0.041l0.464,-0.278l0.19,0.041l0.233,-0.142l0.193,0.041l0.466,-0.272l0.194,0.041l0.462,-0.281l0.193,0.041l0.472,-0.274l0.185,0.04l0.47,-0.28l0.193,0.042c1.194,-0.559 2.612,-0.985 3.788,-1.645l0.191,0.041l0.693,-0.415l0.199,0.042l0.7,-0.422l0.187,0.04l0.93,-0.548l0.191,0.041l1.164,-0.698l0.19,0.041c5.818,-3.038 10.565,-6.046 15.479,-9.913l0.039,-0.178l0.694,-0.423l0.04,-0.184l0.698,-0.414l0.039,-0.178l0.694,-0.421l0.038,-0.179l0.464,-0.278l0.039,-0.178c0.93,-0.635 1.545,-1.487 2.477,-2.118l0.04,-0.184l0.237,-0.135l0.038,-0.178l0.456,-0.281l0.04,-0.183l0.238,-0.141l0.038,-0.178l0.462,-0.282c0.054,-0.372 1.228,-1.104 1.355,-1.597c0.719,-0.374 0.939,-1.12 1.553,-1.555l0.039,-0.181l0.225,-0.146l0.038,-0.176l0.235,-0.141l0.039,-0.178l0.238,-0.141l0.038,-0.178l0.225,-0.146l0.038,-0.179l0.233,-0.139l0.038,-0.178l0.238,-0.138l0.04,-0.189l0.228,-0.134l0.039,-0.181l0.233,-0.142l0.038,-0.176l0.238,-0.138l0.039,-0.183l0.224,-0.144l0.039,-0.181l0.235,-0.138l0.039,-0.178l0.234,-0.136l0.078,-0.362l0.224,-0.144l0.039,-0.18l0.24,-0.138l0.039,-0.178l0.23,-0.145l0.077,-0.359l0.23,-0.143l0.038,-0.175l0.235,-0.139l0.04,-0.183c0.5,-0.435 0.843,-1.393 1.395,-1.787c0.543,-1.307 2.122,-2.968 2.555,-4.36l0.23,-0.14l0.078,-0.364l0.234,-0.134l0.078,-0.364l0.232,-0.139l0.118,-0.545l0.226,-0.138l0.077,-0.362l0.235,-0.138" style="fill:none;stroke:#231f20;stroke-width:1.25px;"/><path d="M292.714,455.429l-0.155,0.72l-0.235,0.139l-0.156,0.726l-0.227,0.143l-0.193,0.899l-0.232,0.139c-1.202,3.442 -2.808,6.899 -3.691,10.56l-0.232,0.139l-0.465,2.164l-0.228,0.146l-0.699,3.249l-0.235,0.139l-2.024,9.405l0.157,0.226l-0.7,3.252l0.148,0.223l-0.465,2.165l0.153,0.227l-0.388,1.801l0.156,0.228l-0.31,1.444l0.155,0.217c-0.55,3.178 -0.346,6.391 -0.639,9.519l0.158,0.223l-0.156,0.721l0.161,0.221l-0.155,0.72l0.153,0.228l-0.155,0.723l0.149,0.219c-0.158,1.025 0.089,2.002 -0.041,3.023l0.157,0.223l-0.116,0.54l0.154,0.222l-0.117,0.545l0.149,0.219l-0.117,0.545l0.157,0.223l-0.116,0.54l0.154,0.222l-0.078,0.364l0.149,0.216l-0.117,0.545l0.157,0.223l-0.116,0.54l0.161,0.221c-0.057,0.775 0.202,1.518 0.114,2.301l0.144,0.217l-0.078,0.364l0.156,0.226l-0.077,0.356l0.16,0.224l-0.116,0.542l0.147,0.227l-0.076,0.353c0.323,0.612 0.065,1.372 0.385,1.983l-0.038,0.178l0.152,0.22l-0.077,0.358l0.148,0.222l-0.079,0.367l0.16,0.223l-0.077,0.359l0.157,0.223l-0.078,0.362l0.151,0.224l-0.037,0.176l0.156,0.228l-0.077,0.356l0.151,0.225l-0.079,0.364c0.329,0.366 0.133,1.222 0.465,1.613l-0.077,0.359l0.148,0.222l-0.038,0.178l0.158,0.22l-0.079,0.364l0.159,0.229l-0.038,0.178l0.149,0.219l-0.04,0.186l0.156,0.217l-0.079,0.364l0.163,0.225l-0.039,0.18l0.145,0.224l-0.077,0.361c0.499,1.009 0.426,2.19 0.924,3.223l-0.04,0.184l0.155,0.219l-0.038,0.179l0.153,0.225l-0.077,0.361l0.156,0.226l-0.038,0.178c0.101,0.139 0.511,1.481 0.459,1.61c0.282,0.444 0.216,0.986 0.5,1.434c-0.03,0.472 0.344,0.917 0.31,1.391c0.658,1.296 0.607,2.184 1.269,3.489l-0.039,0.178l0.154,0.225l-0.039,0.184l0.155,0.217l-0.039,0.181l0.312,0.442l-0.04,0.187l0.148,0.223l-0.038,0.176l0.314,0.449l-0.039,0.18l0.152,0.219l-0.039,0.181l0.156,0.229l-0.037,0.175c0.29,0.581 0.539,1.205 0.782,1.835" style="fill:none;stroke:#231f20;stroke-width:1.25px;"/></g><g><path d="M449.093,284.871l0.395,-0.29l0.182,0.034l0.435,-0.329l0.182,0.034l0.657,-0.477l0.176,0.033l0.658,-0.483l0.182,0.034l0.652,-0.478l0.184,0.035l0.657,-0.477l0.182,0.034l0.87,-0.644l0.19,0.036l0.865,-0.643l0.179,0.034l1.315,-0.96l0.179,0.034l1.964,-1.441l0.179,0.033l5.242,-3.849l0.035,-0.188l1.962,-1.433l0.038,-0.2l1.304,-0.962l0.037,-0.197l0.878,-0.637l0.036,-0.194l0.876,-0.643l0.037,-0.197l0.652,-0.478l0.036,-0.191l0.652,-0.481l0.036,-0.195l0.657,-0.477l0.037,-0.197l0.653,-0.484l0.035,-0.188l0.438,-0.326l0.035,-0.192l0.441,-0.325l0.034,-0.186l0.657,-0.477l0.038,-0.2l0.43,-0.318l0.038,-0.2l0.44,-0.311l0.038,-0.2l0.218,-0.163l0.035,-0.186l0.438,-0.326l0.037,-0.197l0.434,-0.32l0.036,-0.192l0.217,-0.157l0.037,-0.197l0.437,-0.321l0.036,-0.194l0.216,-0.163l0.036,-0.189l0.438,-0.329l0.034,-0.183l0.222,-0.165l0.037,-0.197l0.22,-0.154l0.036,-0.194l0.431,-0.322l0.037,-0.197l0.222,-0.162l0.035,-0.186l0.216,-0.163l0.037,-0.197l0.215,-0.161l0.037,-0.194l0.221,-0.163l0.036,-0.188l0.44,-0.326l0.035,-0.186l0.222,-0.165l0.036,-0.194l0.214,-0.164l0.035,-0.189l0.217,-0.166l0.035,-0.192c0.49,-0.339 0.622,-1.025 1.026,-1.41l0.038,-0.203l0.215,-0.155l0.036,-0.194l0.214,-0.167l0.036,-0.191l0.223,-0.154l0.037,-0.2l0.223,-0.156l0.037,-0.197l0.214,-0.164l0.072,-0.386l0.218,-0.16l0.036,-0.191l0.219,-0.166l0.037,-0.194l0.214,-0.152l0.074,-0.395l0.214,-0.155l0.037,-0.197l0.221,-0.159l0.074,-0.392l0.22,-0.157l0.037,-0.197l0.218,-0.157l0.074,-0.394l0.215,-0.158l0.036,-0.194l0.221,-0.16l0.072,-0.386l0.213,-0.161l0.074,-0.391l0.218,-0.163l0.036,-0.191l0.221,-0.157l0.073,-0.389l0.218,-0.163l0.072,-0.383l0.224,-0.162l0.073,-0.388l0.215,-0.158l0.073,-0.388l0.214,-0.164c0.264,-0.776 0.764,-1.419 0.983,-2.232l0.226,-0.156l0.109,-0.58l0.216,-0.166l0.073,-0.386l0.216,-0.166l0.109,-0.58l0.22,-0.157l0.109,-0.58l0.216,-0.163l0.11,-0.583l0.218,-0.16l0.11,-0.586l0.217,-0.154l0.11,-0.586l0.221,-0.162l0.146,-0.777l0.217,-0.152l0.147,-0.783l0.213,-0.161l0.146,-0.78l0.224,-0.159l0.144,-0.771l0.217,-0.17l0.181,-0.962l0.219,-0.166l0.219,-1.166l0.219,-0.148l0.219,-1.168l0.219,-0.163l0.293,-1.563l0.213,-0.158l0.326,-1.74l0.219,-0.163l0.547,-2.914l0.221,-0.162l1.458,-7.771l-0.148,-0.229l0.548,-2.916l-0.147,-0.223l0.328,-1.746l-0.14,-0.23l0.291,-1.548l-0.144,-0.234l0.219,-1.166l-0.149,-0.226l0.17,-0.906" style="fill:none;stroke:#231f20;stroke-width:1.25px;"/><path d="M498.083,208.105c-0.054,2.153 0.17,4.333 0.12,6.381l0.141,0.237l-0.072,0.383l0.15,0.232l-0.109,0.58l0.145,0.231l-0.073,0.389l0.143,0.227l-0.073,0.389l0.145,0.231l-0.109,0.58l0.145,0.229l-0.072,0.385l0.144,0.234l-0.072,0.386l0.141,0.234l-0.071,0.379l0.144,0.235l-0.072,0.385l0.149,0.235l-0.034,0.183l0.142,0.234l-0.072,0.38l0.143,0.239l-0.071,0.38l0.147,0.235l-0.072,0.383l0.14,0.23l-0.037,0.197l0.148,0.229l-0.073,0.386l0.148,0.229l-0.036,0.194l0.142,0.231l-0.072,0.382c0.371,0.62 0.241,1.649 0.541,2.116l-0.037,0.197l0.148,0.229l-0.073,0.391l0.154,0.224l-0.036,0.195l0.139,0.23l-0.035,0.188l0.142,0.231l-0.037,0.197l0.148,0.226l-0.037,0.197l0.14,0.231l-0.035,0.185l0.147,0.232l-0.037,0.197l0.146,0.226l-0.037,0.197c0.305,0.604 0.283,1.313 0.584,1.919l-0.036,0.192l0.143,0.225l-0.037,0.197l0.145,0.231l-0.037,0.197l0.149,0.22l-0.037,0.198l0.14,0.23l-0.036,0.191l0.289,0.465l-0.034,0.183l0.147,0.235l-0.037,0.197c0.192,0.418 0.326,0.869 0.506,1.296l-0.036,0.191l0.29,0.463l-0.035,0.185l0.147,0.238l-0.036,0.191l0.29,0.457l-0.036,0.191l0.148,0.229l-0.036,0.194l0.285,0.459l-0.037,0.194l0.294,0.455l-0.036,0.194l0.286,0.465l-0.035,0.185l0.292,0.463l-0.036,0.195c0.59,1.178 1.054,2.584 1.744,3.743l-0.036,0.191l0.434,0.682l-0.038,0.2l0.441,0.689l-0.035,0.188l0.572,0.915l-0.036,0.192l0.729,1.145l-0.036,0.191c3.191,5.736 6.322,10.402 10.318,15.212l0.179,0.034l0.442,0.683l0.184,0.035l0.433,0.687l0.179,0.034l0.439,0.682l0.179,0.034l0.291,0.457l0.179,0.033c0.659,0.914 1.528,1.506 2.183,2.421l0.185,0.035l0.141,0.233l0.179,0.034l0.292,0.448l0.185,0.035l0.147,0.234l0.179,0.034l0.294,0.454c0.374,0.044 1.136,1.198 1.633,1.312c0.392,0.71 1.143,0.91 1.595,1.512l0.182,0.034l0.152,0.221l0.176,0.033l0.148,0.232l0.179,0.034l0.147,0.234l0.179,0.034l0.152,0.221l0.179,0.033l0.146,0.229l0.179,0.033l0.144,0.234l0.19,0.036l0.14,0.224l0.182,0.034l0.148,0.229l0.177,0.033l0.144,0.235l0.184,0.034l0.15,0.22l0.182,0.035l0.144,0.231l0.179,0.033l0.143,0.231l0.363,0.068l0.15,0.221l0.182,0.034l0.143,0.237l0.179,0.033l0.152,0.227l0.36,0.068l0.149,0.226l0.176,0.033l0.145,0.231l0.185,0.035c0.447,0.489 1.415,0.806 1.822,1.347c1.322,0.508 3.023,2.043 4.427,2.44l0.146,0.225l0.366,0.069l0.139,0.23l0.366,0.069l0.146,0.228l0.548,0.103l0.144,0.222l0.363,0.068l0.145,0.232" style="fill:none;stroke:#231f20;stroke-width:1.25px;"/><path d="M542.666,284.365l-0.725,-0.136l-0.144,-0.232l-0.73,-0.136l-0.149,-0.224l-0.904,-0.169l-0.145,-0.229c-3.472,-1.11 -6.971,-2.624 -10.654,-3.41l-0.145,-0.228l-2.176,-0.408l-0.152,-0.224l-3.266,-0.613l-0.145,-0.231l-9.455,-1.775l-0.221,0.163l-3.27,-0.614l-0.22,0.154l-2.176,-0.408l-0.223,0.159l-1.81,-0.34l-0.224,0.162l-1.452,-0.272l-0.212,0.161c-3.192,-0.466 -6.398,-0.177 -9.533,-0.387l-0.219,0.163l-0.724,-0.136l-0.217,0.166l-0.724,-0.136l-0.224,0.16l-0.727,-0.137l-0.215,0.155c-1.029,-0.131 -1.999,0.142 -3.023,0.039l-0.219,0.163l-0.543,-0.102l-0.218,0.16l-0.548,-0.103l-0.214,0.155l-0.548,-0.103l-0.219,0.163l-0.543,-0.101l-0.218,0.16l-0.366,-0.069l-0.212,0.155l-0.548,-0.102l-0.219,0.163l-0.543,-0.102l-0.216,0.166c-0.776,-0.036 -1.512,0.243 -2.297,0.175l-0.213,0.15l-0.366,-0.069l-0.222,0.162l-0.358,-0.067l-0.219,0.166l-0.546,-0.102l-0.222,0.153l-0.356,-0.067c-0.603,0.34 -1.369,0.101 -1.972,0.438l-0.179,-0.034l-0.215,0.158l-0.361,-0.068l-0.217,0.155l-0.369,-0.07l-0.219,0.166l-0.361,-0.068l-0.219,0.163l-0.363,-0.068l-0.221,0.157l-0.176,-0.033l-0.224,0.162l-0.358,-0.067l-0.221,0.157l-0.366,-0.069c-0.357,0.338 -1.218,0.165 -1.601,0.507l-0.361,-0.068l-0.217,0.154l-0.179,-0.033l-0.216,0.163l-0.366,-0.068l-0.225,0.164l-0.179,-0.033l-0.214,0.155l-0.187,-0.035l-0.213,0.161l-0.367,-0.069l-0.219,0.169l-0.182,-0.034l-0.22,0.151l-0.363,-0.068c-0.995,0.526 -2.178,0.484 -3.197,1.008l-0.185,-0.034l-0.215,0.16l-0.18,-0.033l-0.22,0.159l-0.364,-0.068l-0.221,0.163l-0.18,-0.034c-0.135,0.105 -1.467,0.55 -1.596,0.502c-0.437,0.293 -0.981,0.242 -1.421,0.538c-0.473,-0.018 -0.908,0.368 -1.383,0.346c-1.278,0.692 -2.167,0.664 -3.454,1.36l-0.179,-0.033l-0.221,0.159l-0.184,-0.034l-0.213,0.161l-0.182,-0.034l-0.434,0.323l-0.187,-0.035l-0.22,0.154l-0.177,-0.033l-0.44,0.326l-0.182,-0.035l-0.215,0.158l-0.181,-0.034l-0.225,0.162l-0.176,-0.033c-0.574,0.306 -1.19,0.571 -1.814,0.831" style="fill:none;stroke:#231f20;stroke-width:1.25px;"/></g><g><path d="M545.545,978.508l-0,-83.458l32.26,-18.531" style="fill:none;fill-rule:nonzero;stroke:#ff2020;stroke-width:0.9px;stroke-linecap:butt;stroke-linejoin:miter;stroke-miterlimit:2.613;"/><g><path d="M588.058,859.101l-16.135,9.038l10.637,18.688l5.498,-27.726" style="fill:#ff2020;"/><path d="M503.831,859.101l5.503,27.718l10.639,-18.688l-16.142,-9.03" style="fill:#ff2020;"/><path d="M545.734,858.49l-7.583,26.209l15.174,0l-7.591,-26.209" style="fill:#ff2020;"/></g><path d="M545.956,978.508l-0,-83.458l-31.872,-18.531" style="fill:none;fill-rule:nonzero;stroke:#ff2020;stroke-width:0.9px;stroke-linecap:butt;stroke-linejoin:miter;stroke-miterlimit:2.613;"/><path d="M545.734,978.508l0,-95.181" style="fill:none;fill-rule:nonzero;stroke:#ff2020;stroke-width:0.9px;stroke-linecap:butt;stroke-linejoin:miter;stroke-miterlimit:2.613;"/></g><g><path d="M991.634,500.279l-83.409,-2.885l-17.404,-32.881" style="fill:none;fill-rule:nonzero;stroke:#ff2020;stroke-width:0.9px;stroke-linecap:butt;stroke-linejoin:miter;stroke-miterlimit:2.613;"/><g><path d="M873.768,453.664l8.475,16.437l19.044,-9.984l-27.519,-6.453" style="fill:#ff2020;"/><path d="M870.857,537.841l27.891,-4.542l-18.309,-11.279l-9.582,15.821" style="fill:#ff2020;"/><path d="M871.694,495.941l25.932,8.484l0.524,-15.164l-26.456,6.68" style="fill:#ff2020;"/></g><path d="M991.648,499.868l-83.408,-2.884l-19.621,31.211" style="fill:none;fill-rule:nonzero;stroke:#ff2020;stroke-width:0.9px;stroke-linecap:butt;stroke-linejoin:miter;stroke-miterlimit:2.613;"/><path d="M991.64,500.089l-95.123,-3.289" style="fill:none;fill-rule:nonzero;stroke:#ff2020;stroke-width:0.9px;stroke-linecap:butt;stroke-linejoin:miter;stroke-miterlimit:2.613;"/></g><g><path d="M25.16,530.236l83.442,1.646l17.891,32.619" style="fill:none;fill-rule:nonzero;stroke:#ff2020;stroke-width:0.9px;stroke-linecap:butt;stroke-linejoin:miter;stroke-miterlimit:2.613;"/><g><path d="M143.705,575.096l-8.718,-16.31l-18.894,10.266l27.612,6.044" style="fill:#ff2020;"/><path d="M145.366,490.885l-27.82,4.955l18.474,11.006l9.346,-15.961" style="fill:#ff2020;"/><path d="M145.151,532.793l-26.055,-8.099l-0.299,15.171l26.354,-7.072" style="fill:#ff2020;"/></g><path d="M25.152,530.647l83.442,1.646l19.156,-31.5" style="fill:none;fill-rule:nonzero;stroke:#ff2020;stroke-width:0.9px;stroke-linecap:butt;stroke-linejoin:miter;stroke-miterlimit:2.613;"/><path d="M25.157,530.426l95.161,1.877" style="fill:none;fill-rule:nonzero;stroke:#ff2020;stroke-width:0.9px;stroke-linecap:butt;stroke-linejoin:miter;stroke-miterlimit:2.613;"/></g></g></svg>