<?xml version="1.0" encoding="UTF-8" standalone="no"?><!DOCTYPE svg PUBLIC "-//W3C//DTD SVG 1.1//EN" "http://www.w3.org/Graphics/SVG/1.1/DTD/svg11.dtd"><svg width="100%" height="100%" viewBox="0 0 283334 283334" version="1.1" xmlns="http://www.w3.org/2000/svg" xmlns:xlink="http://www.w3.org/1999/xlink" xml:space="preserve" xmlns:serif="http://www.serif.com/" style="fill-rule:evenodd;clip-rule:evenodd;"><g><g><text x="128227px" y="274771px" style="font-family:'Helvetica';font-size:11302.8px;fill:#ff1f20;">Arm 2</text><text x="138250px" y="11533px" style="font-family:'Helvetica';font-size:11302.8px;fill:#ff1f20;">Arm 4</text><text x="249540px" y="143028px" style="font-family:'Helvetica';font-size:11302.8px;fill:#ff1f20;">Arm 3</text><path d="M154137,212270c-1570.96,0 -2845.62,1274.67 -2845.62,2847.15c0,1572.12 1274.67,2846.79 2845.62,2846.79c1572.41,-0 2847.08,-1274.67 2847.08,-2846.79c-0,-1572.48 -1274.67,-2847.15 -2847.08,-2847.15" style="fill:#231f20;fill-rule:nonzero;"/><path d="M146268,186582c-1571.18,0 -2847.07,1273.44 -2847.07,2845.57c0,1571.25 1275.89,2847.14 2847.07,2847.14c1572.48,-0 2847.15,-1275.89 2847.15,-2847.14c-0,-1572.13 -1274.67,-2845.57 -2847.15,-2845.57" style="fill:#231f20;fill-rule:nonzero;"/><path d="M87074.6,134044c-1572.41,0 -2847.08,1271.04 -2847.08,2844.69c0,1573.64 1274.6,2847.08 2847.08,2847.08c1571.25,-0 2843.16,-1273.44 2843.16,-2847.08c-0,-1573.63 -1271.91,-2844.69 -2843.16,-2844.69" style="fill:#231f20;fill-rule:nonzero;"/><path d="M66183.3,148639c-1572.48,0 -2845.92,1273.44 -2845.92,2847.07c0,1569.74 1273.44,2847.08 2845.92,2847.08c1572.12,0 2845.55,-1277.34 2845.55,-2847.08c-0,-1573.63 -1273.44,-2847.07 -2845.55,-2847.07" style="fill:#231f20;fill-rule:nonzero;"/><path d="M146270,85644.6c-1573.65,0 -2847.08,1269.53 -2847.08,2845.92c0,1570.89 1273.44,2843.18 2847.08,2843.18c1570.95,0 2844.39,-1272.29 2844.39,-2843.18c0,-1576.39 -1273.44,-2845.92 -2844.39,-2845.92" style="fill:#231f20;fill-rule:nonzero;"/><path d="M139516,62333.8c-1571.25,0 -2847.08,1274.67 -2847.08,2844.69c-0,1573.35 1275.83,2846.79 2847.08,2846.79c1572.48,0 2845.92,-1273.44 2845.92,-2846.79c-0,-1570.02 -1273.44,-2844.69 -2845.92,-2844.69" style="fill:#231f20;fill-rule:nonzero;"/><path d="M196932,134044c-1571.18,0 -2844.69,1273.44 -2844.69,2848.31c0,1568.49 1273.51,2844.39 2844.69,2844.39c1572.19,0 2849.53,-1275.9 2849.53,-2844.39c-0,-1574.88 -1277.34,-2848.31 -2849.53,-2848.31" style="fill:#231f20;fill-rule:nonzero;"/><path d="M222805,125014c-1573.35,-0 -2846.86,1274.67 -2846.86,2848.32c-0,1569.72 1273.51,2845.62 2846.86,2845.62c1570.02,0 2843.45,-1275.9 2843.45,-2845.62c0,-1573.64 -1273.44,-2848.32 -2843.45,-2848.32" style="fill:#231f20;fill-rule:nonzero;"/><path d="M65637.9,176301l162.241,-22746.2" style="fill:none;fill-rule:nonzero;stroke:#231f20;stroke-width:397.21px;"/><path d="M103911,137053l-14611.2,-423.317" style="fill:none;fill-rule:nonzero;stroke:#231f20;stroke-width:433.33px;"/><path d="M146405,173938l-350.033,14749.3" style="fill:none;fill-rule:nonzero;stroke:#231f20;stroke-width:434.71px;"/><path d="M176880,224118l-20896.2,-8825.83" style="fill:none;fill-rule:nonzero;stroke:#231f20;stroke-width:376.92px;"/><path d="M146268,90300.8l-0,15710.5" style="fill:none;fill-rule:nonzero;stroke:#231f20;stroke-width:443.42px;"/><path d="M115018,60167.1l22552.6,4354.88" style="fill:none;fill-rule:nonzero;stroke:#231f20;stroke-width:385.58px;"/><path d="M177466,136986l17920,0.434" style="fill:none;fill-rule:nonzero;stroke:#231f20;stroke-width:376.92px;"/><path d="M223268,126146l2609.52,-18531.6" style="fill:none;fill-rule:nonzero;stroke:#231f20;stroke-width:376.92px;"/><path d="M36319.2,159618l11446,0l-5721.67,4173.33l-5724.38,-4173.33Z" style="fill:#231f20;fill-rule:nonzero;stroke:#231f20;stroke-width:376.92px;stroke-linecap:round;stroke-linejoin:round;"/><path d="M47765.4,121234l-11446.1,-0l5720.5,-4175.71l5725.5,4175.71l0.071,-0Z" style="fill:#231f20;fill-rule:nonzero;stroke:#231f20;stroke-width:376.92px;stroke-linecap:round;stroke-linejoin:round;"/><path d="M256954,119683l-11446,0.088l5720.42,-4175.79l5725.54,4175.79l-0,-0.088Z" style="fill:#231f20;fill-rule:nonzero;stroke:#231f20;stroke-width:376.92px;stroke-linecap:round;stroke-linejoin:round;"/><path d="M42042.5,159618l-0.017,-39392.9" style="fill:none;fill-rule:nonzero;stroke:#231f20;stroke-width:376.92px;"/><path d="M245512,159385l11446,0.067l-5721.67,4173.25l-5724.33,-4173.25l0,-0.067l0.042,0Z" style="fill:#231f20;fill-rule:nonzero;stroke:#231f20;stroke-width:376.92px;stroke-linecap:round;stroke-linejoin:round;"/><path d="M251234,159385l0,-39392.9" style="fill:none;fill-rule:nonzero;stroke:#231f20;stroke-width:376.92px;"/><path d="M167032,246345l0,-11446l4173.33,5724.33l-4173.33,5721.62Z" style="fill:#231f20;fill-rule:nonzero;stroke:#231f20;stroke-width:376.92px;stroke-linecap:round;stroke-linejoin:round;"/><path d="M126083,234662l-0,11446l-4174.5,-5720.42l4174.5,-5725.54l-0,-0.017Z" style="fill:#231f20;fill-rule:nonzero;stroke:#231f20;stroke-width:376.92px;stroke-linecap:round;stroke-linejoin:round;"/><path d="M166695,240386l-43429.2,0" style="fill:none;fill-rule:nonzero;stroke:#231f20;stroke-width:376.92px;stroke-linecap:round;stroke-linejoin:round;"/><path d="M172824,43861.7l-0,-11448.6l4175.71,5723.17l-4175.71,5725.46Z" style="fill:#231f20;fill-rule:nonzero;stroke:#231f20;stroke-width:376.92px;stroke-linecap:round;stroke-linejoin:round;"/><path d="M132093,32498.8l-0,11448.7l-4174.5,-5723.17l4174.5,-5725.54Z" style="fill:#231f20;fill-rule:nonzero;stroke:#231f20;stroke-width:376.92px;stroke-linecap:round;stroke-linejoin:round;"/><path d="M173251,38222.9l-43975.4,-0" style="fill:none;fill-rule:nonzero;stroke:#231f20;stroke-width:376.92px;stroke-linecap:round;stroke-linejoin:round;"/><g><text x="216709px" y="99715.4px" style="font-family:'Helvetica';font-size:11302.8px;fill:#231f20;">Q</text><g><text x="226123px" y="100972px" style="font-family:'Helvetica';font-size:7911.96px;fill:#231f20;">E</text><text x="231837px" y="100972px" style="font-family:'Helvetica';font-size:7911.96px;fill:#231f20;">3</text></g></g><g><text x="104281px" y="140426px" style="font-family:'Helvetica';font-size:11302.8px;fill:#231f20;">Q</text><g><text x="113957px" y="141682px" style="font-family:'Helvetica';font-size:7911.96px;fill:#231f20;">K</text><text x="119852px" y="141682px" style="font-family:'Helvetica';font-size:7911.96px;fill:#231f20;">1</text></g></g><g><text x="136225px" y="166541px" style="font-family:'Helvetica';font-size:11302.8px;fill:#231f20;">Q</text><g><text x="145901px" y="167797px" style="font-family:'Helvetica';font-size:7911.96px;fill:#231f20;">K</text><text x="151798px" y="167797px" style="font-family:'Helvetica';font-size:7911.96px;fill:#231f20;">2</text></g></g><g><g><text x="240732px" y="175310px" style="font-family:'Helvetica';font-size:11302.8px;fill:#231f20;">F</text><text x="247949px" y="175310px" style="font-family:'Helvetica';font-size:11302.8px;fill:#231f20;">G</text></g><text x="257053px" y="176565px" style="font-family:'Helvetica';font-size:7911.96px;fill:#231f20;">3</text></g><g><text x="178339px" y="227945px" style="font-family:'Helvetica';font-size:11302.8px;fill:#231f20;">Q</text><g><text x="187754px" y="229202px" style="font-family:'Helvetica';font-size:7911.96px;fill:#231f20;">E</text><text x="193468px" y="229202px" style="font-family:'Helvetica';font-size:7911.96px;fill:#231f20;">2</text></g></g><g><g><text x="98694.2px" y="243124px" style="font-family:'Helvetica';font-size:11302.8px;fill:#231f20;">F</text><text x="105911px" y="243124px" style="font-family:'Helvetica';font-size:11302.8px;fill:#231f20;">G</text></g><text x="115016px" y="244380px" style="font-family:'Helvetica';font-size:7911.96px;fill:#231f20;">2</text></g><g><text x="54263.8px" y="191978px" style="font-family:'Helvetica';font-size:11302.8px;fill:#231f20;">Q</text><g><text x="63678.8px" y="193234px" style="font-family:'Helvetica';font-size:7911.96px;fill:#231f20;">E</text><text x="69391.7px" y="193234px" style="font-family:'Helvetica';font-size:7911.96px;fill:#231f20;">1</text></g></g><g><g><text x="32142.8px" y="114208px" style="font-family:'Helvetica';font-size:11302.8px;fill:#231f20;">F</text><text x="39359.6px" y="114208px" style="font-family:'Helvetica';font-size:11302.8px;fill:#231f20;">G</text></g><text x="48463.8px" y="115465px" style="font-family:'Helvetica';font-size:7911.96px;fill:#231f20;">1</text></g><text x="7079.79px" y="145128px" style="font-family:'Helvetica';font-size:11302.8px;fill:#ff1f20;">Arm 1</text><path d="M100191,138450c0,-23963.5 19455.3,-43418.8 43418.8,-43418.8c23963.5,0 43418.8,19455.3 43418.8,43418.8c0,23963.5 -19455.3,43418.8 -43418.8,43418.8c-23963.5,0 -43418.8,-19455.3 -43418.8,-43418.8Z" style="fill:none;stroke:#231f20;stroke-width:376.92px;stroke-linecap:round;stroke-linejoin:round;stroke-miterlimit:1.5;"/><path d="M219308,157155c-6900.46,27809.2 -29267,49539.6 -57426.2,55519.2l787.9,39146.9l-35203.3,708.904l-820.746,-40776.4c-25919.6,-6950.17 -46342.5,-27393.2 -53263.3,-53324.2l-44060.4,0l-0,-35210.4l43173.8,-0c6417.83,-30109.4 30847,-53585 61452.1,-58591.2l1286.09,-40255.8l35192.4,1124.57l-1332.19,41695c25093,8013.21 44488.8,28830.2 50488.8,54753.3l38313.2,-0l-0,35210.4l-38588.2,0l0.125,-0.141l0.15,-0.163Z" style="fill:none;stroke:#231f20;stroke-width:376.92px;stroke-linecap:round;stroke-linejoin:round;stroke-miterlimit:1.5;"/><g><text x="156290px" y="140400px" style="font-family:'Helvetica';font-size:11302.8px;fill:#231f20;">Q</text><g><text x="165965px" y="141655px" style="font-family:'Helvetica';font-size:7911.96px;fill:#231f20;">K</text><text x="171860px" y="141655px" style="font-family:'Helvetica';font-size:7911.96px;fill:#231f20;">3</text></g></g><g><text x="136194px" y="119519px" style="font-family:'Helvetica';font-size:11302.8px;fill:#231f20;">Q</text><g><text x="145868px" y="120776px" style="font-family:'Helvetica';font-size:7911.96px;fill:#231f20;">K</text><text x="151763px" y="120776px" style="font-family:'Helvetica';font-size:7911.96px;fill:#231f20;">4</text></g></g><text x="95157.9px" y="61839.6px" style="font-family:'Helvetica';font-size:11302.8px;fill:#231f20;">Q</text><g><text x="104573px" y="63095.4px" style="font-family:'Helvetica';font-size:7911.96px;fill:#231f20;">E</text><text x="110286px" y="63095.4px" style="font-family:'Helvetica';font-size:7911.96px;fill:#231f20;">1</text></g><g><g><text x="105804px" y="41885px" style="font-family:'Helvetica';font-size:11302.8px;fill:#231f20;">F</text><text x="113021px" y="41885px" style="font-family:'Helvetica';font-size:11302.8px;fill:#231f20;">G</text></g><text x="122125px" y="43140.4px" style="font-family:'Helvetica';font-size:7911.96px;fill:#231f20;">4</text></g></g></g></svg>