<?xml version="1.0" encoding="UTF-8" standalone="no"?><!DOCTYPE svg PUBLIC "-//W3C//DTD SVG 1.1//EN" "http://www.w3.org/Graphics/SVG/1.1/DTD/svg11.dtd"><svg width="100%" height="100%" viewBox="0 0 17363 17363" version="1.1" xmlns="http://www.w3.org/2000/svg" xmlns:xlink="http://www.w3.org/1999/xlink" xml:space="preserve" xmlns:serif="http://www.serif.com/" style="fill-rule:evenodd;clip-rule:evenodd;stroke-miterlimit:2.613;"><g><path d="M1258.54,8594.42l14878.3,-0" style="fill:none;fill-rule:nonzero;stroke:#1b1b1b;stroke-width:104.17px;stroke-dasharray:1041.67,1041.67;"/><path d="M14258.4,7212.96l-1421.44,0l-315.625,-946.479" style="fill:none;fill-rule:nonzero;stroke:#ff2020;stroke-width:15.63px;"/><path d="M12224.8,5964.83l153.871,474.755l318.279,-313.005l-472.15,-161.75" style="fill:#ff2020;"/><path d="M14258.4,7213.88l-1421.44,0l-315.625,927.275" style="fill:none;fill-rule:nonzero;stroke:#ff2020;stroke-width:15.63px;"/><path d="M12224.8,8442.79l472.083,-161.825l-318.3,-313.004l-153.783,474.829" style="fill:#ff2020;"/><path d="M14258.4,7210l-1621.03,0" style="fill:none;fill-rule:nonzero;stroke:#ff2020;stroke-width:15.63px;"/><path d="M12214.3,7210l446.405,223.092l-0.001,-446.338l-446.404,223.246" style="fill:#ff2020;"/><path d="M3675.57,10149.4l1421.51,-0l315.538,956.2" style="fill:none;fill-rule:nonzero;stroke:#ff2020;stroke-width:15.63px;"/><path d="M5709.25,11407.2l-153.854,-474.758l-318.283,313.021l472.137,161.737" style="fill:#f00;"/><path d="M3675.57,10152.8l1421.51,-0l315.538,-921.825" style="fill:none;fill-rule:nonzero;stroke:#ff2020;stroke-width:15.63px;"/><path d="M5709.25,8929.33l-472.067,161.821l318.284,313.004l153.783,-474.825" style="fill:#ff2020;"/><path d="M3675.57,10162.1l1621.1,0" style="fill:none;fill-rule:nonzero;stroke:#ff2020;stroke-width:15.63px;"/><path d="M5719.67,10162.1l-446.388,-223.158l0,446.404l446.388,-223.246" style="fill:#ff2020;"/><path d="M7137.92,2921.08l-0,1421.44l-941.321,315.608" style="fill:none;fill-rule:nonzero;stroke:#ff2020;stroke-width:15.63px;"/><path d="M5894.96,4954.79l474.755,-153.942l-313.005,-318.279l-161.75,472.221" style="fill:#ff2020;"/><path d="M7144.46,2921.08l0,1421.44l926.788,315.608" style="fill:none;fill-rule:nonzero;stroke:#ff2020;stroke-width:15.63px;"/><path d="M8372.92,4954.79l-161.809,-472.084l-313.02,318.284l474.829,153.8" style="fill:#ff2020;"/><path d="M7140.12,2921.08l0,1621.03" style="fill:none;fill-rule:nonzero;stroke:#ff2020;stroke-width:15.63px;"/><path d="M7140.12,4965.21l223.092,-446.404l-446.321,0l223.229,446.404" style="fill:#ff2020;"/><path d="M10307.2,14338.8l0,-1421.44l949.079,-315.625" style="fill:none;fill-rule:nonzero;stroke:#ff2020;stroke-width:15.63px;"/><path d="M11558,12305.1l-474.687,153.942l312.933,318.283l161.754,-472.225" style="fill:#ff2020;"/><path d="M10319.3,14338.8l-0,-1421.44l-937.638,-315.625" style="fill:none;fill-rule:nonzero;stroke:#ff2020;stroke-width:15.63px;"/><path d="M9080,12305.1l161.892,472.083l313.004,-318.295l-474.896,-153.788" style="fill:#ff2020;"/><path d="M10312.8,14338.8l-0,-1621.1" style="fill:none;fill-rule:nonzero;stroke:#ff2020;stroke-width:15.63px;"/><path d="M10312.8,12294.7l-223.092,446.392l446.388,0l-223.296,-446.392" style="fill:#ff2020;"/><text x="13931.5px" y="6422.75px" style="font-family:'ArialMT', 'Arial', sans-serif;font-size:650.971px;fill:#ff2020;stroke:#ff2020;stroke-width:15.63px;">9</text><text x="3650.08px" y="9396.38px" style="font-family:'ArialMT', 'Arial', sans-serif;font-size:650.971px;fill:#ff2020;stroke:#ff2020;stroke-width:15.63px;">1</text><text x="14512.2px" y="7451.92px" style="font-family:'ArialMT', 'Arial', sans-serif;font-size:650.971px;fill:#ff2020;stroke:#ff2020;stroke-width:15.63px;">8</text><text x="3154.04px" y="10372.8px" style="font-family:'ArialMT', 'Arial', sans-serif;font-size:650.971px;fill:#ff2020;stroke:#ff2020;stroke-width:15.63px;">2</text><text x="5677.17px" y="3486.05px" style="font-family:'ArialMT', 'Arial', sans-serif;font-size:650.971px;fill:#1b1b1b;">12</text><text x="5677.17px" y="3486.05px" style="font-family:'ArialMT', 'Arial', sans-serif;font-size:650.971px;fill:#ff2020;stroke:#ff2020;stroke-width:15.63px;">12</text><text x="5677.17px" y="3486.05px" style="font-family:'ArialMT', 'Arial', sans-serif;font-size:650.971px;fill:#ff2020;stroke:#ff2020;stroke-width:15.63px;">12</text><text x="7874.83px" y="3486.05px" style="font-family:'ArialMT', 'Arial', sans-serif;font-size:650.971px;fill:#1b1b1b;">10</text><text x="7874.83px" y="3486.05px" style="font-family:'ArialMT', 'Arial', sans-serif;font-size:650.971px;fill:#ff2020;stroke:#ff2020;stroke-width:15.63px;">10</text><g><text x="6793.58px" y="2874.14px" style="font-family:'ArialMT', 'Arial', sans-serif;font-size:650.971px;fill:#ff2020;stroke:#ff2020;stroke-width:15.63px;">1</text><text x="7107.29px" y="2874.14px" style="font-family:'ArialMT', 'Arial', sans-serif;font-size:650.971px;fill:#ff2020;stroke:#ff2020;stroke-width:15.63px;">1</text></g><text x="9128.08px" y="14340.7px" style="font-family:'ArialMT', 'Arial', sans-serif;font-size:650.971px;fill:#ff2020;stroke:#ff2020;stroke-width:15.63px;">4</text><g><text x="11083px" y="14332.2px" style="font-family:'ArialMT', 'Arial', sans-serif;font-size:650.971px;fill:#ff2020;stroke:#ff2020;stroke-width:15.63px;">6</text><text x="10141.7px" y="15167.6px" style="font-family:'ArialMT', 'Arial', sans-serif;font-size:650.971px;fill:#ff2020;stroke:#ff2020;stroke-width:15.63px;">5</text></g><text x="13932.9px" y="8457.83px" style="font-family:'ArialMT', 'Arial', sans-serif;font-size:650.971px;fill:#ff2020;stroke:#ff2020;stroke-width:15.63px;">7</text><text x="3650.2px" y="11432.1px" style="font-family:'ArialMT', 'Arial', sans-serif;font-size:650.971px;fill:#ff2020;stroke:#ff2020;stroke-width:15.63px;">3</text><path d="M1244.35,5642.58l3261.08,0c599.533,0 1088.54,-488.996 1088.54,-1088.54l-0,-3418.18m10479.4,4506.71l-3261.06,-0c-599.55,-0 -1088.54,-488.996 -1088.54,-1088.54l-0,-3418.18" style="fill:none;fill-rule:nonzero;stroke:#1b1b1b;stroke-width:15.63px;"/><path d="M8668.46,5647.88l0,-2862.42" style="fill:none;fill-rule:nonzero;stroke:#1b1b1b;stroke-width:52.08px;"/><path d="M8668.46,2251.74l0,-1026.18" style="fill:none;fill-rule:nonzero;stroke:#1b1b1b;stroke-width:52.08px;stroke-dasharray:520.83,520.83;"/><path d="M8758.62,5647.88l3759.69,1.213" style="fill:none;fill-rule:nonzero;stroke:#1b1b1b;stroke-width:104.17px;stroke-dasharray:104.17,104.17,104.17,0;"/><path d="M8496.25,5642.88l-557.725,0l274.15,-406.458l283.575,406.458Z" style="fill:#1b1b1b;stroke:#1b1b1b;stroke-width:15.63px;"/><path d="M7634.83,5642.88l-557.725,0l274.167,-406.458l283.558,406.458Z" style="fill:#1b1b1b;stroke:#1b1b1b;stroke-width:15.63px;"/><path d="M6773.42,5642.88l-557.725,0l274.095,-406.458l283.63,406.458Z" style="fill:#1b1b1b;stroke:#1b1b1b;stroke-width:15.63px;"/><path d="M5912.04,5642.88l-557.729,0l274.083,-406.458l283.646,406.458" style="fill:#1b1b1b;"/><path d="M5912.04,5642.88l-557.729,0l274.083,-406.458l283.646,406.458Zm10161.3,6027.33l-3261.06,0c-599.55,0 -1088.54,489.013 -1088.54,1088.61l0,3363.58m-10479.4,-4452.21l3261.08,-0c599.534,-0 1088.54,489.012 1088.54,1088.61l-0,3355.83" style="fill:none;fill-rule:nonzero;stroke:#1b1b1b;stroke-width:15.63px;"/><path d="M8649.17,11665l-0,2862.41" style="fill:none;fill-rule:nonzero;stroke:#1b1b1b;stroke-width:52.08px;"/><path d="M8649.17,15061.1l-0,907.188" style="fill:none;fill-rule:nonzero;stroke:#1b1b1b;stroke-width:52.08px;stroke-dasharray:520.83,520.83;"/><path d="M8559.08,11665l-3759.69,-1.3" style="fill:none;fill-rule:nonzero;stroke:#1b1b1b;stroke-width:104.17px;stroke-dasharray:104.17,104.17,104.17,0;"/><path d="M8821.46,11670l557.725,0l-274.166,406.458l-283.559,-406.458Z" style="fill:#1b1b1b;stroke:#1b1b1b;stroke-width:15.63px;"/><path d="M9682.88,11670l557.725,0l-274.167,406.458l-283.558,-406.458Z" style="fill:#1b1b1b;stroke:#1b1b1b;stroke-width:15.63px;"/><path d="M10544.2,11670l557.725,0l-274.079,406.458l-283.646,-406.458Z" style="fill:#1b1b1b;stroke:#1b1b1b;stroke-width:15.63px;"/><path d="M11405.7,11670l557.729,0l-274.1,406.458l-283.629,-406.458" style="fill:#1b1b1b;"/><path d="M15005.3,4461.88l709.929,0m17.067,118.992l-0,-237.917" style="fill:none;fill-rule:nonzero;stroke:#000;stroke-width:95.67px;stroke-miterlimit:4;"/><path d="M4187.38,2331.03l0,-709.792m118.921,-17.066l-237.917,-0" style="fill:none;fill-rule:nonzero;stroke:#000;stroke-width:95.67px;stroke-miterlimit:4;"/><g id="g12"><path id="path14" d="M13127.1,15007.5l796.474,-1379.18c27.537,-47.79 -6.9,-107.416 -62.006,-107.48l-1592.67,-0.07c-55.108,-0.049 -89.554,59.569 -61.974,107.315l796.123,1379.4c27.581,47.744 96.458,47.751 124.054,0.013" style="fill:#ee2c30;fill-rule:nonzero;"/><path id="path16" d="M13065,14828.6l672.508,-1164.55l-1344.73,-0.095l672.218,1164.64" style="fill:#fff;fill-rule:nonzero;"/></g><path d="M13061.1,15008.1l0,709.775m-118.925,17.067l237.917,-0" style="fill:none;fill-rule:nonzero;stroke:#000;stroke-width:95.67px;stroke-miterlimit:4;"/><g><path d="M2182.29,12965.9l-709.913,0m-17.083,-118.992l-0,237.917" style="fill:none;fill-rule:nonzero;stroke:#000;stroke-width:95.67px;stroke-miterlimit:4;"/><g id="g121" serif:id="g12"><path id="path141" serif:id="path14" d="M3031.28,13876.5l907.316,-907.319l-907.316,-907.388l-907.319,907.388l907.319,907.319" style="fill:#231f20;fill-rule:nonzero;"/><path id="path161" serif:id="path16" d="M3031.28,13785.7l816.636,-816.642l-816.636,-816.635l-816.649,816.635l816.649,816.642" style="fill:#fff;fill-rule:nonzero;"/><path id="path18" d="M3031.28,13513.5l544.429,-544.436l-544.429,-544.358l-544.435,544.358l544.435,544.436" style="fill:#231f20;fill-rule:nonzero;"/><path id="path20" d="M3031.28,13470l500.88,-500.879l-500.88,-500.879l-500.893,500.879l500.893,500.879" style="fill:#fcd213;fill-rule:nonzero;"/></g></g><text x="287.671px" y="8931.75px" style="font-family:'ArialMT', 'Arial', sans-serif;font-size:868.054px;fill:#f00;">A</text><text x="8376.71px" y="16392.1px" style="font-family:'ArialMT', 'Arial', sans-serif;font-size:868.054px;fill:#f00;">B</text><text x="8472.83px" y="1412.1px" style="font-family:'ArialMT', 'Arial', sans-serif;font-size:868.054px;fill:#f00;">D</text><text x="16477.1px" y="8947.58px" style="font-family:'ArialMT', 'Arial', sans-serif;font-size:868.054px;fill:#f00;">C</text><g id="g122" serif:id="g12"><path id="path142" serif:id="path14" d="M14177,3563.16l-910.858,903.763l903.759,910.93l910.862,-903.832l-903.763,-910.861" style="fill:#231f20;fill-rule:nonzero;"/><path id="path162" serif:id="path16" d="M14176.7,3653.9l-819.824,813.441l813.435,819.824l819.838,-813.435l-813.449,-819.83" style="fill:#fff;fill-rule:nonzero;"/><path id="path181" serif:id="path18" d="M14175.6,3926.11l-546.554,542.302l542.295,546.483l546.561,-542.224l-542.302,-546.561" style="fill:#231f20;fill-rule:nonzero;"/><path id="path201" serif:id="path20" d="M14175.4,3969.66l-502.835,498.916l498.916,502.835l502.849,-498.916l-498.93,-502.835" style="fill:#fcd213;fill-rule:nonzero;"/></g><g id="g123" serif:id="g12"><path id="path143" serif:id="path14" d="M4121.57,2308.39l-794.484,1380.33c-27.468,47.83 7.055,107.406 62.161,107.39l1592.67,-2.226c55.108,-0.03 89.467,-59.698 61.818,-107.404l-798.111,-1378.25c-27.65,-47.705 -96.527,-47.613 -124.054,0.165" style="fill:#ee2c30;fill-rule:nonzero;"/><path id="path163" serif:id="path16" d="M4183.83,2487.21l-670.828,1165.52l1344.73,-1.844l-673.897,-1163.67" style="fill:#fff;fill-rule:nonzero;"/></g></g></svg>