<?xml version="1.0" encoding="UTF-8" standalone="no"?><!DOCTYPE svg PUBLIC "-//W3C//DTD SVG 1.1//EN" "http://www.w3.org/Graphics/SVG/1.1/DTD/svg11.dtd"><svg width="100%" height="100%" viewBox="0 0 4167 4167" version="1.1" xmlns="http://www.w3.org/2000/svg" xmlns:xlink="http://www.w3.org/1999/xlink" xml:space="preserve" xmlns:serif="http://www.serif.com/" style="fill-rule:evenodd;clip-rule:evenodd;stroke-miterlimit:2.613;"><g><g><path d="M302.049,2062.66l3570.8,0" style="fill:none;fill-rule:nonzero;stroke:#1b1b1b;stroke-width:25px;stroke-dasharray:250,250;"/><path d="M3422.02,1731.11l-341.146,-0l-75.75,-227.155" style="fill:none;fill-rule:nonzero;stroke:#ff2020;stroke-width:3.75px;"/><path d="M2933.94,1431.56l36.929,113.941l76.387,-75.121l-113.316,-38.82" style="fill:#ff2020;"/><path d="M3422.02,1731.33l-341.146,0l-75.75,222.546" style="fill:none;fill-rule:nonzero;stroke:#ff2020;stroke-width:3.75px;"/><path d="M2933.94,2026.27l113.3,-38.838l-76.392,-75.121l-36.908,113.959" style="fill:#ff2020;"/><path d="M3422.02,1730.4l-389.046,0" style="fill:none;fill-rule:nonzero;stroke:#ff2020;stroke-width:3.75px;"/><path d="M2931.44,1730.4l107.137,53.542l0,-107.121l-107.137,53.579" style="fill:#ff2020;"/><path d="M882.136,2436.67l341.163,-0l75.729,-221.238" style="fill:none;fill-rule:nonzero;stroke:#ff2020;stroke-width:3.75px;"/><path d="M1370.22,2143.04l-113.296,38.837l76.388,75.121l36.908,-113.958" style="fill:#ff2020;"/><path d="M882.136,2438.91l389.063,0" style="fill:none;fill-rule:nonzero;stroke:#ff2020;stroke-width:3.75px;"/><path d="M1372.72,2438.91l-107.133,-53.558l-0,107.137l107.133,-53.579" style="fill:#ff2020;"/><path d="M1713.1,701.059l0,341.146l-225.917,75.746" style="fill:none;fill-rule:nonzero;stroke:#ff2020;stroke-width:3.75px;"/><path d="M1414.79,1189.15l113.941,-36.946l-75.121,-76.387l-38.82,113.333" style="fill:#ff2020;"/><path d="M1714.67,701.059l-0,341.146l222.429,75.746" style="fill:none;fill-rule:nonzero;stroke:#ff2020;stroke-width:3.75px;"/><path d="M2009.5,1189.15l-38.834,-113.3l-75.125,76.388l113.959,36.912" style="fill:#ff2020;"/><path d="M1713.63,701.059l0,389.046" style="fill:none;fill-rule:nonzero;stroke:#ff2020;stroke-width:3.75px;"/><path d="M1713.63,1191.65l53.542,-107.137l-107.117,-0l53.575,107.137" style="fill:#ff2020;"/><path d="M2473.73,3441.32l0,-341.146l227.779,-75.75" style="fill:none;fill-rule:nonzero;stroke:#ff2020;stroke-width:3.75px;"/><path d="M2773.91,2953.23l-113.925,36.946l75.104,76.388l38.821,-113.334" style="fill:#ff2020;"/><path d="M2476.63,3441.32l0,-341.146l-225.033,-75.75" style="fill:none;fill-rule:nonzero;stroke:#ff2020;stroke-width:3.75px;"/><path d="M2179.2,2953.23l38.854,113.3l75.121,-76.391l-113.975,-36.909" style="fill:#ff2020;"/><path d="M2475.07,3441.32l-0,-389.063" style="fill:none;fill-rule:nonzero;stroke:#ff2020;stroke-width:3.75px;"/><path d="M2475.07,2950.73l-53.542,107.134l107.133,-0l-53.591,-107.134" style="fill:#ff2020;"/><text x="3343.56px" y="1541.46px" style="font-family:'ArialMT', 'Arial', sans-serif;font-size:156.233px;fill:#ff2020;stroke:#ff2020;stroke-width:3.75px;">9</text><text x="876.02px" y="2255.13px" style="font-family:'ArialMT', 'Arial', sans-serif;font-size:156.233px;fill:#ff2020;stroke:#ff2020;stroke-width:3.75px;">1</text><text x="3482.92px" y="1788.46px" style="font-family:'ArialMT', 'Arial', sans-serif;font-size:156.233px;fill:#ff2020;stroke:#ff2020;stroke-width:3.75px;">8</text><text x="756.97px" y="2489.48px" style="font-family:'ArialMT', 'Arial', sans-serif;font-size:156.233px;fill:#ff2020;stroke:#ff2020;stroke-width:3.75px;">2</text><text x="1362.52px" y="836.651px" style="font-family:'ArialMT', 'Arial', sans-serif;font-size:156.233px;fill:#1b1b1b;">12</text><text x="1362.52px" y="836.651px" style="font-family:'ArialMT', 'Arial', sans-serif;font-size:156.233px;fill:#ff2020;stroke:#ff2020;stroke-width:3.75px;">12</text><text x="1362.52px" y="836.651px" style="font-family:'ArialMT', 'Arial', sans-serif;font-size:156.233px;fill:#ff2020;stroke:#ff2020;stroke-width:3.75px;">12</text><text x="1889.96px" y="836.651px" style="font-family:'ArialMT', 'Arial', sans-serif;font-size:156.233px;fill:#1b1b1b;">10</text><text x="1889.96px" y="836.651px" style="font-family:'ArialMT', 'Arial', sans-serif;font-size:156.233px;fill:#ff2020;stroke:#ff2020;stroke-width:3.75px;">10</text><g><text x="1630.46px" y="689.793px" style="font-family:'ArialMT', 'Arial', sans-serif;font-size:156.233px;fill:#ff2020;stroke:#ff2020;stroke-width:3.75px;">1</text><text x="1705.75px" y="689.793px" style="font-family:'ArialMT', 'Arial', sans-serif;font-size:156.233px;fill:#ff2020;stroke:#ff2020;stroke-width:3.75px;">1</text></g><text x="2190.74px" y="3441.76px" style="font-family:'ArialMT', 'Arial', sans-serif;font-size:156.233px;fill:#ff2020;stroke:#ff2020;stroke-width:3.75px;">4</text><g><text x="2659.91px" y="3439.73px" style="font-family:'ArialMT', 'Arial', sans-serif;font-size:156.233px;fill:#ff2020;stroke:#ff2020;stroke-width:3.75px;">6</text><text x="2434px" y="3640.23px" style="font-family:'ArialMT', 'Arial', sans-serif;font-size:156.233px;fill:#ff2020;stroke:#ff2020;stroke-width:3.75px;">5</text></g><text x="3343.9px" y="2029.88px" style="font-family:'ArialMT', 'Arial', sans-serif;font-size:156.233px;fill:#ff2020;stroke:#ff2020;stroke-width:3.75px;">7</text><path d="M298.645,1354.22l782.658,-0c143.888,-0 261.25,-117.359 261.25,-261.25l0,-820.363m2515.05,1081.61l-782.654,-0c-143.892,-0 -261.25,-117.359 -261.25,-261.25l-0,-820.363" style="fill:none;fill-rule:nonzero;stroke:#1b1b1b;stroke-width:3.75px;"/><path d="M2080.43,1355.49l0,-686.98" style="fill:none;fill-rule:nonzero;stroke:#1b1b1b;stroke-width:12.5px;"/><path d="M2080.43,540.418l0,-246.284" style="fill:none;fill-rule:nonzero;stroke:#1b1b1b;stroke-width:12.5px;stroke-dasharray:125,125;"/><path d="M2102.07,1355.49l902.325,0.291" style="fill:none;fill-rule:nonzero;stroke:#1b1b1b;stroke-width:25px;stroke-dasharray:25,25,25,0;"/><path d="M2039.1,1354.29l-133.854,-0l65.796,-97.55l68.058,97.55Z" style="fill:#1b1b1b;stroke:#1b1b1b;stroke-width:3.75px;"/><path d="M1832.36,1354.29l-133.854,-0l65.8,-97.55l68.054,97.55Z" style="fill:#1b1b1b;stroke:#1b1b1b;stroke-width:3.75px;"/><path d="M1625.62,1354.29l-133.854,-0l65.783,-97.55l68.071,97.55Z" style="fill:#1b1b1b;stroke:#1b1b1b;stroke-width:3.75px;"/><path d="M1418.89,1354.29l-133.855,-0l65.78,-97.55l68.075,97.55" style="fill:#1b1b1b;"/><path d="M1418.89,1354.29l-133.855,-0l65.78,-97.55l68.075,97.55Zm2438.71,1446.56l-782.654,0c-143.892,0 -261.25,117.363 -261.25,261.267l-0,807.258m-2515.05,-1068.53l782.658,0c143.888,0 261.25,117.363 261.25,261.267l0,805.4" style="fill:none;fill-rule:nonzero;stroke:#1b1b1b;stroke-width:3.75px;"/><path d="M2075.8,2799.6l-0,686.979" style="fill:none;fill-rule:nonzero;stroke:#1b1b1b;stroke-width:12.5px;"/><path d="M2075.8,3614.66l-0,217.725" style="fill:none;fill-rule:nonzero;stroke:#1b1b1b;stroke-width:12.5px;stroke-dasharray:125,125;"/><path d="M2054.18,2799.6l-902.325,-0.312" style="fill:none;fill-rule:nonzero;stroke:#1b1b1b;stroke-width:25px;stroke-dasharray:25,25,25,0;"/><path d="M2117.15,2800.8l133.854,0l-65.8,97.55l-68.054,-97.55Z" style="fill:#1b1b1b;stroke:#1b1b1b;stroke-width:3.75px;"/><path d="M2323.89,2800.8l133.854,0l-65.8,97.55l-68.054,-97.55Z" style="fill:#1b1b1b;stroke:#1b1b1b;stroke-width:3.75px;"/><path d="M2530.62,2800.8l133.854,0l-65.779,97.55l-68.075,-97.55Z" style="fill:#1b1b1b;stroke:#1b1b1b;stroke-width:3.75px;"/><path d="M2737.36,2800.8l133.855,0l-65.784,97.55l-68.071,-97.55" style="fill:#1b1b1b;"/><rect x="3174.74" y="819.134" width="612.675" height="503.471" style="fill:#fff;"/><path d="M3196.02,1070.35l200.554,-200.554l200.575,200.554l-200.575,200.575" style="fill:#fff;"/><path d="M3202.1,1070.35l194.479,-194.496l194.654,194.496l-194.654,194.496l-194.479,-194.496Zm-21.579,-0l216.058,-216.267l216.288,216.267l-216.288,216.2l-216.058,-216.2"/><path d="M3271.84,1070.35l124.895,-124.896l124.738,124.896l-124.738,124.879" style="fill:#9a9a9a;"/><path d="M3276.62,1070.9l119.304,-119.291l119.183,119.291l-119.183,119.304l-119.304,-119.304Zm-10.68,-0.296l129.863,-129.704l129.704,129.704l-129.704,129.721l-129.863,-129.721"/><path d="M3601.27,1070.85l170.383,0m4.096,28.558l-0,-57.1" style="fill:none;fill-rule:nonzero;stroke:#000;stroke-width:22.96px;stroke-miterlimit:4;"/><rect x="753.436" y="338.647" width="503.471" height="612.675" style="fill:#fff;"/><path d="M1183.19,888.559l-178.804,-307.05l-179.025,306.98c-0,-0 356.179,0.07 357.829,0.07" style="fill:#fff;"/><path d="M1217.5,892.484l-197.879,-342.675c-3.25,-5.362 -8.838,-8.75 -15.229,-8.75c-6.492,0 -12.134,3.388 -15.242,8.471l-197.621,342.538c-3.092,5.171 -3.229,12.604 -0.137,17.5c3.245,5.171 8.608,9.025 15.291,9.025l395.263,-0c6.821,-0 11.979,-3.854 15.154,-8.471c2.954,-4.879 3.508,-12.275 0.4,-17.638Zm-46.233,-9.308l-166.875,-288.767l-167.03,288.767l333.905,0"/><path d="M1004.97,559.447l-0,-170.35m28.541,-4.096l-57.1,0" style="fill:none;fill-rule:nonzero;stroke:#000;stroke-width:22.96px;stroke-miterlimit:4;"/><rect x="2882.85" y="3210.14" width="503.471" height="612.675" style="fill:#fff;"/><path d="M2956.44,3272.85l178.804,307.05l179.025,-306.979c-0,-0 -356.179,-0.071 -357.829,-0.071" style="fill:#fff;"/><path d="M2922.14,3268.91l197.88,342.675c3.25,5.367 8.837,8.75 15.229,8.75c6.491,0 12.133,-3.383 15.241,-8.471l197.621,-342.537c3.092,-5.171 3.229,-12.604 0.138,-17.5c-3.246,-5.154 -8.609,-9.025 -15.292,-9.025l-395.262,-0c-6.821,-0 -11.98,3.871 -15.155,8.471c-2.954,4.896 -3.508,12.275 -0.4,17.637Zm46.234,9.309l166.875,288.783l167.029,-288.783l-333.904,-0"/><path d="M3134.67,3601.95l-0,170.346m-28.542,4.096l57.1,-0" style="fill:none;fill-rule:nonzero;stroke:#000;stroke-width:22.96px;stroke-miterlimit:4;"/><rect x="337.57" y="2860.14" width="612.675" height="503.471" style="fill:#fff;"/><path d="M928.995,3112.31l-200.575,200.555l-200.554,-200.555l200.554,-200.57" style="fill:#fff;"/><path d="M922.916,3112.31l-194.496,194.496l-194.634,-194.496l194.634,-194.495l194.496,194.495Zm21.579,0l-216.075,216.284l-216.267,-216.284l216.267,-216.195l216.075,216.195"/><path d="M853.178,3112.31l-124.896,124.896l-124.741,-124.896l124.741,-124.879" style="fill:#9a9a9a;"/><path d="M848.403,3111.76l-119.304,119.304l-119.188,-119.304l119.188,-119.308l119.304,119.308Zm10.675,0.296l-129.858,129.721l-129.704,-129.721l129.704,-129.708l129.858,129.708"/><path d="M523.749,3111.81l-170.379,0m-4.1,-28.558l-0,57.1" style="fill:none;fill-rule:nonzero;stroke:#000;stroke-width:22.96px;stroke-miterlimit:4;"/><text x="69.041px" y="2143.62px" style="font-family:'ArialMT', 'Arial', sans-serif;font-size:208.333px;fill:#f00;">A</text><text x="2010.41px" y="3934.11px" style="font-family:'ArialMT', 'Arial', sans-serif;font-size:208.333px;fill:#f00;">B</text><text x="2033.48px" y="338.905px" style="font-family:'ArialMT', 'Arial', sans-serif;font-size:208.333px;fill:#f00;">D</text><text x="3954.51px" y="2147.42px" style="font-family:'ArialMT', 'Arial', sans-serif;font-size:208.333px;fill:#f00;">C</text><rect x="230" y="2590" width="960" height="210" style="fill:#dbeafe;stroke:none;"/><line x1="230" y1="2590" x2="1190" y2="2590" style="fill:none;stroke:#1b1b1b;stroke-width:3.75px;stroke-dasharray:30,20;"/><path d="M250,2670 L960,2670 L1050,2760" style="fill:none;stroke:#ff2020;stroke-width:3.75px;stroke-linejoin:round;"/><polygon points="1050,2760 1012,2646 936,2722" style="fill:#ff2020;stroke:none;"/><text x="240" y="2580" style="font-family:'ArialMT','Arial',sans-serif;font-size:156.233px;fill:#ff2020;stroke:#ff2020;stroke-width:3.75px;">3</text></g></g></svg>