<?xml version="1.0" encoding="UTF-8" standalone="no"?><!DOCTYPE svg PUBLIC "-//W3C//DTD SVG 1.1//EN" "http://www.w3.org/Graphics/SVG/1.1/DTD/svg11.dtd"><svg width="100%" height="100%" viewBox="0 0 17363 17363" version="1.1" xmlns="http://www.w3.org/2000/svg" xmlns:xlink="http://www.w3.org/1999/xlink" xml:space="preserve" xmlns:serif="http://www.serif.com/" style="fill-rule:evenodd;clip-rule:evenodd;stroke-miterlimit:2.613;"><g><path d="M1258.54,8594.42l14878.3,-0" style="fill:none;fill-rule:nonzero;stroke:#1b1b1b;stroke-width:104.17px;stroke-dasharray:1041.67,1041.67;"/><path d="M14258.4,7212.96l-1421.44,0l-315.625,-946.479" style="fill:none;fill-rule:nonzero;stroke:#ff2020;stroke-width:15.63px;"/><path d="M12224.8,5964.83l153.871,474.755l318.279,-313.005l-472.15,-161.75" style="fill:#ff2020;"/><path d="M14258.4,7213.88l-1421.44,0l-315.625,927.275" style="fill:none;fill-rule:nonzero;stroke:#ff2020;stroke-width:15.63px;"/><path d="M12224.8,8442.79l472.083,-161.825l-318.3,-313.004l-153.783,474.829" style="fill:#ff2020;"/><path d="M14258.4,7210l-1621.03,0" style="fill:none;fill-rule:nonzero;stroke:#ff2020;stroke-width:15.63px;"/><path d="M12214.3,7210l446.405,223.092l-0.001,-446.338l-446.404,223.246" style="fill:#ff2020;"/><path d="M3675.57,10149.4l1421.51,-0l315.538,956.2" style="fill:none;fill-rule:nonzero;stroke:#ff2020;stroke-width:15.63px;"/><path d="M5709.25,11407.2l-153.854,-474.758l-318.283,313.021l472.137,161.737" style="fill:#f00;"/><path d="M3675.57,10152.8l1421.51,-0l315.538,-921.825" style="fill:none;fill-rule:nonzero;stroke:#ff2020;stroke-width:15.63px;"/><path d="M5709.25,8929.33l-472.067,161.821l318.284,313.004l153.783,-474.825" style="fill:#ff2020;"/><path d="M3675.57,10162.1l1621.1,0" style="fill:none;fill-rule:nonzero;stroke:#ff2020;stroke-width:15.63px;"/><path d="M5719.67,10162.1l-446.388,-223.158l0,446.404l446.388,-223.246" style="fill:#ff2020;"/><path d="M7137.92,2921.08l-0,1421.44l-941.321,315.608" style="fill:none;fill-rule:nonzero;stroke:#ff2020;stroke-width:15.63px;"/><path d="M5894.96,4954.79l474.755,-153.942l-313.005,-318.279l-161.75,472.221" style="fill:#ff2020;"/><g><path d="M4667.68,1738.15l446.358,223.28l0.154,-446.4l-446.512,223.12" style="fill:#ff2020;"/><path d="M12402.9,1742.44l-451.498,-212.696l10.37,446.28l441.128,-233.584" style="fill:#ff2020;"/><path d="M12086,1742.16l-6972.82,-6.037" style="fill:none;fill-rule:nonzero;stroke:#ff2020;stroke-width:48.79px;"/></g><g><path d="M4801.86,15386.1l448.25,223.28l-3.629,-446.401l-444.621,223.121" style="fill:#ff2020;"/><path d="M12537.1,15390.4l-453.3,-212.695l14.152,446.28l439.148,-233.585" style="fill:#ff2020;"/><path d="M12220.2,15390.2l-6972.88,-6.037" style="fill:none;fill-rule:nonzero;stroke:#ff2020;stroke-width:48.7px;"/></g><g><path d="M2431.5,4826.35l-224.355,447.713l446.407,-2.558l-222.052,-445.155" style="fill:#ff2020;"/><path d="M2408.65,12561.6l213.783,-452.788l-446.313,13.08l232.53,439.708" style="fill:#ff2020;"/><path d="M2409.69,12244.6l22.769,-6972.84" style="fill:none;fill-rule:nonzero;stroke:#ff2020;stroke-width:48.7px;"/></g><path d="M7144.46,2921.08l0,1421.44l926.788,315.608" style="fill:none;fill-rule:nonzero;stroke:#ff2020;stroke-width:15.63px;"/><path d="M8372.92,4954.79l-161.809,-472.084l-313.02,318.284l474.829,153.8" style="fill:#ff2020;"/><path d="M7140.12,2921.08l0,1621.03" style="fill:none;fill-rule:nonzero;stroke:#ff2020;stroke-width:15.63px;"/><path d="M7140.12,4965.21l223.092,-446.404l-446.321,0l223.229,446.404" style="fill:#ff2020;"/><path d="M10307.2,14338.8l0,-1421.44l949.079,-315.625" style="fill:none;fill-rule:nonzero;stroke:#ff2020;stroke-width:15.63px;"/><path d="M11558,12305.1l-474.687,153.942l312.933,318.283l161.754,-472.225" style="fill:#ff2020;"/><path d="M10319.3,14338.8l-0,-1421.44l-937.638,-315.625" style="fill:none;fill-rule:nonzero;stroke:#ff2020;stroke-width:15.63px;"/><path d="M9080,12305.1l161.892,472.083l313.004,-318.295l-474.896,-153.788" style="fill:#ff2020;"/><path d="M10312.8,14338.8l-0,-1621.1" style="fill:none;fill-rule:nonzero;stroke:#ff2020;stroke-width:15.63px;"/><path d="M10312.8,12294.7l-223.092,446.392l446.388,0l-223.296,-446.392" style="fill:#ff2020;"/><text x="13931.5px" y="6422.75px" style="font-family:'ArialMT', 'Arial', sans-serif;font-size:650.971px;fill:#ff2020;stroke:#ff2020;stroke-width:15.63px;">9</text><text x="3650.08px" y="9396.38px" style="font-family:'ArialMT', 'Arial', sans-serif;font-size:650.833px;fill:#ff2020;stroke:#ff2020;stroke-width:15.63px;">1</text><text x="14512.2px" y="7451.92px" style="font-family:'ArialMT', 'Arial', sans-serif;font-size:650.971px;fill:#ff2020;stroke:#ff2020;stroke-width:15.63px;">8</text><text x="3154.04px" y="10372.8px" style="font-family:'ArialMT', 'Arial', sans-serif;font-size:650.971px;fill:#ff2020;stroke:#ff2020;stroke-width:15.63px;">2</text><text x="5677.17px" y="3486.05px" style="font-family:'ArialMT', 'Arial', sans-serif;font-size:650.971px;fill:#1b1b1b;">12</text><text x="5677.17px" y="3486.05px" style="font-family:'ArialMT', 'Arial', sans-serif;font-size:650.971px;fill:#ff2020;stroke:#ff2020;stroke-width:15.63px;">12</text><text x="5677.17px" y="3486.05px" style="font-family:'ArialMT', 'Arial', sans-serif;font-size:650.971px;fill:#ff2020;stroke:#ff2020;stroke-width:15.63px;">12</text><text x="7874.83px" y="3486.05px" style="font-family:'ArialMT', 'Arial', sans-serif;font-size:650.971px;fill:#1b1b1b;">10</text><text x="7874.83px" y="3486.05px" style="font-family:'ArialMT', 'Arial', sans-serif;font-size:650.971px;fill:#ff2020;stroke:#ff2020;stroke-width:15.63px;">10</text><g><text x="6793.58px" y="2874.14px" style="font-family:'ArialMT', 'Arial', sans-serif;font-size:650.971px;fill:#ff2020;stroke:#ff2020;stroke-width:15.63px;">1</text><text x="7107.29px" y="2874.14px" style="font-family:'ArialMT', 'Arial', sans-serif;font-size:650.971px;fill:#ff2020;stroke:#ff2020;stroke-width:15.63px;">1</text></g><text x="9128.08px" y="14340.7px" style="font-family:'ArialMT', 'Arial', sans-serif;font-size:650.971px;fill:#ff2020;stroke:#ff2020;stroke-width:15.63px;">4</text><g><text x="11083px" y="14332.2px" style="font-family:'ArialMT', 'Arial', sans-serif;font-size:650.971px;fill:#ff2020;stroke:#ff2020;stroke-width:15.63px;">6</text><text x="10141.7px" y="15167.6px" style="font-family:'ArialMT', 'Arial', sans-serif;font-size:650.971px;fill:#ff2020;stroke:#ff2020;stroke-width:15.63px;">5</text></g><text x="13932.9px" y="8457.83px" style="font-family:'ArialMT', 'Arial', sans-serif;font-size:650.971px;fill:#ff2020;stroke:#ff2020;stroke-width:15.63px;">7</text><text x="3650.2px" y="11432.1px" style="font-family:'ArialMT', 'Arial', sans-serif;font-size:650.971px;fill:#ff2020;stroke:#ff2020;stroke-width:15.63px;">3</text><path d="M1244.35,5642.58l3261.08,0c599.533,0 1088.54,-488.996 1088.54,-1088.54l-0,-3418.18m10479.4,4506.71l-3261.06,-0c-599.55,-0 -1088.54,-488.996 -1088.54,-1088.54l-0,-3418.18" style="fill:none;fill-rule:nonzero;stroke:#1b1b1b;stroke-width:15.63px;"/><path d="M8668.46,5647.88l0,-2862.42" style="fill:none;fill-rule:nonzero;stroke:#1b1b1b;stroke-width:52.08px;"/><path d="M8668.46,2251.74l0,-1026.18" style="fill:none;fill-rule:nonzero;stroke:#1b1b1b;stroke-width:52.08px;stroke-dasharray:520.83,520.83;"/><path d="M8758.62,5647.88l3759.69,1.213" style="fill:none;fill-rule:nonzero;stroke:#1b1b1b;stroke-width:104.17px;stroke-dasharray:104.17,104.17,104.17,0;"/><path d="M8496.25,5642.88l-557.725,0l274.15,-406.458l283.575,406.458Z" style="fill:#1b1b1b;stroke:#1b1b1b;stroke-width:15.63px;"/><path d="M7634.83,5642.88l-557.725,0l274.167,-406.458l283.558,406.458Z" style="fill:#1b1b1b;stroke:#1b1b1b;stroke-width:15.63px;"/><path d="M6773.42,5642.88l-557.725,0l274.095,-406.458l283.63,406.458Z" style="fill:#1b1b1b;stroke:#1b1b1b;stroke-width:15.63px;"/><path d="M5912.04,5642.88l-557.729,0l274.083,-406.458l283.646,406.458" style="fill:#1b1b1b;"/><path d="M5912.04,5642.88l-557.729,0l274.083,-406.458l283.646,406.458Zm10161.3,6027.33l-3261.06,0c-599.55,0 -1088.54,489.013 -1088.54,1088.61l0,3363.58m-10479.4,-4452.21l3261.08,-0c599.534,-0 1088.54,489.012 1088.54,1088.61l-0,3355.83" style="fill:none;fill-rule:nonzero;stroke:#1b1b1b;stroke-width:15.63px;"/><path d="M8649.17,11665l-0,2862.41" style="fill:none;fill-rule:nonzero;stroke:#1b1b1b;stroke-width:52.08px;"/><path d="M8649.17,15061.1l-0,907.188" style="fill:none;fill-rule:nonzero;stroke:#1b1b1b;stroke-width:52.08px;stroke-dasharray:520.83,520.83;"/><path d="M8559.08,11665l-3759.69,-1.3" style="fill:none;fill-rule:nonzero;stroke:#1b1b1b;stroke-width:104.17px;stroke-dasharray:104.17,104.17,104.17,0;"/><path d="M8821.46,11670l557.725,0l-274.166,406.458l-283.559,-406.458Z" style="fill:#1b1b1b;stroke:#1b1b1b;stroke-width:15.63px;"/><path d="M9682.88,11670l557.725,0l-274.167,406.458l-283.558,-406.458Z" style="fill:#1b1b1b;stroke:#1b1b1b;stroke-width:15.63px;"/><path d="M10544.2,11670l557.725,0l-274.079,406.458l-283.646,-406.458Z" style="fill:#1b1b1b;stroke:#1b1b1b;stroke-width:15.63px;"/><path d="M11405.7,11670l557.729,0l-274.1,406.458l-283.629,-406.458" style="fill:#1b1b1b;"/><text x="104.337px" y="8931.75px" style="font-family:'ArialMT', 'Arial', sans-serif;font-size:868.054px;fill:#f00;">A</text><text x="8340.38px" y="17155.4px" style="font-family:'ArialMT', 'Arial', sans-serif;font-size:868.054px;fill:#f00;">B</text><text x="8457.93px" y="873.346px" style="font-family:'ArialMT', 'Arial', sans-serif;font-size:868.054px;fill:#f00;">D</text><text x="8457.93px" y="873.346px" style="font-family:'ArialMT', 'Arial', sans-serif;font-size:868.054px;fill:#f00;">D</text><g transform="matrix(650.833,0,0,650.833,10902.3,2522.83)"></g><text x="9202.17px" y="2522.83px" style="font-family:'ArialMT', 'Arial', sans-serif;font-size:650.833px;fill:#f00;">fgs_D</text><text x="16605.1px" y="8890.42px" style="font-family:'ArialMT', 'Arial', sans-serif;font-size:868.054px;fill:#f00;">C</text><g transform="matrix(650.833,0,0,650.833,10952.1,16251)"></g><text x="9287.85px" y="16251px" style="font-family:'ArialMT', 'Arial', sans-serif;font-size:650.833px;fill:#f00;">fgs_B</text><g transform="matrix(650.833,0,0,650.833,4312.92,7070.01)"></g><text x="2648.66px" y="7070.01px" style="font-family:'ArialMT', 'Arial', sans-serif;font-size:650.833px;fill:#f00;">fgs_A</text><g transform="matrix(650.833,0,0,650.833,14906.5,10492.5)"></g><text x="13206.3px" y="10492.5px" style="font-family:'ArialMT', 'Arial', sans-serif;font-size:650.833px;fill:#f00;">fgs_C</text><g><path d="M15593.6,4749.78l-224.355,447.713l446.408,-2.558l-222.053,-445.155" style="fill:#ff2020;"/><path d="M15570.8,12485l213.782,-452.789l-446.312,13.081l232.53,439.708" style="fill:#ff2020;"/><path d="M15571.8,12168.1l22.768,-6972.84" style="fill:none;fill-rule:nonzero;stroke:#ff2020;stroke-width:48.7px;"/></g></g></svg>