<?xml version="1.0" encoding="UTF-8" standalone="no"?><!DOCTYPE svg PUBLIC "-//W3C//DTD SVG 1.1//EN" "http://www.w3.org/Graphics/SVG/1.1/DTD/svg11.dtd"><svg width="100%" height="100%" viewBox="0 0 17363 13892" version="1.1" xmlns="http://www.w3.org/2000/svg" xmlns:xlink="http://www.w3.org/1999/xlink" xml:space="preserve" xmlns:serif="http://www.serif.com/" style="fill-rule:evenodd;clip-rule:evenodd;stroke-miterlimit:2.613;"><g><path d="M1328.87,2537.83l14892,0" style="fill:none;fill-rule:nonzero;stroke:#1b1b1b;stroke-width:15.63px;"/><path d="M1325.03,5492.92l14903,-0" style="fill:none;fill-rule:nonzero;stroke:#1b1b1b;stroke-width:104.17px;stroke-dasharray:1041.67,1041.67;"/><path d="M14343.2,4099.22l-1421.44,-0l-315.609,940.416" style="fill:none;fill-rule:nonzero;stroke:#ff2020;stroke-width:15.63px;"/><path d="M12309.5,5341.29l472.084,-161.825l-318.296,-313.005l-153.788,474.83" style="fill:#ff2020;"/><path d="M14343.2,4108.51l-1621.09,0" style="fill:none;fill-rule:nonzero;stroke:#ff2020;stroke-width:15.63px;"/><path d="M12299,4108.51l446.408,223.092l0,-446.337l-446.408,223.245" style="fill:#ff2020;"/><path d="M3760.36,7064.33l1421.44,0l315.609,939.775" style="fill:none;fill-rule:nonzero;stroke:#ff2020;stroke-width:15.63px;"/><path d="M5794,8305.75l-153.854,-474.758l-318.283,313.004l472.137,161.754" style="fill:#ff2020;"/><path d="M3760.36,7060.62l1621.02,0" style="fill:none;fill-rule:nonzero;stroke:#ff2020;stroke-width:15.63px;"/><path d="M5804.42,7060.62l-446.392,-223.158l0,446.404l446.392,-223.246" style="fill:#ff2020;"/><path d="M10385.8,11237.3l0,-1421.44l955.242,-315.609" style="fill:none;fill-rule:nonzero;stroke:#ff2020;stroke-width:15.63px;"/><path d="M11642.8,9203.62l-474.758,153.925l313.004,318.296l161.754,-472.221" style="fill:#ff2020;"/><path d="M10381.3,11237.3l-0,-1421.44l-914.829,-315.609" style="fill:none;fill-rule:nonzero;stroke:#ff2020;stroke-width:15.63px;"/><path d="M9164.79,9203.62l161.821,472.067l313.004,-318.284l-474.825,-153.783" style="fill:#ff2020;"/><text x="14597px" y="4350.46px" style="font-family:'ArialMT', 'Arial', sans-serif;font-size:650.971px;fill:#ff2020;stroke:#ff2020;stroke-width:15.63px;">8</text><text x="3238.19px" y="7271.38px" style="font-family:'ArialMT', 'Arial', sans-serif;font-size:650.971px;fill:#ff2020;stroke:#ff2020;stroke-width:15.63px;">2</text><text x="9212.83px" y="11239.2px" style="font-family:'ArialMT', 'Arial', sans-serif;font-size:650.971px;fill:#ff2020;stroke:#ff2020;stroke-width:15.63px;">4</text><text x="11167.7px" y="11230.7px" style="font-family:'ArialMT', 'Arial', sans-serif;font-size:650.971px;fill:#ff2020;stroke:#ff2020;stroke-width:15.63px;">6</text><text x="14017.6px" y="5356.33px" style="font-family:'ArialMT', 'Arial', sans-serif;font-size:650.971px;fill:#ff2020;stroke:#ff2020;stroke-width:15.63px;">7</text><text x="3734.93px" y="8330.62px" style="font-family:'ArialMT', 'Arial', sans-serif;font-size:650.971px;fill:#ff2020;stroke:#ff2020;stroke-width:15.63px;">3</text><path d="M16158.1,8568.71l-3260.99,0c-599.621,0 -1088.61,489.009 -1088.61,1088.61l0,3371.39m-10479.3,-4460l3261.01,0c599.6,0 1088.61,489.009 1088.61,1088.61l-0,3355.83" style="fill:none;fill-rule:nonzero;stroke:#1b1b1b;stroke-width:15.63px;"/><path d="M8733.96,8563.5l0,2862.41" style="fill:none;fill-rule:nonzero;stroke:#1b1b1b;stroke-width:52.08px;"/><path d="M8733.96,11959.5l0,946.112" style="fill:none;fill-rule:nonzero;stroke:#1b1b1b;stroke-width:52.08px;stroke-dasharray:520.83,520.83;"/><path d="M8643.92,8563.5l-3759.78,-1.304" style="fill:none;fill-rule:nonzero;stroke:#1b1b1b;stroke-width:104.17px;stroke-dasharray:104.17,104.17,104.17,0;"/><path d="M8906.21,8568.5l557.725,0l-274.166,406.475l-283.559,-406.475Z" style="fill:#1b1b1b;stroke:#1b1b1b;stroke-width:15.63px;"/><path d="M9767.58,8568.5l557.729,0l-274.1,406.475l-283.629,-406.475Z" style="fill:#1b1b1b;stroke:#1b1b1b;stroke-width:15.63px;"/><path d="M10629,8568.5l557.729,0l-274.15,406.475l-283.579,-406.475Z" style="fill:#1b1b1b;stroke:#1b1b1b;stroke-width:15.63px;"/><path d="M11490.5,8568.5l557.725,0l-274.166,406.475l-283.559,-406.475" style="fill:#1b1b1b;"/><g><path d="M2159.42,1971.34l-206.944,412.968l411.764,-2.359l-204.82,-410.609" style="fill:#ff2020;"/><path d="M2138.34,9106.29l197.193,-417.65l-411.677,12.065l214.484,405.585" style="fill:#ff2020;"/><path d="M2139.3,8813.89l21.002,-6431.71" style="fill:none;fill-rule:nonzero;stroke:#ff2020;stroke-width:44.92px;"/></g><g><path d="M12338.6,12070.7l-413.247,-206.388l2.914,411.76l410.333,-205.372" style="fill:#ff2020;"/><path d="M5203.58,12059.2l417.915,196.63l-12.619,-411.66l-405.296,215.03" style="fill:#ff2020;"/><path d="M5495.98,12059.8l6431.74,12.339" style="fill:none;fill-rule:nonzero;stroke:#ff2020;stroke-width:44.92px;"/></g><text x="2359.72px" y="4040.88px" style="font-family:'ArialMT', 'Arial', sans-serif;font-size:600.325px;fill:#f00;">fgs_A</text><g><path d="M15595,2035.92l-206.944,412.969l411.763,-2.36l-204.819,-410.609" style="fill:#ff2020;"/><path d="M15574,9170.88l197.192,-417.649l-411.677,12.064l214.485,405.585" style="fill:#ff2020;"/><path d="M15574.9,8878.48l21.002,-6431.71" style="fill:none;fill-rule:nonzero;stroke:#ff2020;stroke-width:44.92px;"/></g><g transform="matrix(600.325,0,0,600.325,15471.4,7120.5)"></g><text x="13903.1px" y="7120.5px" style="font-family:'ArialMT', 'Arial', sans-serif;font-size:600.325px;fill:#f00;">fgs_C</text><g transform="matrix(600.325,0,0,600.325,7636.63,11753.1)"></g><text x="6101.52px" y="11753.1px" style="font-family:'ArialMT', 'Arial', sans-serif;font-size:600.325px;fill:#f00;">fgs_B</text><text x="338.038px" y="5751.62px" style="font-family:'ArialMT', 'Arial', sans-serif;font-size:868.054px;fill:#f00;">A</text><text x="8456.29px" y="13521.4px" style="font-family:'ArialMT', 'Arial', sans-serif;font-size:868.054px;fill:#f00;">B</text><text x="16522.2px" y="5811.79px" style="font-family:'ArialMT', 'Arial', sans-serif;font-size:868.054px;fill:#f00;">C</text></g></svg>