<?xml version="1.0" encoding="UTF-8" standalone="no"?><!DOCTYPE svg PUBLIC "-//W3C//DTD SVG 1.1//EN" "http://www.w3.org/Graphics/SVG/1.1/DTD/svg11.dtd"><svg width="100%" height="100%" viewBox="0 0 17363 17363" version="1.1" xmlns="http://www.w3.org/2000/svg" xmlns:xlink="http://www.w3.org/1999/xlink" xml:space="preserve" xmlns:serif="http://www.serif.com/" style="fill-rule:evenodd;clip-rule:evenodd;stroke-miterlimit:2.613;"><g><path d="M14258.4,7212.96l-1421.44,0l-315.625,-946.479" style="fill:none;fill-rule:nonzero;stroke:#ff2020;stroke-width:15.63px;"/><path d="M12224.8,5964.83l153.871,474.755l318.279,-313.005l-472.15,-161.75" style="fill:#ff2020;"/><path d="M14258.4,7213.88l-1421.44,0l-315.625,927.275" style="fill:none;fill-rule:nonzero;stroke:#ff2020;stroke-width:15.63px;"/><path d="M12224.8,8442.79l472.083,-161.825l-318.3,-313.004l-153.783,474.829" style="fill:#ff2020;"/><path d="M14258.4,7210l-1621.03,0" style="fill:none;fill-rule:nonzero;stroke:#ff2020;stroke-width:15.63px;"/><path d="M12214.3,7210l446.405,223.092l-0.001,-446.338l-446.404,223.246" style="fill:#ff2020;"/><path d="M3675.57,10149.4l1421.51,-0l315.538,956.2" style="fill:none;fill-rule:nonzero;stroke:#ff2020;stroke-width:15.63px;"/><path d="M5709.25,11407.2l-153.854,-474.758l-318.283,313.021l472.137,161.737" style="fill:#f00;"/><path d="M3675.57,10152.8l1421.51,-0l315.538,-921.825" style="fill:none;fill-rule:nonzero;stroke:#ff2020;stroke-width:15.63px;"/><path d="M5709.25,8929.33l-472.067,161.821l318.284,313.004l153.783,-474.825" style="fill:#ff2020;"/><path d="M3675.57,10162.1l1621.1,0" style="fill:none;fill-rule:nonzero;stroke:#ff2020;stroke-width:15.63px;"/><path d="M5719.67,10162.1l-446.388,-223.158l0,446.404l446.388,-223.246" style="fill:#ff2020;"/><path d="M7137.92,2921.08l-0,1421.44l-941.321,315.608" style="fill:none;fill-rule:nonzero;stroke:#ff2020;stroke-width:15.63px;"/><path d="M5894.96,4954.79l474.755,-153.942l-313.005,-318.279l-161.75,472.221" style="fill:#ff2020;"/><path d="M7144.46,2921.08l0,1421.44l926.788,315.608" style="fill:none;fill-rule:nonzero;stroke:#ff2020;stroke-width:15.63px;"/><path d="M8372.92,4954.79l-161.809,-472.084l-313.02,318.284l474.829,153.8" style="fill:#ff2020;"/><path d="M7140.12,2921.08l0,1621.03" style="fill:none;fill-rule:nonzero;stroke:#ff2020;stroke-width:15.63px;"/><path d="M7140.12,4965.21l223.092,-446.404l-446.321,0l223.229,446.404" style="fill:#ff2020;"/><path d="M10307.2,14338.8l0,-1421.44l949.079,-315.625" style="fill:none;fill-rule:nonzero;stroke:#ff2020;stroke-width:15.63px;"/><path d="M11558,12305.1l-474.687,153.942l312.933,318.283l161.754,-472.225" style="fill:#ff2020;"/><path d="M10319.3,14338.8l-0,-1421.44l-937.638,-315.625" style="fill:none;fill-rule:nonzero;stroke:#ff2020;stroke-width:15.63px;"/><path d="M9080,12305.1l161.892,472.083l313.004,-318.295l-474.896,-153.788" style="fill:#ff2020;"/><path d="M10312.8,14338.8l-0,-1621.1" style="fill:none;fill-rule:nonzero;stroke:#ff2020;stroke-width:15.63px;"/><path d="M10312.8,12294.7l-223.092,446.392l446.388,0l-223.296,-446.392" style="fill:#ff2020;"/><text x="13931.5px" y="6422.75px" style="font-family:'ArialMT', 'Arial', sans-serif;font-size:650.971px;fill:#ff2020;stroke:#ff2020;stroke-width:15.63px;">9</text><text x="3650.08px" y="9396.38px" style="font-family:'ArialMT', 'Arial', sans-serif;font-size:650.971px;fill:#ff2020;stroke:#ff2020;stroke-width:15.63px;">1</text><text x="14512.2px" y="7451.92px" style="font-family:'ArialMT', 'Arial', sans-serif;font-size:650.971px;fill:#ff2020;stroke:#ff2020;stroke-width:15.63px;">8</text><text x="3154.04px" y="10372.8px" style="font-family:'ArialMT', 'Arial', sans-serif;font-size:650.971px;fill:#ff2020;stroke:#ff2020;stroke-width:15.63px;">2</text><text x="5677.17px" y="3486.05px" style="font-family:'ArialMT', 'Arial', sans-serif;font-size:650.971px;fill:#1b1b1b;">12</text><text x="5677.17px" y="3486.05px" style="font-family:'ArialMT', 'Arial', sans-serif;font-size:650.971px;fill:#ff2020;stroke:#ff2020;stroke-width:15.63px;">12</text><text x="5677.17px" y="3486.05px" style="font-family:'ArialMT', 'Arial', sans-serif;font-size:650.971px;fill:#ff2020;stroke:#ff2020;stroke-width:15.63px;">12</text><text x="7874.83px" y="3486.05px" style="font-family:'ArialMT', 'Arial', sans-serif;font-size:650.971px;fill:#1b1b1b;">10</text><text x="7874.83px" y="3486.05px" style="font-family:'ArialMT', 'Arial', sans-serif;font-size:650.971px;fill:#ff2020;stroke:#ff2020;stroke-width:15.63px;">10</text><g><text x="6793.58px" y="2874.14px" style="font-family:'ArialMT', 'Arial', sans-serif;font-size:650.971px;fill:#ff2020;stroke:#ff2020;stroke-width:15.63px;">1</text><text x="7107.29px" y="2874.14px" style="font-family:'ArialMT', 'Arial', sans-serif;font-size:650.971px;fill:#ff2020;stroke:#ff2020;stroke-width:15.63px;">1</text></g><text x="9128.08px" y="14340.7px" style="font-family:'ArialMT', 'Arial', sans-serif;font-size:650.971px;fill:#ff2020;stroke:#ff2020;stroke-width:15.63px;">4</text><g><text x="11083px" y="14332.2px" style="font-family:'ArialMT', 'Arial', sans-serif;font-size:650.971px;fill:#ff2020;stroke:#ff2020;stroke-width:15.63px;">6</text><text x="10141.7px" y="15167.6px" style="font-family:'ArialMT', 'Arial', sans-serif;font-size:650.971px;fill:#ff2020;stroke:#ff2020;stroke-width:15.63px;">5</text></g><text x="13932.9px" y="8457.83px" style="font-family:'ArialMT', 'Arial', sans-serif;font-size:650.971px;fill:#ff2020;stroke:#ff2020;stroke-width:15.63px;">7</text><text x="3650.2px" y="11432.1px" style="font-family:'ArialMT', 'Arial', sans-serif;font-size:650.971px;fill:#ff2020;stroke:#ff2020;stroke-width:15.63px;">3</text><path d="M1244.35,5642.58l3261.08,0c599.533,0 1088.54,-488.996 1088.54,-1088.54l-0,-3418.18m10479.4,4506.71l-3261.06,-0c-599.55,-0 -1088.54,-488.996 -1088.54,-1088.54l-0,-3418.18" style="fill:none;fill-rule:nonzero;stroke:#1b1b1b;stroke-width:15.63px;"/><path d="M8668.46,5647.88l0,-2862.42" style="fill:none;fill-rule:nonzero;stroke:#1b1b1b;stroke-width:52.08px;"/><path d="M8668.46,2251.74l0,-1026.18" style="fill:none;fill-rule:nonzero;stroke:#1b1b1b;stroke-width:52.08px;stroke-dasharray:520.83,520.83;"/><path d="M5628.4,5236.42l-274.083,406.458l274.083,-406.458Zm10444.9,6433.79l-3261.06,0c-599.55,0 -1088.54,489.013 -1088.54,1088.61l0,3363.58m-10479.4,-4452.21l3261.08,-0c599.534,-0 1088.54,489.012 1088.54,1088.61l0,3355.83" style="fill:none;fill-rule:nonzero;stroke:#1b1b1b;stroke-width:15.63px;"/><path d="M8649.17,11665l-0,2862.41" style="fill:none;fill-rule:nonzero;stroke:#1b1b1b;stroke-width:52.08px;"/><path d="M8649.17,15061.1l-0,907.188" style="fill:none;fill-rule:nonzero;stroke:#1b1b1b;stroke-width:52.08px;stroke-dasharray:520.83,520.83;"/><text x="287.671px" y="8931.75px" style="font-family:'ArialMT', 'Arial', sans-serif;font-size:868.054px;fill:#f00;">A</text><text x="8376.71px" y="16392.1px" style="font-family:'ArialMT', 'Arial', sans-serif;font-size:868.054px;fill:#f00;">B</text><text x="8472.83px" y="1412.1px" style="font-family:'ArialMT', 'Arial', sans-serif;font-size:868.054px;fill:#f00;">D</text><text x="16477.1px" y="8947.58px" style="font-family:'ArialMT', 'Arial', sans-serif;font-size:868.054px;fill:#f00;">C</text></g></svg>