<?xml version="1.0" encoding="UTF-8" standalone="no"?><!DOCTYPE svg PUBLIC "-//W3C//DTD SVG 1.1//EN" "http://www.w3.org/Graphics/SVG/1.1/DTD/svg11.dtd"><svg width="100%" height="100%" viewBox="0 0 72346 72346" version="1.1" xmlns="http://www.w3.org/2000/svg" xmlns:xlink="http://www.w3.org/1999/xlink" xml:space="preserve" xmlns:serif="http://www.serif.com/" style="fill-rule:evenodd;clip-rule:evenodd;stroke-miterlimit:2.613;"><g><path d="M59410,30054l-5922.67,0l-1315.1,-3943.66" style="fill:none;fill-rule:nonzero;stroke:#ff2020;stroke-width:65.13px;"/><path d="M50936.7,24853.5l641.129,1978.15l1326.16,-1304.19l-1967.29,-673.959" style="fill:#ff2020;"/><path d="M59410,30057.8l-5922.67,0l-1315.1,3863.65" style="fill:none;fill-rule:nonzero;stroke:#ff2020;stroke-width:65.13px;"/><path d="M50936.7,35178.3l1967.01,-674.271l-1326.25,-1304.18l-640.762,1978.45" style="fill:#ff2020;"/><path d="M59410,30041.7l-6754.29,-0" style="fill:none;fill-rule:nonzero;stroke:#ff2020;stroke-width:65.13px;"/><path d="M50892.9,30041.7l1860.02,929.55l-0.004,-1859.74l-1860.02,930.192" style="fill:#ff2020;"/><path d="M15314.9,42289.2l5922.96,-0l1314.74,3984.17" style="fill:none;fill-rule:nonzero;stroke:#ff2020;stroke-width:65.13px;"/><path d="M23788.5,47530l-641.059,-1978.16l-1326.18,1304.25l1967.24,673.904" style="fill:#f00;"/><path d="M15314.9,42303.3l5922.96,0l1314.74,-3840.94" style="fill:none;fill-rule:nonzero;stroke:#ff2020;stroke-width:65.13px;"/><path d="M23788.5,37205.5l-1966.95,674.254l1326.18,1304.18l640.763,-1978.44" style="fill:#ff2020;"/><path d="M15314.9,42342.1l6754.58,0" style="fill:none;fill-rule:nonzero;stroke:#ff2020;stroke-width:65.13px;"/><path d="M23832,42342.1l-1859.95,-929.825l0,1860.02l1859.95,-930.192" style="fill:#ff2020;"/><path d="M29741.3,12171.2l0,5922.67l-3922.17,1315.03" style="fill:none;fill-rule:nonzero;stroke:#ff2020;stroke-width:65.13px;"/><path d="M24562.3,20645l1978.15,-641.425l-1304.19,-1326.16l-673.959,1967.59" style="fill:#ff2020;"/><path d="M29768.6,12171.2l0,5922.67l3861.62,1315.03" style="fill:none;fill-rule:nonzero;stroke:#ff2020;stroke-width:65.13px;"/><path d="M34887.2,20645l-674.204,-1967.02l-1304.25,1326.18l1978.46,640.833" style="fill:#ff2020;"/><path d="M29750.5,12171.2l0,6754.29" style="fill:none;fill-rule:nonzero;stroke:#ff2020;stroke-width:65.13px;"/><path d="M29750.5,20688.4l929.55,-1860.02l-1859.67,0l930.121,1860.02" style="fill:#ff2020;"/><path d="M42946.7,59745l-0,-5922.67l3954.5,-1315.1" style="fill:none;fill-rule:nonzero;stroke:#ff2020;stroke-width:65.13px;"/><path d="M48158.3,51271.2l-1977.86,641.425l1303.89,1326.18l673.975,-1967.6" style="fill:#ff2020;"/><path d="M42997.1,59745l0,-5922.67l-3906.83,-1315.1" style="fill:none;fill-rule:nonzero;stroke:#ff2020;stroke-width:65.13px;"/><path d="M37833.3,51271.2l674.55,1967.01l1304.18,-1326.23l-1978.73,-640.783" style="fill:#ff2020;"/><path d="M42970,59745l0,-6754.58" style="fill:none;fill-rule:nonzero;stroke:#ff2020;stroke-width:65.13px;"/><path d="M42970,51227.9l-929.55,1859.97l1859.95,0l-930.4,-1859.97" style="fill:#ff2020;"/><text x="58047.9px" y="26761.5px" style="font-family:'ArialMT', 'Arial', sans-serif;font-size:2712.38px;fill:#ff2020;stroke:#ff2020;stroke-width:65.13px;">9</text><text x="15208.7px" y="39151.6px" style="font-family:'ArialMT', 'Arial', sans-serif;font-size:2712.38px;fill:#ff2020;stroke:#ff2020;stroke-width:65.13px;">1</text><text x="60467.5px" y="31049.7px" style="font-family:'ArialMT', 'Arial', sans-serif;font-size:2712.38px;fill:#ff2020;stroke:#ff2020;stroke-width:65.13px;">8</text><text x="13141.8px" y="43220px" style="font-family:'ArialMT', 'Arial', sans-serif;font-size:2712.38px;fill:#ff2020;stroke:#ff2020;stroke-width:65.13px;">2</text><text x="23654.9px" y="14525.2px" style="font-family:'ArialMT', 'Arial', sans-serif;font-size:2712.38px;fill:#1b1b1b;">12</text><text x="23654.9px" y="14525.2px" style="font-family:'ArialMT', 'Arial', sans-serif;font-size:2712.38px;fill:#ff2020;stroke:#ff2020;stroke-width:65.13px;">12</text><text x="23654.9px" y="14525.2px" style="font-family:'ArialMT', 'Arial', sans-serif;font-size:2712.38px;fill:#ff2020;stroke:#ff2020;stroke-width:65.13px;">12</text><text x="32811.8px" y="14525.2px" style="font-family:'ArialMT', 'Arial', sans-serif;font-size:2712.38px;fill:#1b1b1b;">10</text><text x="32811.8px" y="14525.2px" style="font-family:'ArialMT', 'Arial', sans-serif;font-size:2712.38px;fill:#ff2020;stroke:#ff2020;stroke-width:65.13px;">10</text><g><text x="28306.6px" y="11975.6px" style="font-family:'ArialMT', 'Arial', sans-serif;font-size:2712.38px;fill:#ff2020;stroke:#ff2020;stroke-width:65.13px;">1</text><text x="29613.7px" y="11975.6px" style="font-family:'ArialMT', 'Arial', sans-serif;font-size:2712.38px;fill:#ff2020;stroke:#ff2020;stroke-width:65.13px;">1</text></g><text x="38033.7px" y="59752.9px" style="font-family:'ArialMT', 'Arial', sans-serif;font-size:2712.38px;fill:#ff2020;stroke:#ff2020;stroke-width:65.13px;">4</text><g><text x="46179.2px" y="59717.5px" style="font-family:'ArialMT', 'Arial', sans-serif;font-size:2712.38px;fill:#ff2020;stroke:#ff2020;stroke-width:65.13px;">6</text><text x="42257.1px" y="63198.3px" style="font-family:'ArialMT', 'Arial', sans-serif;font-size:2712.38px;fill:#ff2020;stroke:#ff2020;stroke-width:65.13px;">5</text></g><text x="58053.8px" y="35241px" style="font-family:'ArialMT', 'Arial', sans-serif;font-size:2712.38px;fill:#ff2020;stroke:#ff2020;stroke-width:65.13px;">7</text><text x="15209.2px" y="47633.8px" style="font-family:'ArialMT', 'Arial', sans-serif;font-size:2712.38px;fill:#ff2020;stroke:#ff2020;stroke-width:65.13px;">3</text><path d="M5184.79,23510.8l13587.8,0c2498.05,0 4535.58,-2037.48 4535.58,-4535.58l0,-14242.4m43664.2,18778l-13587.8,0c-2498.12,0 -4535.58,-2037.48 -4535.58,-4535.58l-0,-14242.4" style="fill:none;fill-rule:nonzero;stroke:#1b1b1b;stroke-width:65.13px;"/><path d="M36118.6,23532.8l0,-11926.8" style="fill:none;fill-rule:nonzero;stroke:#1b1b1b;stroke-width:217px;"/><path d="M36118.6,9382.25l0,-4275.75" style="fill:none;fill-rule:nonzero;stroke:#1b1b1b;stroke-width:217px;stroke-dasharray:2170.13,2170.13;"/><path d="M66972.1,48625.9l-13587.8,0c-2498.12,0 -4535.58,2037.55 -4535.58,4535.88l0,14014.9m-43664.2,-18550.9l13587.8,-0c2498.06,-0 4535.58,2037.55 4535.58,4535.88l0,13982.6" style="fill:none;fill-rule:nonzero;stroke:#1b1b1b;stroke-width:65.13px;"/><path d="M36038.2,48604.2l0,11926.7" style="fill:none;fill-rule:nonzero;stroke:#1b1b1b;stroke-width:217px;"/><path d="M36038.2,62754.6l0,3779.95" style="fill:none;fill-rule:nonzero;stroke:#1b1b1b;stroke-width:217px;stroke-dasharray:2170.13,2170.13;"/><text x="1198.63px" y="37215.6px" style="font-family:'ArialMT', 'Arial', sans-serif;font-size:3616.89px;fill:#f00;">A</text><text x="34903px" y="68300.4px" style="font-family:'ArialMT', 'Arial', sans-serif;font-size:3616.89px;fill:#f00;">B</text><text x="35303.5px" y="5883.75px" style="font-family:'ArialMT', 'Arial', sans-serif;font-size:3616.89px;fill:#f00;">D</text><text x="68654.6px" y="37281.6px" style="font-family:'ArialMT', 'Arial', sans-serif;font-size:3616.89px;fill:#f00;">C</text></g></svg>