<?xml version="1.0" encoding="UTF-8" standalone="no"?><!DOCTYPE svg PUBLIC "-//W3C//DTD SVG 1.1//EN" "http://www.w3.org/Graphics/SVG/1.1/DTD/svg11.dtd"><svg width="100%" height="100%" viewBox="0 0 591 591" version="1.1" xmlns="http://www.w3.org/2000/svg" xmlns:xlink="http://www.w3.org/1999/xlink" xml:space="preserve" xmlns:serif="http://www.serif.com/" style="fill-rule:evenodd;clip-rule:evenodd;stroke-linejoin:round;stroke-miterlimit:2;"><path d="M95.333,44.144c0.228,-0 0.685,-0.09 0.941,-0.125c5.922,-0.733 11.871,-0.968 17.827,-1.204l-0.38,-9.637c-6.323,0.249 -12.619,0.512 -18.901,1.301c-0.208,0.028 -0.609,0.104 -0.796,0.104l1.308,9.554l0.001,0.007Zm244.974,317.304l-0,0.491c-0.035,6.102 -0.048,12.211 -0.048,18.313l-0,0.491l9.643,0.021l0,-0.498c0,-6.095 0.014,-12.19 0.042,-18.285l0,-0.491l-9.644,-0.041l0.007,-0.001Zm148.577,-114.289l-19.289,0l-0,9.644l19.289,0l-0,-9.644Zm-48.221,0l-19.296,0l-0,9.644l19.296,0l-0,-9.644Zm-48.255,0.028c-1.466,-0 -19.274,0.118 -19.343,0.194l0.173,9.644c0.069,-0.069 17.779,-0.187 19.232,-0.187l-0.063,-9.644l0.001,-0.007Zm-46.304,16.784l-0.014,0.041l-0.062,0.201l-0.063,0.207c-1.805,6.282 -2.649,12.792 -3.293,19.282l-0.021,0.194l9.603,0.927l0.021,-0.173c0.567,-5.687 1.28,-11.837 2.892,-17.33l0.055,-0.187l0.041,-0.146l0.049,-0.152l0.014,-0.041l-9.222,-2.83l-0,0.007Zm-5.12,49.118l-0.007,0.167l-0.014,0.422l-0.027,0.857c-0.159,5.763 -0.284,11.519 -0.381,17.289l-0.007,0.457l-0.007,0.173l9.644,0.152l0.007,-0.173l0.007,-0.457c0.097,-5.86 0.208,-11.719 0.388,-17.572l0.014,-0.415l0.013,-0.422l0.007,-0.166l-9.637,-0.312Zm-57.124,205.359c1.1,-5.5 3.252,-9.72 7.797,-13.131l0.014,-0.006l-5.625,-7.839l-0.062,0.049c-6.489,4.711 -10.025,11.269 -11.574,19.024l9.45,1.903Zm32.986,-20.865c6.289,-0.844 12.529,-1.307 18.859,-1.722l-0.581,-9.624c-6.552,0.422 -13.041,0.921 -19.551,1.792l1.28,9.561l-0.007,-0.007Zm47.591,-2.801l0.263,-0.007l0.456,-0.014l0.464,-0.007c5.631,-0.125 11.27,-0.242 16.901,-0.318l0.996,-0.014l0.166,-0l-0.145,-9.644l-0.166,-0l-0.505,0.007l-0.498,0.007c-5.5,0.096 -11,0.186 -16.5,0.311l-0.464,0.014l-0.463,0.007l-0.471,0.014l-0.263,0.006l0.229,9.644l-0,-0.006Zm48.144,-0.706l0.118,-0l0.54,-0.007c5.873,-0.055 11.747,-0.104 17.627,-0.145l0.533,-0.007l0.47,-0.007l-0.069,-9.644l-0.47,0.007l-0.533,0.007c-5.88,0.041 -11.768,0.09 -17.648,0.145l-0.526,0.007l-0.118,-0l0.083,9.644l-0.007,-0Zm48.214,-0.353l0.222,0l0.505,-0.007c5.908,-0.048 11.823,-0.09 17.731,-0.138l0.457,-0.007l0.388,-0.007l-0.083,-9.644l-0.388,0.007l-0.457,0.007c-5.908,0.048 -11.816,0.09 -17.724,0.138l-0.492,0.007l-0.221,0l0.062,9.644Zm48.338,-0.595c6.475,-0.173 13.366,-0.491 19.772,-1.446l-1.384,-9.547c-6.053,0.892 -12.57,1.19 -18.686,1.349l0.297,9.637l0.001,0.007Zm46.552,-19.246c2.616,-6.448 3.605,-13.539 3.965,-20.451l-9.631,-0.477c-0.352,5.846 -1.037,11.796 -3.258,17.268l8.925,3.653l-0.001,0.007Zm2.027,-50.316l-0.02,-0.139l-0.035,-0.207l-0.035,-0.201l-0.034,-0.221l-0.069,-0.415l-0.083,-0.429l-0.042,-0.208l-0.069,-0.401l-0.035,-0.207l-0.041,-0.208c-1.128,-5.984 -2.747,-12.328 -6.185,-17.441l-8.039,5.334c2.691,4.123 3.833,9.111 4.746,13.899l0.034,0.187l0.035,0.193l0.035,0.201l0.069,0.387l0.069,0.374l0.069,0.401l0.035,0.187l0.069,0.401l0.021,0.139l9.505,-1.619l0,-0.007Zm-34.155,-35.988l-0.263,-0.063l-0.636,-0.152l-0.325,-0.069l-0.318,-0.069l-0.651,-0.138l-0.664,-0.139l-0.325,-0.069l-0.332,-0.069l-0.346,-0.069l-0.339,-0.07l-0.692,-0.138l-0.339,-0.062l-0.353,-0.069l-0.352,-0.063l-0.346,-0.062l-0.72,-0.124l-0.353,-0.063l-1.1,-0.186l-0.359,-0.063l-0.374,-0.062l-0.374,-0.055l-0.373,-0.063l-0.374,-0.055l-0.38,-0.062l-0.374,-0.056l-0.387,-0.062l-0.388,-0.055l-0.38,-0.056l-1.578,-0.221l-1.203,-0.166l-0.402,-0.048l-0.408,-0.056l-1.66,-0.193l-0.422,-0.049l-0.83,-0.097l-0.436,-0.048l-0.422,-0.049l-1.052,9.589l0.401,0.049l0.402,0.041l0.816,0.097l0.401,0.048l0.408,0.049l0.789,0.097l0.775,0.097l0.394,0.048l0.388,0.048l0.761,0.097l0.387,0.056l0.374,0.048l0.373,0.055l0.367,0.056l0.374,0.055l0.719,0.111l0.367,0.055l1.411,0.221l0.346,0.056l0.353,0.055l0.678,0.111l0.332,0.055l0.346,0.062l0.332,0.056l0.325,0.062l0.332,0.062l0.976,0.187l0.636,0.125l0.623,0.124l0.636,0.125l0.305,0.062l0.892,0.187l0.298,0.069l0.29,0.062l0.291,0.069l0.283,0.063l0.263,0.062l2.18,-9.395l0.006,0.014Zm-48.745,-5.327l-0.373,-0.014l-0.561,-0.028l-1.107,-0.055l-1.12,-0.042l-0.568,-0.027l-0.567,-0.021l-0.567,-0.028l-2.297,-0.083l-0.581,-0.021l-0.574,-0.02l-0.589,-0.021l-1.162,-0.042l-1.19,-0.041l-0.588,-0.021l-0.595,-0.021l-0.602,-0.02l-1.19,-0.042l-1.805,-0.062l-1.218,-0.042l-1.231,-0.041l-0.609,-0.014l-0.263,-0.007l-0.27,9.644l0.263,0.007l0.616,0.014l0.602,0.014l0.602,0.02l0.608,0.021l0.595,0.021l1.204,0.042l1.785,0.062l1.764,0.062l2.325,0.083l1.148,0.042l0.567,0.02l0.575,0.021l1.134,0.042l1.121,0.041l0.567,0.021l0.554,0.021l0.56,0.02l1.661,0.083l0.546,0.028l0.374,0.014l0.449,-9.637l0.007,0.007Zm-48.371,-1.246l-0.298,0l-0.698,-0.006c-5.749,-0.063 -11.498,-0.104 -17.248,-0.139l-0.74,-0.007l-0.339,0l-0.048,9.644l0.332,0l0.733,0.007c5.964,0.042 11.934,0.083 17.897,0.152l0.297,0l0.111,-9.644l0.001,-0.007Zm-48.269,-0.242l-0.761,0c-5.984,-0.007 -11.968,-0.007 -17.953,-0.007l-0.588,0l-0,9.644l0.588,0c5.977,0 11.955,0 17.939,0.007l0.761,0l0.014,-9.644Zm-48.226,-0.007l-0.353,0c-6.309,0 -12.626,0.007 -18.934,0.007l-0,9.644c6.309,0 12.625,-0.007 18.934,-0.007l0.353,0l0,-9.644Zm-48.226,0.028l-0.083,0c-6.261,0.007 -12.515,0.021 -18.777,0.028l-0.436,-0l0.021,9.644l0.436,-0c6.254,-0.007 12.508,-0.021 18.762,-0.028l0.09,0l-0.013,-9.644Zm-48.226,0.104l-1.453,-0l-0.865,0.007l-1.723,-0l-0.864,0.007l-0.865,-0l-0.858,0.007l-0.858,-0l-0.858,0.007l-0.858,-0l-0.857,0.006l-0.851,0.007l-0.851,0l-0.858,0.007l-2.553,0.021l-0.844,0.007l-0.844,-0l-1.702,0.014l-0.74,0.007l0.048,9.644l0.74,-0.007l0.838,-0.007l0.844,-0.007l0.844,-0l4.254,-0.035l0.851,0l0.858,-0.007l0.851,-0.006l0.858,-0l0.858,-0.007l0.858,-0l0.857,-0.007l0.865,-0l0.865,-0.007l1.723,-0l0.864,-0.007l1.446,-0l-0.027,-9.644l0.007,-0Zm-48.234,0.249l-0.463,-0l-1.55,0.014l-0.782,0.007l-0.775,0.007l-3.071,0.027l-2.284,0.021l-3.016,0.028l-1.494,0.014l-2.961,0.027l-2.2,0.021l-0.699,0.007l0.104,9.644l0.698,-0.007l0.727,-0.007l0.733,-0.007l0.74,-0.007l0.734,-0.007l2.221,-0.02l1.494,-0.014l0.754,-0.007l0.747,-0.007l1.508,-0.014l3.044,-0.028l1.536,-0.014l3.1,-0.027l0.781,-0.007l0.45,-0l-0.076,-9.644Zm-48.282,0.567l-0.485,0.007l-0.602,0.014l-0.595,0.014l-0.595,0.007l-0.595,0.014l-0.588,0.006l-0.588,0.014l-0.588,0.007l-0.581,0.014l-0.581,0.007l-0.574,0.014l-0.567,0.014l-0.568,0.007l-0.574,0.013l-0.567,0.007l-2.768,0.035l-0.546,0.007l-0.533,0.007l-1.079,0.014l-1.065,0.013l-1.578,0.021l-0.512,0.007l-1.037,0.014l-0.499,0.007l-0.511,-0l-0.443,0.007l0.062,9.644l0.443,-0.007l0.512,-0l0.525,-0.007l1.038,-0.014l0.533,-0.007l1.052,-0.014l0.539,-0.007l0.533,-0.007l1.619,-0.02l0.553,-0.007l0.547,-0.007l1.66,-0.021l0.56,-0.007l0.568,-0.014l0.567,-0.007l0.56,-0.006l0.575,-0.014l0.581,-0.007l0.574,-0.014l0.581,-0.007l0.581,-0.014l0.588,-0.007l0.588,-0.014l0.588,-0.006l0.595,-0.014l0.595,-0.007l1.204,-0.028l0.484,-0.007l-0.173,-9.644l-0.013,0Zm-47.231,-1.204c-5.59,-0.934 -11.111,-2.601 -15.684,-6.046l-5.853,7.665c5.86,4.428 12.709,6.69 19.884,7.88l1.647,-9.506l0.006,0.007Zm-28.22,-28.075l-0.063,-0.214l-0.104,-0.387c-1.535,-5.708 -2.622,-11.457 -3.535,-17.289l-0.069,-0.443l-9.533,1.467c0.982,6.33 2.158,12.591 3.826,18.782l0.117,0.436l0.063,0.214l9.298,-2.566Zm-6.843,-46.711l-0.013,-0.243c-0.464,-6.233 -0.81,-12.459 -1.114,-18.7l-0.007,-0.18l-9.637,0.443l0.007,0.186c0.304,6.331 0.664,12.64 1.127,18.956l0.014,0.242l9.616,-0.712l0.007,0.008Zm-2.068,-47.917l-0.007,-0.56c-0.125,-6.136 -0.208,-12.273 -0.27,-18.41l0,-0.263l-9.644,0.09l0,0.276c0.069,6.172 0.152,12.336 0.277,18.506l0.014,0.561l9.644,-0.194l-0.014,-0.006Zm-0.429,-48.13l-0,-0.581c-0,-6.213 -0.007,-12.425 -0.007,-18.637l-0,-0.069l-9.644,-0l-0,0.069c-0,6.212 0.007,12.425 0.007,18.644l-0,0.581l9.644,-0.007Zm0.083,-48.179c0.041,-6.399 0.117,-12.819 0.277,-19.212l-9.644,-0.222l-0.014,0.568c-0.132,6.261 -0.229,12.529 -0.27,18.789l9.644,0.076l0.007,0.001Zm1.508,-47.887l0.021,-0.326c0.443,-6.157 1.017,-12.252 1.826,-18.374l0.021,-0.173l-9.554,-1.315c-0.879,6.365 -1.446,12.778 -1.916,19.184l-0.021,0.325l9.623,0.679Zm8.302,-45.729l0.069,-0.173l0.118,-0.27c2.193,-5.175 5.119,-9.817 9.305,-13.657l-6.427,-7.195c-5.314,4.801 -8.959,10.592 -11.761,17.081l-0.132,0.326l-0.069,0.172l8.904,3.709l-0.007,0.007Z" style="fill:#0f766e;fill-rule:nonzero;stroke:#0f766e;stroke-width:4.17px;"/><path d="M351.748,187.867c-11.942,0 -23.379,2.628 -33.963,7.422l-22.386,-85.673l57.984,10.894c0.647,0.122 1.291,0.181 1.926,0.181c4.882,0 9.229,-3.469 10.167,-8.443c1.055,-5.618 -2.645,-11.029 -8.262,-12.085l-128.559,-24.161c-5.617,-1.068 -11.033,2.645 -12.085,8.263c-1.055,5.617 2.645,11.029 8.263,12.085l48.057,9.032c-29.059,17.332 -57.622,39.058 -85.521,65.031l-5.319,-20.785l21.188,-13.241c4.011,-2.506 5.815,-7.417 4.377,-11.92c-1.438,-4.504 -5.739,-7.472 -10.466,-7.195l-59.527,3.453c-4.785,0.277 -8.759,3.805 -9.596,8.531c-0.836,4.726 1.682,9.402 6.089,11.307l27.264,11.794l8.863,34.644c-5.007,5.025 -9.994,10.201 -14.957,15.507c-9.191,-7.762 -19.766,-11.9 -30.896,-11.9c-16.954,0 -32.613,9.592 -44.083,27.004c-10.592,16.083 -16.425,37.208 -16.425,59.494c0,22.286 5.833,43.415 16.425,59.494c11.47,17.417 27.12,27.004 44.083,27.004c16.962,-0 32.612,-9.592 44.083,-27.004c8.556,-12.988 14.002,-29.269 15.776,-46.795l15.524,0.87c3.629,0.206 7.102,-1.509 9.141,-4.52l80.333,-118.235l10.084,38.592c-26.845,20.924 -44.659,57.412 -44.659,98.838c-0,64.779 43.553,117.481 97.093,117.481c53.539,0 97.093,-52.703 97.093,-117.481c-0.005,-64.775 -43.567,-117.482 -97.106,-117.482l-0.003,-0.001Zm-160.421,81.591l-6.706,-0.375c-1.207,-19.001 -6.69,-36.779 -15.752,-50.819c2.452,-2.632 4.903,-5.222 7.367,-7.791l15.091,58.985Zm-36.977,-35.077c4.907,9.356 8.287,20.927 9.406,33.533l-35.573,-1.993c8.641,-10.974 17.371,-21.487 26.167,-31.541l-0,0.001Zm-29.968,108.504c-21.571,0 -39.795,-30.131 -39.795,-65.792c0,-35.661 18.224,-65.793 39.795,-65.793c6.026,0 11.786,2.351 16.967,6.518c-14.078,15.928 -27.958,32.965 -41.602,51.109c-2.296,3.052 -2.725,7.123 -1.115,10.587c1.611,3.465 4.996,5.761 8.81,5.975l56.079,3.146c-3.414,30.387 -19.947,54.25 -39.138,54.25l-0.001,0Zm83.536,-92.131l-14.675,-57.371c27.785,-26.869 56.219,-49.297 85.118,-67.109l3.927,15.037l-74.37,109.443Zm193.198,120.345c-13.418,16.667 -30.952,25.855 -49.372,25.855c-18.417,0 -35.955,-9.179 -49.373,-25.855c-14.078,-17.492 -21.831,-40.841 -21.831,-65.747c-0,-24.909 7.753,-48.254 21.831,-65.746c1.387,-1.728 2.821,-3.364 4.301,-4.932l18.245,69.842l20.04,-5.235l-20.499,-78.466c8.565,-4.634 17.808,-7.069 27.29,-7.069c18.417,0 35.955,9.179 49.373,25.856c14.077,17.492 21.831,40.841 21.831,65.746c-0.005,24.91 -7.758,48.259 -21.836,65.751l0,-0Z" style="fill-rule:nonzero;"/><path d="M148.252,3c19.804,0 35.882,16.078 35.882,35.882c-0,19.804 -16.078,35.882 -35.882,35.882c-19.804,-0 -35.882,-16.078 -35.882,-35.882c0,-19.804 16.078,-35.882 35.882,-35.882Zm0,15.026c-11.511,0 -20.856,9.346 -20.856,20.856c0,11.511 9.345,20.856 20.856,20.856c11.511,-0 20.856,-9.345 20.856,-20.856c-0,-11.51 -9.345,-20.856 -20.856,-20.856Z" style="stroke:#000;stroke-width:4.17px;stroke-linecap:round;stroke-miterlimit:1.5;"/><path d="M523.317,215.245c19.804,0 35.882,16.078 35.882,35.882c-0,19.804 -16.078,35.882 -35.882,35.882c-19.804,-0 -35.882,-16.078 -35.882,-35.882c0,-19.804 16.078,-35.882 35.882,-35.882Zm0,15.026c-11.511,0 -20.856,9.345 -20.856,20.856c0,11.511 9.345,20.856 20.856,20.856c11.511,-0 20.856,-9.345 20.856,-20.856c-0,-11.511 -9.345,-20.856 -20.856,-20.856Z" style="stroke:#000;stroke-width:4.17px;stroke-linecap:round;stroke-miterlimit:1.5;"/><path d="M278.806,514.594c19.804,-0 35.882,16.078 35.882,35.882c0,19.803 -16.078,35.882 -35.882,35.882c-19.803,-0 -35.881,-16.079 -35.881,-35.882c-0,-19.804 16.078,-35.882 35.881,-35.882Zm0,15.026c-11.51,-0 -20.855,9.345 -20.855,20.856c-0,11.51 9.345,20.856 20.855,20.856c11.511,-0 20.856,-9.346 20.856,-20.856c0,-11.511 -9.345,-20.856 -20.856,-20.856Z" style="stroke:#000;stroke-width:4.17px;stroke-linecap:round;stroke-miterlimit:1.5;"/></svg>